<svg width="56" height="37" viewBox="0 0 56 37" fill="none" xmlns="http://www.w3.org/2000/svg">
<mask id="mask0_902_6874" style="mask-type:luminance" maskUnits="userSpaceOnUse" x="0" y="0" width="56" height="38">
<rect width="56" height="37.3333" fill="white"/>
</mask>
<g mask="url(#mask0_902_6874)">
<path fill-rule="evenodd" clip-rule="evenodd" d="M0 0H56V37.3333H0V0Z" fill="#73BE4A"/>
<path fill-rule="evenodd" clip-rule="evenodd" d="M0 0V24.8889H56V0H0Z" fill="#AF0100"/>
<rect width="10.5" height="37.3333" fill="#F7FCFF"/>
<path fill-rule="evenodd" clip-rule="evenodd" d="M0.778809 3.47829L3.3209 0.0883789L5.79756 3.4782L3.32083 6.71276L0.778809 3.47829ZM3.3126 5.3285L4.7374 3.46773L3.31253 1.5175L1.85012 3.46764L3.3126 5.3285ZM3.5006 3.21122H3.0631V4.01409H3.5006V3.21122Z" fill="#B20000"/>
<path fill-rule="evenodd" clip-rule="evenodd" d="M1.9908 6.51147L0.77832 8.05255L1.99077 9.52296L3.17207 8.05251L1.9908 6.51147ZM2.55808 8.07841L2.01176 8.73763L1.45888 8.03909L2.01029 7.31566L2.55808 8.07841Z" fill="#B20000"/>
<path fill-rule="evenodd" clip-rule="evenodd" d="M4.6158 6.51147L3.40332 8.05255L4.61577 9.52296L5.79707 8.05251L4.6158 6.51147ZM5.18308 8.07841L4.63676 8.73763L4.08388 8.03909L4.63529 7.31566L5.18308 8.07841Z" fill="#B20000"/>
<path fill-rule="evenodd" clip-rule="evenodd" d="M6.3658 6.51147L5.15332 8.05255L6.36577 9.52296L7.54707 8.05251L6.3658 6.51147ZM6.93308 8.07841L6.38676 8.73763L5.83388 8.03909L6.38529 7.31566L6.93308 8.07841Z" fill="#B20000"/>
<path fill-rule="evenodd" clip-rule="evenodd" d="M8.9908 6.51147L7.77832 8.05255L8.99077 9.52296L10.1721 8.05251L8.9908 6.51147ZM9.55808 8.07841L9.01176 8.73763L8.45888 8.03909L9.01029 7.31566L9.55808 8.07841Z" fill="#B20000"/>
<path fill-rule="evenodd" clip-rule="evenodd" d="M5.15381 3.47829L7.6959 0.0883789L10.1726 3.4782L7.69583 6.71276L5.15381 3.47829ZM7.6876 5.3285L9.1124 3.46773L7.68753 1.5175L6.22512 3.46764L7.6876 5.3285ZM7.8756 3.21122H7.4381V4.01409H7.8756V3.21122Z" fill="#B20000"/>
<path d="M2.89896 19.2982L0.0654297 15.0685L0.810859 14.6481L2.86498 17.7143L5.37137 13.6201L7.94002 17.7241L9.75493 15.0465L10.498 15.4705L7.91012 19.2884L5.3798 15.2457L2.89896 19.2982Z" fill="#B20000"/>
<path fill-rule="evenodd" clip-rule="evenodd" d="M1.3125 0.802734H1.78293V1.6056H1.3125V0.802734Z" fill="#B20000"/>
<path fill-rule="evenodd" clip-rule="evenodd" d="M5.25 0H5.72043V0.802867H5.25V0Z" fill="#B20000"/>
<path fill-rule="evenodd" clip-rule="evenodd" d="M9.1875 0.802734H9.65793V1.6056H9.1875V0.802734Z" fill="#B20000"/>
<path fill-rule="evenodd" clip-rule="evenodd" d="M1.3125 5.61987H1.75V6.42274H1.3125V5.61987ZM5.25 5.61996H5.6875V6.42283H5.25V5.61996ZM9.625 5.61996H9.1875V6.42283H9.625V5.61996Z" fill="#B20000"/>
<path fill-rule="evenodd" clip-rule="evenodd" d="M1.3125 9.63452H1.75V10.4374H1.3125V9.63452ZM5.25 9.63458H5.6875V10.4374H5.25V9.63458ZM9.625 9.63458H9.1875V10.4374H9.625V9.63458Z" fill="#B20000"/>
<path fill-rule="evenodd" clip-rule="evenodd" d="M3.8644 13.93L2.70206 15.4362L0.868652 12.501L3.28323 9.14746L5.36004 12.0711L7.43684 9.14746L9.85143 12.501L8.01802 15.4362L6.85567 13.93L7.77336 12.2341L7.43684 11.545L5.4758 14.3725V14.7063L5.36004 14.5394L5.24428 14.7063V14.3725L3.28323 11.545L2.94672 12.2341L3.8644 13.93Z" fill="#B20000"/>
<path fill-rule="evenodd" clip-rule="evenodd" d="M5.25 16.4586H5.6875V17.2615H5.25V16.4586ZM5.25 20.4728H5.6875V21.2756H5.25V20.4728ZM5.25 17.6629H4.8125V18.4658H5.25V18.8672H4.8125V19.6701H5.25V19.2685H5.6875V19.6701H6.125V18.8672H5.6875V18.4658H6.125V17.6629H5.6875V18.4657H5.25V17.6629ZM3.9375 18.4657H4.375V19.2685H3.9375V18.4657ZM7 18.4657H6.5625V19.2685H7V18.4657ZM0.875 18.4657H1.3125V19.2685H0.875V18.4657ZM10.0625 18.4657H9.625V19.2685H10.0625V18.4657Z" fill="#B20000"/>
<path fill-rule="evenodd" clip-rule="evenodd" d="M0.778809 33.8547L3.3209 37.2446L5.79756 33.8548L3.32083 30.6202L0.778809 33.8547ZM3.3126 32.0045L4.7374 33.8653L3.31253 35.8155L1.85012 33.8654L3.3126 32.0045ZM3.5006 34.1219H3.0631V33.3191H3.5006V34.1219Z" fill="#B20000"/>
<path fill-rule="evenodd" clip-rule="evenodd" d="M1.9908 30.822L0.77832 29.2809L1.99077 27.8105L3.17207 29.281L1.9908 30.822ZM2.55808 29.2551L2.01176 28.5959L1.45888 29.2944L2.01029 30.0178L2.55808 29.2551Z" fill="#B20000"/>
<path fill-rule="evenodd" clip-rule="evenodd" d="M4.6158 30.822L3.40332 29.2809L4.61577 27.8105L5.79707 29.281L4.6158 30.822ZM5.18308 29.2551L4.63676 28.5959L4.08388 29.2944L4.63529 30.0178L5.18308 29.2551Z" fill="#B20000"/>
<path fill-rule="evenodd" clip-rule="evenodd" d="M6.3658 30.822L5.15332 29.2809L6.36577 27.8105L7.54707 29.281L6.3658 30.822ZM6.93308 29.2551L6.38676 28.5959L5.83388 29.2944L6.38529 30.0178L6.93308 29.2551Z" fill="#B20000"/>
<path fill-rule="evenodd" clip-rule="evenodd" d="M8.9908 30.822L7.77832 29.2809L8.99077 27.8105L10.1721 29.281L8.9908 30.822ZM9.55808 29.2551L9.01176 28.5959L8.45888 29.2944L9.01029 30.0178L9.55808 29.2551Z" fill="#B20000"/>
<path fill-rule="evenodd" clip-rule="evenodd" d="M5.15381 33.8547L7.6959 37.2446L10.1726 33.8548L7.69583 30.6202L5.15381 33.8547ZM7.6876 32.0045L9.1124 33.8653L7.68753 35.8155L6.22512 33.8654L7.6876 32.0045ZM7.8756 34.1219H7.4381V33.3191H7.8756V34.1219Z" fill="#B20000"/>
<path d="M2.89896 18.0351L0.0654297 22.2647L0.810859 22.6852L2.86498 19.619L5.37137 23.7131L7.94002 19.6092L9.75493 22.2868L10.498 21.8628L7.91012 18.0449L5.3798 22.0875L2.89896 18.0351Z" fill="#B20000"/>
<path fill-rule="evenodd" clip-rule="evenodd" d="M1.3125 36.5305H1.78293V35.7277H1.3125V36.5305Z" fill="#B20000"/>
<path fill-rule="evenodd" clip-rule="evenodd" d="M5.25 37.3333H5.72043V36.5304H5.25V37.3333Z" fill="#B20000"/>
<path fill-rule="evenodd" clip-rule="evenodd" d="M9.1875 36.5305H9.65793V35.7277H9.1875V36.5305Z" fill="#B20000"/>
<path fill-rule="evenodd" clip-rule="evenodd" d="M1.3125 31.7134H1.75V30.9105H1.3125V31.7134ZM5.25 31.7134H5.6875V30.9105H5.25V31.7134ZM9.625 31.7134H9.1875V30.9105H9.625V31.7134Z" fill="#B20000"/>
<path fill-rule="evenodd" clip-rule="evenodd" d="M5.25 27.6988H5.6875V26.8959H5.25V27.6988ZM1.3125 27.6987H1.75V26.8959H1.3125V27.6987ZM9.625 27.6988H9.1875V26.8959H9.625V27.6988Z" fill="#B20000"/>
<path fill-rule="evenodd" clip-rule="evenodd" d="M3.8644 23.6335L2.70206 22.1273L0.868652 25.0625L3.28323 28.416L5.36004 25.4924L7.43684 28.416L9.85143 25.0625L8.01802 22.1273L6.85567 23.6335L7.77336 25.3294L7.43684 26.0185L5.4758 23.191V22.8572L5.36004 23.0241L5.24428 22.8572V23.191L3.28323 26.0185L2.94672 25.3294L3.8644 23.6335Z" fill="#B20000"/>
</g>
</svg>
