<svg width="56" height="37" viewBox="0 0 56 37" fill="none" xmlns="http://www.w3.org/2000/svg">
<g clip-path="url(#clip0_902_6826)">
<mask id="mask0_902_6826" style="mask-type:alpha" maskUnits="userSpaceOnUse" x="0" y="0" width="56" height="37">
<path d="M50.6667 0H5.33333C2.38781 0 0 2.20873 0 4.93333V32.0667C0 34.7913 2.38781 37 5.33333 37H50.6667C53.6122 37 56 34.7913 56 32.0667V4.93333C56 2.20873 53.6122 0 50.6667 0Z" fill="white"/>
</mask>
<g mask="url(#mask0_902_6826)">
<path d="M50.6667 0H5.33333C2.38781 0 0 2.20873 0 4.93333V32.0667C0 34.7913 2.38781 37 5.33333 37H50.6667C53.6122 37 56 34.7913 56 32.0667V4.93333C56 2.20873 53.6122 0 50.6667 0Z" fill="#00AFCC"/>
<path fill-rule="evenodd" clip-rule="evenodd" d="M5.3335 6.15435C5.3335 5.48095 5.95216 4.93335 6.66683 4.93335C7.40283 4.93335 8.00016 5.46615 8.00016 6.15435V11.1123C8.00016 11.7857 7.3815 12.3333 6.66683 12.3333C5.93083 12.3333 5.3335 11.8005 5.3335 11.1123V6.15435ZM8.00016 11.0877C8.00016 10.4143 8.61883 9.86668 9.3335 9.86668C10.0695 9.86668 10.6668 10.3995 10.6668 11.0877V16.0457C10.6668 16.7191 10.0482 17.2667 9.3335 17.2667C8.5975 17.2667 8.00016 16.7339 8.00016 16.0457V11.0877ZM8.00016 20.9543C8.00016 20.2809 8.61883 19.7333 9.3335 19.7333C10.0695 19.7333 10.6668 20.2661 10.6668 20.9543V25.9123C10.6668 26.5857 10.0482 27.1333 9.3335 27.1333C8.5975 27.1333 8.00016 26.6005 8.00016 25.9123V20.9543V20.9543ZM5.3335 25.8877C5.3335 25.2143 5.95216 24.6667 6.66683 24.6667C7.40283 24.6667 8.00016 25.1995 8.00016 25.8877V30.8457C8.00016 31.5191 7.3815 32.0667 6.66683 32.0667C5.93083 32.0667 5.3335 31.5339 5.3335 30.8457V25.8877ZM5.3335 16.0333C5.3335 15.3525 5.95216 14.8 6.66683 14.8C7.40283 14.8 8.00016 15.3723 8.00016 16.0333C8.00016 16.7141 7.3815 17.2667 6.66683 17.2667C5.93083 17.2667 5.3335 16.6944 5.3335 16.0333ZM8.00016 6.16668C8.00016 5.48588 8.61883 4.93335 9.3335 4.93335C10.0695 4.93335 10.6668 5.50562 10.6668 6.16668C10.6668 6.84748 10.0482 7.40002 9.3335 7.40002C8.5975 7.40002 8.00016 6.82775 8.00016 6.16668ZM5.3335 18.5C5.3335 17.8192 5.95216 17.2667 6.66683 17.2667C7.40283 17.2667 8.00016 17.8389 8.00016 18.5C8.00016 19.1808 7.3815 19.7333 6.66683 19.7333C5.93083 19.7333 5.3335 19.1611 5.3335 18.5ZM8.00016 30.8333C8.00016 30.1525 8.61883 29.6 9.3335 29.6C10.0695 29.6 10.6668 30.1723 10.6668 30.8333C10.6668 31.5141 10.0482 32.0667 9.3335 32.0667C8.5975 32.0667 8.00016 31.4944 8.00016 30.8333ZM5.3335 20.9667C5.3335 20.2859 5.95216 19.7333 6.66683 19.7333C7.40283 19.7333 8.00016 20.3056 8.00016 20.9667C8.00016 21.6475 7.3815 22.2 6.66683 22.2C5.93083 22.2 5.3335 21.6277 5.3335 20.9667Z" fill="#DAC21D"/>
<path d="M30.6667 22.2C34.3486 22.2 37.3333 19.4391 37.3333 16.0334C37.3333 12.6276 34.3486 9.8667 30.6667 9.8667C26.9848 9.8667 24 12.6276 24 16.0334C24 19.4391 26.9848 22.2 30.6667 22.2Z" fill="#FFC600"/>
<path fill-rule="evenodd" clip-rule="evenodd" d="M21.3335 17.2666L24.0002 22.1999L30.6668 24.6666L37.3335 22.1999L40.0002 17.2666V24.6666L30.6668 27.1333L21.3335 24.6666V17.2666Z" fill="#FFC600"/>
</g>
</g>
<defs>
<clipPath id="clip0_902_6826">
<rect width="56" height="37" fill="white"/>
</clipPath>
</defs>
</svg>
