<svg width="56" height="37" viewBox="0 0 56 37" fill="none" xmlns="http://www.w3.org/2000/svg">
<g clip-path="url(#clip0_902_8302)">
<mask id="mask0_902_8302" style="mask-type:luminance" maskUnits="userSpaceOnUse" x="0" y="0" width="56" height="38">
<rect width="56" height="37.3333" fill="white"/>
</mask>
<g mask="url(#mask0_902_8302)">
<path fill-rule="evenodd" clip-rule="evenodd" d="M0 0H56V37.3333H0V0Z" fill="#F7FCFF"/>
<path fill-rule="evenodd" clip-rule="evenodd" d="M0 0V12.4444H56V0H0Z" fill="#C51918"/>
<path fill-rule="evenodd" clip-rule="evenodd" d="M0 24.8892V37.3336H56V24.8892H0Z" fill="#409100"/>
<path fill-rule="evenodd" clip-rule="evenodd" d="M28.036 13.4243L27.0015 14.074L27.3664 12.9852L26.3621 12.2979L27.6222 12.2747L28.036 11.2001L28.4498 12.2747L29.71 12.2979L28.7056 12.9852L29.0706 14.074L28.036 13.4243ZM23.6649 14.3772L22.6303 15.027L22.9953 13.9381L21.9909 13.2508L23.251 13.2277L23.6649 12.1531L24.0787 13.2277L25.3388 13.2508L24.3344 13.9381L24.6994 15.027L23.6649 14.3772ZM19.2329 17.8868L20.2675 17.237L21.3021 17.8868L20.9371 16.7979L21.9415 16.1107L20.6813 16.0875L20.2675 15.0129L19.8537 16.0875L18.5935 16.1107L19.5979 16.7979L19.2329 17.8868ZM19.1738 20.9438L18.1392 21.5936L18.5042 20.5047L17.4998 19.8174L18.7599 19.7942L19.1738 18.7197L19.5876 19.7942L20.8477 19.8174L19.8434 20.5047L20.2083 21.5936L19.1738 20.9438ZM35.7419 21.5936L36.7764 20.9438L37.811 21.5936L37.446 20.5047L38.4504 19.8174L37.1903 19.7942L36.7764 18.7197L36.3626 19.7942L35.1025 19.8174L36.1068 20.5047L35.7419 21.5936ZM35.4409 17.237L34.4063 17.8868L34.7713 16.7979L33.7669 16.1107L35.0271 16.0875L35.4409 15.0129L35.8547 16.0875L37.1149 16.1107L36.1105 16.7979L36.4755 17.8868L35.4409 17.237ZM31.057 15.027L32.0915 14.3772L33.1261 15.027L32.7611 13.9381L33.7655 13.2508L32.5054 13.2277L32.0915 12.1531L31.6777 13.2277L30.4176 13.2508L31.4219 13.9381L31.057 15.027ZM22.1688 26.0624L21.8462 25.0414C23.6313 24.6121 25.6807 24.3985 27.9947 24.3985C30.3088 24.3985 32.3582 24.6121 34.1433 25.0414L33.8207 26.0624C32.1475 25.66 30.2053 25.4576 27.9947 25.4576C25.7841 25.4576 23.842 25.66 22.1688 26.0624ZM24.3776 24.4256C23.6654 24.5331 23.0829 23.9211 23.0829 23.9211L23.7895 23.6616C23.7672 23.2262 24.0626 22.9563 24.0626 22.9563C24.3016 23.0541 24.6278 23.5888 24.6278 23.5888H25.2683C25.2683 23.5888 25.0898 24.318 24.3776 24.4256ZM32.7943 24.0272C32.7943 24.0272 32.2118 24.6391 31.4996 24.5316C30.7874 24.424 30.6089 23.6948 30.6089 23.6948H31.2494C31.2494 23.6948 31.5756 23.1601 31.8146 23.0623C31.8146 23.0623 32.11 23.3322 32.0877 23.7677L32.7943 24.0272ZM27.9036 24.2318C27.1815 24.2502 26.7005 23.5721 26.7005 23.5721L27.4408 23.4026C27.4869 22.9686 27.8217 22.7378 27.8217 22.7378C28.0431 22.8643 28.2823 23.4341 28.2823 23.4341L28.9166 23.5133C28.9166 23.5133 28.6257 24.2134 27.9036 24.2318Z" fill="#FFBB00"/>
<path fill-rule="evenodd" clip-rule="evenodd" d="M27.9282 21.3091C27.9282 21.3091 27.1075 22.9787 25.8149 23.1079C24.5222 23.237 23.8657 22.1583 23.8657 22.1583C23.8657 22.1583 23.781 23.28 22.2459 23.7124C20.7107 24.1448 19.9023 22.4173 19.9023 22.4173C19.9023 22.4173 20.7016 23.0527 21.9412 22.7758C23.1807 22.4989 23.67 21.4763 23.67 21.4763C23.67 21.4763 24.5874 22.5424 25.8149 22.0093C27.0423 21.4763 27.7213 20.8248 27.7213 20.1996V18.3301C27.7213 18.3301 27.4047 17.8453 26.8553 17.8453C26.306 17.8453 26.1527 18.189 26.1527 18.189C26.1527 18.189 25.9382 16.2437 27.9145 16.1238L27.9144 16.1191C27.9327 16.1196 27.9508 16.1202 27.9688 16.121C27.9867 16.1202 28.0049 16.1196 28.0232 16.1191L28.0231 16.1238C29.9993 16.2437 29.7849 18.189 29.7849 18.189C29.7849 18.189 29.6316 17.8453 29.0822 17.8453C28.5329 17.8453 28.2162 18.3301 28.2162 18.3301V20.1996C28.2162 20.8248 28.8953 21.4763 30.1227 22.0093C31.3501 22.5424 32.2675 21.4763 32.2675 21.4763C32.2675 21.4763 32.7568 22.4989 33.9964 22.7758C35.236 23.0527 36.0352 22.4173 36.0352 22.4173C36.0352 22.4173 35.2268 24.1448 33.6917 23.7124C32.1566 23.28 32.0719 22.1583 32.0719 22.1583C32.0719 22.1583 31.4154 23.237 30.1227 23.1079C28.8301 22.9787 28.0093 21.3091 28.0093 21.3091L27.9688 19.0921L27.9282 21.3091ZM27.9092 16.6473C26.9978 16.6473 26.8132 17.3332 26.8132 17.3332C27.6157 17.3332 27.9092 17.6441 27.9092 17.6441C27.9092 17.6441 28.5034 17.3332 29.1017 17.3332C29.1017 17.3332 28.8207 16.6473 27.9092 16.6473Z" fill="#FFBB00"/>
</g>
</g>
<defs>
<clipPath id="clip0_902_8302">
<rect width="56" height="37" fill="white"/>
</clipPath>
</defs>
</svg>
