<svg width="120" height="31" viewBox="0 0 120 31" fill="none" xmlns="http://www.w3.org/2000/svg">
<path d="M47.2692 0.368958C45.0214 0.440069 36.7387 0.99118 36.6523 1.06229C36.5658 1.15118 36.6869 1.88007 37.465 6.0934L37.9319 8.6534L39.2287 8.61785C39.9377 8.60007 41.6495 8.51118 43.0328 8.42229C46.3874 8.19118 52.2492 8.22673 55.2233 8.47562L57.6441 8.68896L57.8516 10.2001C57.9727 11.0178 58.0418 11.729 58.0072 11.7645C57.9727 11.7823 54.9985 11.8356 51.4019 11.8534L44.8484 11.889L44.7966 15.569L44.762 19.2667H51.35H57.9554L57.8343 20.4578C57.6441 22.289 57.5922 22.4134 56.987 22.5201C56.6758 22.5734 55.0331 22.7156 53.3213 22.8401C50.3644 23.0356 43.6726 22.8934 39.1941 22.5201C37.8627 22.4134 37.8454 22.4134 37.8281 22.8401C37.8281 23.0712 37.5342 24.7778 37.171 26.6445C36.8079 28.4934 36.5312 30.0401 36.5312 30.0578C36.6177 30.1823 41.0962 30.5023 46.1453 30.7334C50.8486 30.9645 52.6469 30.9823 55.7421 30.8223C59.9612 30.609 63.748 30.3423 64.6126 30.1645C65.2697 30.0578 65.3388 29.9334 65.9613 27.4623C67.2409 22.3778 67.7423 15.9067 67.2409 10.7156C67.0161 8.31562 66.3071 4.6534 65.7192 2.64451L65.2351 1.04451L63.0736 0.831181C58.3531 0.351179 52.8544 0.191179 47.2692 0.368958Z" fill="white"/>
<path d="M0.669922 15.5335V30.1113H5.7709H10.8719L10.9065 19.658L10.9583 9.22243L16.7164 9.1691L22.4572 9.13354V19.6224V30.1113H27.5581H32.6591V15.5335V0.955767H16.6645H0.669922V15.5335Z" fill="white"/>
<path d="M71.7383 15.5335V30.1113H76.7528H81.7673L81.8019 24.6358L81.8538 19.178L83.6867 19.1247L85.5196 19.0713L86.021 19.7469C86.2804 20.1202 88.1306 22.6091 90.1364 25.258L93.7676 30.1113H100.062H106.338L105.163 28.6358C104.506 27.8358 103.52 26.5913 102.949 25.8624C101.359 23.8535 98.4882 20.2447 97.0703 18.4669C96.3786 17.578 95.4103 16.3691 94.9434 15.7647L94.0615 14.6802L95.9982 12.3869C97.0703 11.1247 98.8686 8.97355 100.01 7.62243C101.151 6.27132 102.846 4.28021 103.762 3.19577C104.696 2.11132 105.457 1.1691 105.457 1.08021C105.457 1.0091 102.863 0.955767 99.6813 0.955767H93.9059L89.7906 6.23577L85.6579 11.5335H83.7558H81.8538L81.8019 6.23577L81.7673 0.955767H76.7528H71.7383V15.5335Z" fill="white"/>
<path d="M111.04 0.902019L109.777 0.973129V5.3998V9.84424H114.705H119.633V5.43535V1.00869L117.697 0.902019C115.777 0.777575 113.547 0.795352 111.04 0.902019Z" fill="#EF2D47"/>
<path d="M109.777 25.9331C109.777 29.5065 109.812 30.1109 110.037 30.1109C110.175 30.1109 111.264 30.1998 112.475 30.3065C114.135 30.4665 115.224 30.4665 117.144 30.2887L119.633 30.0576V25.9153V21.7553H114.705H109.777V25.9331Z" fill="#EF2D47"/>
</svg>
