<?xml version="1.0" encoding="UTF-8" standalone="no"?>
<svg
   width="20"
   height="12"
   viewBox="0 0 20 12"
   fill="none"
   version="1.1"
   id="svg4"
   sodipodi:docname="arrow.svg"
   inkscape:version="1.1.1 (3bf5ae0d25, 2021-09-20)"
   xmlns:inkscape="http://www.inkscape.org/namespaces/inkscape"
   xmlns:sodipodi="http://sodipodi.sourceforge.net/DTD/sodipodi-0.dtd"
   xmlns="http://www.w3.org/2000/svg"
   xmlns:svg="http://www.w3.org/2000/svg">
  <defs
     id="defs8" />
  <sodipodi:namedview
     id="namedview6"
     pagecolor="#ffffff"
     bordercolor="#666666"
     borderopacity="1.0"
     inkscape:pageshadow="2"
     inkscape:pageopacity="0.0"
     inkscape:pagecheckerboard="0"
     showgrid="false"
     inkscape:zoom="64.05"
     inkscape:cx="10"
     inkscape:cy="6.0031226"
     inkscape:window-width="1920"
     inkscape:window-height="991"
     inkscape:window-x="-9"
     inkscape:window-y="-9"
     inkscape:window-maximized="1"
     inkscape:current-layer="svg4" />
  <path
     style="color:#000000;fill:#c2e23f;stroke-linecap:round;stroke-linejoin:round;-inkscape-stroke:none"
     d="m 14,0 a 1,1 0 0 0 -0.707031,0.29296875 1,1 0 0 0 0,1.41406245 L 16.585937,5 H 1 A 1,1 0 0 0 0,6 1,1 0 0 0 1,7 h 15.585937 l -3.292968,3.292969 a 1,1 0 0 0 0,1.414062 1,1 0 0 0 1.414062,0 l 5,-4.9999998 a 1,1 0 0 0 0.259766,-0.4472656 1,1 0 0 0 0,-0.1796875 A 1,1 0 0 0 20,6 1,1 0 0 0 19.966797,5.8339844 1,1 0 0 0 19.939453,5.6914062 1,1 0 0 0 19.707031,5.2929687 l -5,-4.99999995 A 1,1 0 0 0 14,0 Z"
     id="path2" />
</svg>
