<?xml version="1.0" encoding="UTF-8" standalone="no"?>
<svg
   width="38"
   height="38"
   viewBox="0 0 38 38"
   fill="none"
   version="1.1"
   id="svg11"
   sodipodi:docname="Vector (3).svg"
   inkscape:version="1.1.1 (3bf5ae0d25, 2021-09-20)"
   xmlns:inkscape="http://www.inkscape.org/namespaces/inkscape"
   xmlns:sodipodi="http://sodipodi.sourceforge.net/DTD/sodipodi-0.dtd"
   xmlns="http://www.w3.org/2000/svg"
   xmlns:svg="http://www.w3.org/2000/svg">
  <sodipodi:namedview
     id="namedview13"
     pagecolor="#ffffff"
     bordercolor="#666666"
     borderopacity="1.0"
     inkscape:pageshadow="2"
     inkscape:pageopacity="0.0"
     inkscape:pagecheckerboard="0"
     showgrid="false"
     inkscape:zoom="21.105263"
     inkscape:cx="18.976309"
     inkscape:cy="19.023691"
     inkscape:window-width="1920"
     inkscape:window-height="991"
     inkscape:window-x="-9"
     inkscape:window-y="-9"
     inkscape:window-maximized="1"
     inkscape:current-layer="svg11" />
  <path
     style="color:#000000;fill:url(#paint0_linear_1503_9988);stroke-linecap:round;stroke-linejoin:round;-inkscape-stroke:none"
     d="M 1,0 A 1,1 0 0 0 0,1 1,1 0 0 0 1,2 h 1.4121094 c 0.9225091,0 1.2575996,0.034672 1.3671875,0.082031 0.167849,0.072535 0.3125753,0.1899495 0.4179687,0.3378906 0.069909,0.09813 0.1740899,0.4172272 0.3671875,1.3183594 L 9.4804688,26.679687 C 9.623363,27.346552 9.790765,27.7599 9.9921875,28.205078 7.7378816,28.687743 6,30.607305 6,33 c 0,2.749547 2.2504111,5 5,5 2.749559,0 5,-2.250441 5,-5 0,-1.145002 -0.455328,-2.15458 -1.109375,-3 h 10.21875 C 24.455328,30.84542 24,31.854998 24,33 c 0,2.749559 2.250441,5 5,5 2.749559,0 5,-2.250441 5,-5 0,-2.612666 -2.051966,-4.713071 -4.613281,-4.921875 A 1,1 0 0 0 29,28 H 13.587891 c -0.922499,0 -1.258352,-0.03499 -1.367188,-0.08203 -0.168528,-0.07282 -0.315454,-0.191231 -0.419922,-0.337891 -0.06756,-0.09484 -0.169712,-0.415004 -0.363281,-1.318359 L 10.953125,24 h 19.023437 c 0.8631,0 1.415702,0.0298 2.035157,-0.222656 0.479099,-0.195288 0.901764,-0.510562 1.224609,-0.919922 0.414399,-0.525384 0.538153,-1.06331 0.777344,-1.892578 l 2.769531,-9.601563 C 37.183508,9.9756012 37.503453,9.1609986 37.228516,8.1855469 37.025512,7.4652676 36.560404,6.8462722 35.923828,6.4511719 35.061435,5.9159009 34.189692,6 32.746094,6 H 7.0957031 L 6.5214844,3.3203125 C 6.3280024,2.4173864 6.236302,1.8354549 5.8261719,1.2597656 5.5081857,0.8134073 5.0742359,0.46301818 4.5722656,0.24609375 3.9224143,-0.03474637 3.3346185,0 2.4121094,0 Z M 7.5234375,8 H 32.746094 c 1.443598,0 2.01644,0.084222 2.123047,0.1503906 0.212222,0.1317192 0.365597,0.3368653 0.433593,0.578125 0.03446,0.1222672 -0.04151,0.6957741 -0.441406,2.0820314 l -2.769531,9.599609 c -0.239209,0.82933 -0.354781,1.118969 -0.425781,1.208985 -0.105554,0.133839 -0.248456,0.240729 -0.410157,0.30664 C 31.149515,21.969122 30.839662,22 29.976562,22 H 10.523438 Z M 11,30 c 1.668637,0 3,1.331363 3,3 0,1.668637 -1.331363,3 -3,3 -1.6686867,0 -3,-1.331351 -3,-3 0,-1.668649 1.3313133,-3 3,-3 z m 18,0 c 1.668637,0 3,1.331363 3,3 0,1.668637 -1.331363,3 -3,3 -1.668637,0 -3,-1.331363 -3,-3 0,-1.668637 1.331363,-3 3,-3 z"
     id="path2" />
  <defs
     id="defs9">
    <linearGradient
       id="paint0_linear_1503_9988"
       x1="18.6592"
       y1="1"
       x2="18.6592"
       y2="37"
       gradientUnits="userSpaceOnUse">
      <stop
         stop-color="#C2E23F"
         id="stop4" />
      <stop
         offset="1"
         stop-color="#C2E23F"
         stop-opacity="0.7"
         id="stop6" />
    </linearGradient>
  </defs>
</svg>
