<svg width="25" height="25" viewBox="0 0 25 25" fill="none" xmlns="http://www.w3.org/2000/svg">
<path fill-rule="evenodd" clip-rule="evenodd" d="M1.70711 0.292893C1.31658 -0.0976311 0.683418 -0.0976311 0.292893 0.292893C-0.0976311 0.683418 -0.0976311 1.31658 0.292893 1.70711L10.8995 12.3137L0.292893 22.9203C-0.0976311 23.3109 -0.0976311 23.944 0.292893 24.3345C0.683418 24.7251 1.31658 24.7251 1.70711 24.3345L12.3137 13.7279L22.9203 24.3345C23.3108 24.725 23.944 24.725 24.3345 24.3345C24.725 23.944 24.725 23.3108 24.3345 22.9203L13.7279 12.3137L24.3345 1.70713C24.725 1.31661 24.725 0.683442 24.3345 0.292918C23.944 -0.0976063 23.3108 -0.0976059 22.9203 0.292918L12.3137 10.8995L1.70711 0.292893Z" fill="#232C32"/>
</svg>
