<svg width="24" height="24" viewBox="0 0 24 24" fill="none" xmlns="http://www.w3.org/2000/svg">
<path d="M3 12.6H21V11.4H3V12.6ZM12 20.4C7.36081 20.4 3.6 16.6392 3.6 12H2.4C2.4 17.3019 6.69807 21.6 12 21.6V20.4ZM3.6 12C3.6 7.36081 7.36081 3.6 12 3.6V2.4C6.69807 2.4 2.4 6.69807 2.4 12H3.6ZM12 3.6C16.6392 3.6 20.4 7.36081 20.4 12H21.6C21.6 6.69807 17.3019 2.4 12 2.4V3.6ZM20.4 12C20.4 16.6392 16.6392 20.4 12 20.4V21.6C17.3019 21.6 21.6 17.3019 21.6 12H20.4ZM12 20.4C11.6429 20.4 11.2576 20.2397 10.8567 19.8581C10.4526 19.4736 10.0614 18.8888 9.71986 18.1203C9.03741 16.5848 8.6 14.4214 8.6 12H7.4C7.4 14.5491 7.85802 16.8858 8.62329 18.6076C9.00558 19.4678 9.47634 20.2011 10.0294 20.7274C10.5855 21.2566 11.2525 21.6 12 21.6V20.4ZM8.6 12C8.6 9.57857 9.03741 7.41523 9.71986 5.87972C10.0614 5.11121 10.4526 4.52643 10.8567 4.1419C11.2576 3.76032 11.6429 3.6 12 3.6V2.4C11.2525 2.4 10.5855 2.74336 10.0294 3.27263C9.47634 3.79895 9.00558 4.53219 8.62329 5.39236C7.85802 7.1142 7.4 9.45086 7.4 12H8.6ZM12 3.6C12.3571 3.6 12.7424 3.76032 13.1433 4.1419C13.5474 4.52643 13.9386 5.11121 14.2801 5.87972C14.9626 7.41523 15.4 9.57857 15.4 12H16.6C16.6 9.45086 16.142 7.1142 15.3767 5.39236C14.9944 4.53219 14.5237 3.79895 13.9706 3.27263C13.4145 2.74336 12.7475 2.4 12 2.4V3.6ZM15.4 12C15.4 14.4214 14.9626 16.5848 14.2801 18.1203C13.9386 18.8888 13.5474 19.4736 13.1433 19.8581C12.7424 20.2397 12.3571 20.4 12 20.4V21.6C12.7475 21.6 13.4145 21.2566 13.9706 20.7274C14.5237 20.2011 14.9944 19.4678 15.3767 18.6076C16.142 16.8858 16.6 14.5491 16.6 12H15.4Z" fill="url(#paint0_linear_1102_6658)"/>
<defs>
<linearGradient id="paint0_linear_1102_6658" x1="12" y1="3" x2="12" y2="21" gradientUnits="userSpaceOnUse">
<stop stop-color="#C2E23F"/>
<stop offset="1" stop-color="#C2E23F" stop-opacity="0.7"/>
</linearGradient>
</defs>
</svg>
