<?xml version="1.0" encoding="UTF-8" standalone="no"?>
<svg
   width="48"
   height="48"
   viewBox="0 0 48 48"
   fill="none"
   version="1.1"
   id="svg13"
   sodipodi:docname="lock.svg"
   inkscape:version="1.1.1 (3bf5ae0d25, 2021-09-20)"
   xmlns:inkscape="http://www.inkscape.org/namespaces/inkscape"
   xmlns:sodipodi="http://sodipodi.sourceforge.net/DTD/sodipodi-0.dtd"
   xmlns="http://www.w3.org/2000/svg"
   xmlns:svg="http://www.w3.org/2000/svg">
  <sodipodi:namedview
     id="namedview15"
     pagecolor="#ffffff"
     bordercolor="#666666"
     borderopacity="1.0"
     inkscape:pageshadow="2"
     inkscape:pageopacity="0.0"
     inkscape:pagecheckerboard="0"
     showgrid="false"
     inkscape:zoom="16.708333"
     inkscape:cx="24.029925"
     inkscape:cy="24.029925"
     inkscape:window-width="1920"
     inkscape:window-height="991"
     inkscape:window-x="-9"
     inkscape:window-y="-9"
     inkscape:window-maximized="1"
     inkscape:current-layer="svg13" />
  <path
     style="color:#000000;fill:url(#paint0_linear_1503_9993);stroke-linecap:round;stroke-linejoin:round;-inkscape-stroke:none"
     d="m 24,5 c -3.854137,0 -7,3.1458523 -7,7 v 5 H 14.400391 C 12.160193,17 10.900894,16.948492 9.7304688,17.544922 8.789648,18.024301 8.0240965,18.789987 7.5449219,19.730469 6.9486804,20.900605 7,22.160193 7,24.400391 v 11.199218 c 0,2.240198 -0.051318,3.499653 0.5449219,4.669922 0.4791952,0.940397 1.2447888,1.7062 2.1855469,2.185547 C 10.900811,43.051329 12.160163,43 14.400391,43 h 19.199218 c 2.240228,0 3.500008,0.05104 4.669922,-0.544922 0.940279,-0.479135 1.70593,-1.244323 2.185547,-2.185547 C 41.051325,39.09906 41,37.839688 41,35.599609 V 24.400391 c 0,-2.240079 0.05133,-3.499585 -0.544922,-4.669922 C 39.975482,18.78916 39.209872,18.024088 38.269531,17.544922 37.099534,16.94878 35.839807,17 33.599609,17 H 31 V 12 C 31,8.1458523 27.854137,5 24,5 Z m 0,2 c 2.773256,0 5,2.2267344 5,5 v 5 H 19 v -5 c 0,-2.7732656 2.226744,-5 5,-5 z m -9.599609,12 h 4.060546 11.076172 4.0625 c 2.240198,0 3.220318,0.05032 3.761719,0.326172 0.564858,0.287832 1.025097,0.74841 1.3125,1.3125 C 38.949379,21.179533 39,22.160074 39,24.400391 v 11.199218 c 0,2.240317 -0.05062,3.220792 -0.326172,3.761719 -0.287382,0.563974 -0.74758,1.024636 -1.3125,1.3125 C 36.819844,40.949664 35.839777,41 33.599609,41 H 14.400391 C 12.160223,41 11.177575,40.949376 10.636719,40.673828 10.072178,40.386176 9.6139759,39.926129 9.3261719,39.361328 9.0504726,38.820199 9,37.839807 9,35.599609 V 24.400391 c 0,-2.240198 0.050474,-3.220657 0.3261719,-3.761719 0.2878246,-0.564917 0.7460691,-1.02488 1.3105471,-1.3125 C 11.177492,19.050603 12.160193,19 14.400391,19 Z"
     id="path2" />
  <path
     id="circle4"
     style="fill:#c2e23f"
     d="m 26,30 a 2,2 0 0 1 -2,2 2,2 0 0 1 -2,-2 2,2 0 0 1 2,-2 2,2 0 0 1 2,2 z" />
  <defs
     id="defs11">
    <linearGradient
       id="paint0_linear_1503_9993"
       x1="24"
       y1="6"
       x2="24"
       y2="42"
       gradientUnits="userSpaceOnUse">
      <stop
         stop-color="#C2E23F"
         id="stop6" />
      <stop
         offset="1"
         stop-color="#C2E23F"
         stop-opacity="0.7"
         id="stop8" />
    </linearGradient>
  </defs>
</svg>
