<?xml version="1.0" encoding="UTF-8" standalone="no"?>
<svg
   width="20"
   height="16"
   viewBox="0 0 20 16"
   fill="none"
   version="1.1"
   id="svg4"
   sodipodi:docname="mail.svg"
   inkscape:version="1.1.1 (3bf5ae0d25, 2021-09-20)"
   xmlns:inkscape="http://www.inkscape.org/namespaces/inkscape"
   xmlns:sodipodi="http://sodipodi.sourceforge.net/DTD/sodipodi-0.dtd"
   xmlns="http://www.w3.org/2000/svg"
   xmlns:svg="http://www.w3.org/2000/svg">
  <defs
     id="defs8" />
  <sodipodi:namedview
     id="namedview6"
     pagecolor="#ffffff"
     bordercolor="#666666"
     borderopacity="1.0"
     inkscape:pageshadow="2"
     inkscape:pageopacity="0.0"
     inkscape:pagecheckerboard="0"
     showgrid="false"
     inkscape:zoom="50.125"
     inkscape:cx="10.004988"
     inkscape:cy="8.0099751"
     inkscape:window-width="1920"
     inkscape:window-height="991"
     inkscape:window-x="-9"
     inkscape:window-y="-9"
     inkscape:window-maximized="1"
     inkscape:current-layer="svg4" />
  <path
     style="color:#000000;fill:#ffffff;stroke-linecap:round;stroke-linejoin:round;-inkscape-stroke:none"
     d="M 4.2011719,0.5 C 3.081063,0.5 2.4504456,0.47525087 1.8652344,0.7734375 1.394785,1.0131313 1.0130112,1.3950331 0.7734375,1.8652344 0.47531955,2.4503108 0.5,3.0791199 0.5,4.1992187 v 7.6015623 c 0,1.120099 -0.0247051,1.748887 0.2734375,2.333985 0.2396012,0.470355 0.6215153,0.852113 1.0917969,1.091797 C 2.4504484,15.524764 3.081063,15.5 4.2011719,15.5 H 15.800781 c 1.120099,0 1.748997,0.02466 2.333985,-0.273437 0.470036,-0.239578 0.853971,-0.620996 1.09375,-1.091797 C 19.526729,13.549555 19.5,12.920821 19.5,11.800781 V 4.1992187 c 0,-1.1200393 0.0267,-1.7487949 -0.271484,-2.3339843 C 18.988765,1.394587 18.604969,1.0130252 18.134766,0.7734375 17.54978,0.47535213 16.92088,0.5 15.800781,0.5 Z m 0,1 H 15.800781 c 1.085167,0 1.546454,0.031314 1.822266,0.1582031 L 10.220703,7.375 2.3808594,1.6582031 C 2.6568979,1.5320936 3.1182663,1.5 4.2011719,1.5 Z M 1.6875,2.2949219 a 0.5,0.5 0 0 0 0.017578,0.109375 l 8.2285157,6 a 0.50005,0.50005 0 0 0 0.5996092,-0.00781 l 7.771484,-6 a 0.5,0.5 0 0 0 0.03516,-0.039063 C 18.470252,2.6313737 18.5,3.10235 18.5,4.1992187 v 7.6015623 c 0,1.120159 -0.02628,1.610471 -0.164063,1.88086 -0.143621,0.281998 -0.371733,0.510274 -0.654296,0.654297 C 17.411029,14.473837 16.92088,14.5 15.800781,14.5 H 4.2011719 C 3.081063,14.5 2.5887845,14.473735 2.3183594,14.335938 2.0359817,14.192021 1.807941,13.964085 1.6640625,13.681641 1.5262255,13.411139 1.5,12.92088 1.5,11.800781 V 4.1992187 c 0,-1.1200988 0.026201,-1.6102966 0.1640625,-1.8808593 0.00515,-0.010117 0.018065,-0.013458 0.023437,-0.023437 z"
     id="path2" />
</svg>
