<?xml version="1.0" encoding="UTF-8" standalone="no"?>
<svg
   width="24"
   height="24"
   viewBox="0 0 24 24"
   fill="none"
   version="1.1"
   id="svg11"
   sodipodi:docname="phone.svg"
   inkscape:version="1.1.1 (3bf5ae0d25, 2021-09-20)"
   xmlns:inkscape="http://www.inkscape.org/namespaces/inkscape"
   xmlns:sodipodi="http://sodipodi.sourceforge.net/DTD/sodipodi-0.dtd"
   xmlns="http://www.w3.org/2000/svg"
   xmlns:svg="http://www.w3.org/2000/svg">
  <sodipodi:namedview
     id="namedview13"
     pagecolor="#ffffff"
     bordercolor="#666666"
     borderopacity="1.0"
     inkscape:pageshadow="2"
     inkscape:pageopacity="0.0"
     inkscape:pagecheckerboard="0"
     showgrid="false"
     inkscape:zoom="33.416667"
     inkscape:cx="12.014963"
     inkscape:cy="12.014963"
     inkscape:window-width="1920"
     inkscape:window-height="991"
     inkscape:window-x="-9"
     inkscape:window-y="-9"
     inkscape:window-maximized="1"
     inkscape:current-layer="svg11" />
  <path
     style="color:#000000;fill:url(#paint0_linear_1102_9173);stroke-linecap:round;stroke-linejoin:round;-inkscape-stroke:none"
     d="m 4.8945312,2.4003906 c -1.3707152,0 -2.4941406,1.1234407 -2.4941406,2.4941406 0,9.2189838 7.4861268,16.7050778 16.7050784,16.7050778 1.370634,0 2.49414,-1.123475 2.49414,-2.49414 v -2.751953 c 0,-1.06138 -0.649463,-2.019838 -1.634765,-2.414063 l -2.634766,-1.052734 c -0.885524,-0.35421 -1.898075,-0.194703 -2.630859,0.416015 l -0.679688,0.566407 c -0.560432,0.466991 -1.370879,0.431854 -1.886718,-0.08399 L 10.214844,11.867188 C 9.6991843,11.351549 9.6638895,10.54081 10.130859,9.9804688 L 10.697266,9.3007813 C 11.307987,8.5679421 11.469432,7.5555076 11.115234,6.6699219 L 10.060547,4.0351562 C 9.666374,3.0497306 8.7078218,2.4003906 7.6464844,2.4003906 Z m 0,1.1992188 h 2.7519532 c 0.5742809,0 1.0855416,0.3476465 1.2988281,0.8808593 L 10,7.1152344 C 10.191402,7.5937873 10.105269,8.1354102 9.7753906,8.53125 L 9.2089844,9.2128906 C 8.3515355,10.241788 8.4199884,11.767683 9.3671875,12.714844 l 1.9179685,1.917969 c 0.94716,0.947159 2.472987,1.01561 3.501953,0.158203 L 15.46875,14.224609 C 15.864565,13.894729 16.406291,13.80861 16.884766,14 l 2.634765,1.054688 c 0.533296,0.213374 0.88086,0.724609 0.88086,1.298828 v 2.751953 c 0,0.722333 -0.572758,1.294922 -1.294922,1.294922 -8.570431,0 -15.5058596,-6.935422 -15.5058596,-15.5058598 0,-0.7221779 0.5727592,-1.2949218 1.2949218,-1.2949218 z"
     id="path2" />
  <defs
     id="defs9">
    <linearGradient
       id="paint0_linear_1102_9173"
       x1="12"
       y1="3"
       x2="12"
       y2="21"
       gradientUnits="userSpaceOnUse">
      <stop
         stop-color="#C2E23F"
         id="stop4" />
      <stop
         offset="1"
         stop-color="#C2E23F"
         stop-opacity="0.7"
         id="stop6" />
    </linearGradient>
  </defs>
</svg>
