<svg width="48" height="48" viewBox="0 0 48 48" fill="none" xmlns="http://www.w3.org/2000/svg">
<path fill-rule="evenodd" clip-rule="evenodd" d="M48 24C48 37.2548 37.2548 48 24 48C10.7452 48 0 37.2548 0 24C0 10.7452 10.7452 0 24 0C37.2548 0 48 10.7452 48 24ZM24.8603 17.7179C22.5259 18.6888 17.8605 20.6984 10.864 23.7466C9.72791 24.1984 9.13276 24.6404 9.07858 25.0726C8.98702 25.803 9.90167 26.0906 11.1472 26.4822C11.3166 26.5355 11.4922 26.5907 11.6721 26.6492C12.8975 27.0475 14.5459 27.5135 15.4028 27.5321C16.1801 27.5489 17.0477 27.2284 18.0055 26.5707C24.5426 22.158 27.917 19.9276 28.1289 19.8795C28.2783 19.8456 28.4854 19.803 28.6258 19.9277C28.7661 20.0524 28.7523 20.2886 28.7374 20.352C28.6468 20.7383 25.0565 24.0762 23.1985 25.8036C22.6193 26.3421 22.2084 26.724 22.1244 26.8113C21.9363 27.0067 21.7445 27.1915 21.5602 27.3692C20.4218 28.4667 19.5681 29.2896 21.6075 30.6336C22.5875 31.2794 23.3718 31.8135 24.1542 32.3463C25.0086 32.9282 25.8608 33.5085 26.9635 34.2313C27.2444 34.4155 27.5127 34.6068 27.774 34.7931C28.7684 35.5019 29.6617 36.1388 30.7654 36.0373C31.4067 35.9782 32.0692 35.3752 32.4056 33.5767C33.2007 29.3263 34.7635 20.1169 35.1247 16.3219C35.1563 15.9895 35.1165 15.5639 35.0845 15.3771C35.0526 15.1904 34.9858 14.9242 34.743 14.7272C34.4554 14.4939 34.0115 14.4447 33.813 14.4482C32.9103 14.4641 31.5254 14.9456 24.8603 17.7179Z" fill="white"/>
</svg>
