<?xml version="1.0" encoding="UTF-8" standalone="no"?>
<svg
   width="38"
   height="38"
   viewBox="0 0 38 38"
   fill="none"
   version="1.1"
   id="svg11"
   sodipodi:docname="Vector (2).svg"
   inkscape:version="1.1.1 (3bf5ae0d25, 2021-09-20)"
   xmlns:inkscape="http://www.inkscape.org/namespaces/inkscape"
   xmlns:sodipodi="http://sodipodi.sourceforge.net/DTD/sodipodi-0.dtd"
   xmlns="http://www.w3.org/2000/svg"
   xmlns:svg="http://www.w3.org/2000/svg">
  <sodipodi:namedview
     id="namedview13"
     pagecolor="#ffffff"
     bordercolor="#666666"
     borderopacity="1.0"
     inkscape:pageshadow="2"
     inkscape:pageopacity="0.0"
     inkscape:pagecheckerboard="0"
     showgrid="false"
     inkscape:zoom="21.105263"
     inkscape:cx="18.976309"
     inkscape:cy="19.023691"
     inkscape:window-width="1920"
     inkscape:window-height="991"
     inkscape:window-x="-9"
     inkscape:window-y="-9"
     inkscape:window-maximized="1"
     inkscape:current-layer="svg11" />
  <path
     style="color:#000000;fill:url(#paint0_linear_1503_9977);stroke-linecap:round;stroke-linejoin:round;-inkscape-stroke:none"
     d="M 19,0.00390625 C 17.880784,0.00390543 16.761524,0.38747578 15.859375,1.15625 L 13.417969,3.2382813 C 12.963187,3.6258436 12.396926,3.8586798 11.800781,3.90625 L 8.6035156,4.1621094 C 6.2407263,4.3506656 4.3506838,6.2405102 4.1621094,8.6035156 L 3.90625,11.800781 c -0.047632,0.596917 -0.2804385,1.162452 -0.6679687,1.617188 L 1.15625,15.859375 c -1.53746521,1.804202 -1.53737943,4.477286 0,6.28125 l 2.0800781,2.441406 c 0.3882066,0.455538 0.6243614,1.021826 0.671875,1.617188 l 0.2558594,3.197265 c 0.1884931,2.362069 2.0746056,4.252904 4.4375,4.441407 l 3.1992185,0.253906 c 0.5959,0.04756 1.161838,0.281927 1.617188,0.669922 l 2.441406,2.082031 c 1.804402,1.537707 4.47697,1.53771 6.28125,0 l 2.441406,-2.082031 c 0.455254,-0.387913 1.021124,-0.620399 1.617188,-0.667969 l 3.199218,-0.255859 c 2.362779,-0.188626 4.248937,-2.079272 4.4375,-4.441407 l 0.25586,-3.197265 c 0.04751,-0.595346 0.283643,-1.161647 0.671875,-1.617188 l 2.080078,-2.441406 c 1.537294,-1.803918 1.537528,-4.477037 0,-6.28125 l -2.082031,-2.441406 c -0.38766,-0.454956 -0.62206,-1.020394 -0.669922,-1.615235 v -0.002 L 33.837891,8.6035156 C 33.649244,6.2403898 31.759237,4.3506596 29.396484,4.1621094 L 26.199219,3.90625 C 25.603123,3.8586837 25.037393,3.6263453 24.582031,3.2382813 L 22.140625,1.15625 C 21.238516,0.38745677 20.119216,0.00390707 19,0.00390625 Z m 0,1.99218745 c 0.654907,-8e-7 1.31026,0.2269911 1.84375,0.6816407 l 2.441406,2.0820312 c 0.775037,0.6604949 1.738404,1.0595915 2.753906,1.140625 L 29.238281,6.15625 c 1.397844,0.1115494 2.495869,1.2080783 2.607422,2.6054688 h -0.002 l 0.253906,3.1972652 a 1.0001,1.0001 0 0 0 0,0.002 c 0.08107,1.015882 0.482239,1.978933 1.142578,2.753906 l 2.082032,2.443359 c 0.907998,1.066937 0.907326,2.618565 -0.002,3.685547 l -2.080078,2.441406 c -0.660367,0.774858 -1.059537,1.737853 -1.140625,2.753906 l -0.255859,3.199219 c -0.111636,1.398461 -1.207851,2.493894 -2.605469,2.605469 l -3.199219,0.255859 c -1.015335,0.08103 -1.978761,0.480139 -2.753906,1.140625 l -2.441406,2.082032 c -1.066917,0.909287 -2.620505,0.90929 -3.6875,0 L 14.714844,33.240234 C 13.939794,32.57983 12.976437,32.180653 11.960938,32.099609 L 8.7617188,31.84375 C 7.3640969,31.732253 6.2678366,30.636609 6.15625,29.238281 L 5.9003906,26.039062 C 5.8193044,25.023026 5.420098,24.060017 4.7597656,23.285156 L 2.6796875,20.84375 a 1.0001,1.0001 0 0 0 0,-0.002 C 1.7701674,19.774564 1.768316,18.223445 2.6777344,17.15625 l 2.0820312,-2.441406 c 0.6610287,-0.775664 1.059657,-1.739225 1.140625,-2.753906 L 6.15625,8.7617188 C 6.2677753,7.3642079 7.365925,6.2677935 8.7636719,6.15625 L 11.958984,5.9003906 c 1.015454,-0.08103 1.980243,-0.4796484 2.75586,-1.140625 L 17.15625,2.6777344 C 17.689799,2.2230658 18.345093,1.9960946 19,1.9960937 Z M 24.292969,14.292969 17,21.585937 13.707031,18.292969 a 1,1 0 0 0 -1.414062,0 1,1 0 0 0 0,1.414062 l 4,4 a 1.0001,1.0001 0 0 0 1.414062,0 l 8,-8 a 1,1 0 0 0 0,-1.414062 1,1 0 0 0 -1.414062,0 z"
     id="path2" />
  <defs
     id="defs9">
    <linearGradient
       id="paint0_linear_1503_9977"
       x1="18.9999"
       y1="0.999878"
       x2="18.9999"
       y2="37.0001"
       gradientUnits="userSpaceOnUse">
      <stop
         stop-color="#C2E23F"
         id="stop4" />
      <stop
         offset="1"
         stop-color="#C2E23F"
         stop-opacity="0.7"
         id="stop6" />
    </linearGradient>
  </defs>
</svg>
