<svg width="46" height="46" viewBox="0 0 46 46" fill="none" xmlns="http://www.w3.org/2000/svg">
<path fill-rule="evenodd" clip-rule="evenodd" d="M1.14875 45.6163C0.997457 45.6163 0.850749 45.5567 0.741864 45.4467C0.598594 45.3011 0.542432 45.0891 0.596302 44.8931L3.62102 33.8487C1.7459 30.5179 0.756764 26.7356 0.759056 22.896C0.763641 10.584 10.7822 0.568817 23.0931 0.568817C29.0646 0.571109 34.675 2.89667 38.8918 7.11682C43.1085 11.3381 45.4294 16.9474 45.4272 22.912C45.4226 35.2229 35.4029 45.2392 23.0931 45.2392C19.438 45.2381 15.8219 44.336 12.6126 42.6294L1.29431 45.5968C1.24617 45.6106 1.19804 45.6163 1.14875 45.6163ZM17.6528 13.8013C17.2459 12.8958 16.8173 12.8775 16.4287 12.8614C16.1112 12.8477 15.7491 12.8488 15.3869 12.8488C15.0247 12.8488 14.4356 12.9852 13.937 13.5296C13.4384 14.0741 12.0332 15.3887 12.0332 18.0638C12.0332 20.739 13.9817 23.3247 14.2533 23.6869C14.525 24.0491 18.015 29.7145 23.5418 31.8945C28.1344 33.7055 29.0697 33.3456 30.0669 33.255C31.064 33.1645 33.2841 31.9404 33.7369 30.6704C34.1896 29.4005 34.1896 28.3128 34.0543 28.0858C33.918 27.8589 33.5558 27.7237 33.0125 27.4509C32.4692 27.1781 29.7952 25.8634 29.2966 25.6823C28.7981 25.5013 28.4359 25.4107 28.0725 25.9551C27.7104 26.4984 26.6685 27.7237 26.351 28.0858C26.0335 28.4492 25.716 28.495 25.1728 28.2222C24.6295 27.9495 22.8782 27.3764 20.8002 25.5242C19.1841 24.0835 18.0929 22.3035 17.7755 21.759C17.458 21.2158 17.7411 20.9212 18.0139 20.6496C18.258 20.4054 18.5571 20.0146 18.8299 19.6971C19.1016 19.3796 19.1921 19.1527 19.3732 18.7905C19.5543 18.4272 19.4638 18.1097 19.3274 17.838C19.1933 17.5653 18.1365 14.8764 17.6528 13.8013Z" fill="white"/>
</svg>
