<svg width="56" height="37" viewBox="0 0 56 37" fill="none" xmlns="http://www.w3.org/2000/svg">
<rect width="56" height="37" fill="white"/>
<path d="M0 21.1428H56V26.4273H0V21.1428Z" fill="#55B56A"/>
<path d="M0 31.7156H56V37H0V31.7156Z" fill="#55B56A"/>
<path d="M24.8267 10.5715H55.9992V15.8565H24.8267V10.5715Z" fill="#55B56A"/>
<path d="M24.8267 0H55.9992V5.28596H24.8267V0Z" fill="#55B56A"/>
<path d="M11.7224 9.2415L11.725 9.14714C11.7206 9.1206 11.7167 9.08374 11.7124 9.04688C11.718 9.16188 11.7224 9.2415 11.7224 9.2415Z" fill="#232C32"/>
<path d="M12.4429 8.93956L12.446 8.48444L12.3926 7.46362L12.4429 8.93956Z" fill="#232C32"/>
<path d="M13.2108 8.83889L13.2191 8.49533L13.1514 7.33887L13.2108 8.83889Z" fill="#232C32"/>
<path d="M12.8732 5.35235C12.8445 5.33416 12.8146 5.32925 12.7847 5.33121C12.8155 5.33121 12.8445 5.33613 12.8732 5.35235Z" fill="#232C32"/>
<path d="M0 0V15.8559H24.8274V0H0ZM12.1216 1.92857L12.4201 0.83059L12.7195 1.93544L13.7514 1.91283L12.9165 2.57782L13.2424 3.66695L12.4201 2.98084L11.5983 3.66695L11.938 2.57782L11.0958 1.91283L12.1216 1.92857ZM5.78884 11.3646L4.96656 10.6721L4.14558 11.3646L4.48534 10.2676L3.63572 9.61245L4.66152 9.62818L4.96701 8.52921L5.26641 9.63555L6.29959 9.61294L5.45648 10.276L5.78884 11.3646ZM6.98345 7.90944L6.1616 7.21596L5.33975 7.90944L5.67951 6.81933L4.8364 6.15631L5.86264 6.17106L6.16118 5.07307L6.46058 6.17843L7.49333 6.15582L6.65022 6.81883L6.98345 7.90944ZM9.57394 4.85188L8.75209 4.15595L7.92893 4.85188L8.2687 3.75292L7.42645 3.09777L8.44618 3.1135L8.75209 2.0165L9.0502 3.12135L10.0834 3.09825L9.24027 3.76126L9.57394 4.85188ZM16.1635 9.58688C15.7421 10.1585 15.6285 10.7522 15.5365 11.2295C15.4701 11.5755 15.4119 11.8748 15.2596 12.0871C15.0704 12.5506 14.7359 12.9256 14.4408 13.2559C14.2208 13.5026 14.0307 13.7144 13.9474 13.9145C13.8711 14.0998 13.8324 14.7013 13.8316 14.7077L13.8298 14.7372L11.7309 14.7264L11.4844 13.7174C11.4718 13.712 10.9832 13.1876 10.8635 11.6016C10.719 9.69855 10.9238 9.54467 10.9481 9.53335C10.9563 9.05562 10.9967 8.61378 11.037 8.16707C11.0657 7.8535 11.0948 7.53846 11.1186 7.19688C11.1598 6.59382 11.622 6.51716 11.645 6.99537C11.6589 7.46376 11.7036 8.37159 11.7296 8.87676L11.7552 7.78467L11.7613 6.35938C11.7656 5.94015 11.9479 5.65754 12.1141 5.65754C12.1783 5.65754 12.295 5.69834 12.367 5.96915L12.4469 8.26977L12.4538 7.34136L12.4391 5.88662C12.4529 5.49835 12.6239 5.29537 12.7858 5.29537C12.9238 5.29537 13.0947 5.45461 13.1216 5.90333L13.2206 8.38287L13.2405 7.51196L13.2422 6.29799C13.2856 5.60206 13.8233 5.62073 13.8489 6.32552C13.8758 7.09715 13.9834 8.0792 14.0407 8.60702L14.0754 8.93238C14.436 10.1527 14.5627 10.8001 14.5635 10.8065C14.5679 10.8517 14.5792 10.9215 14.6147 10.9215C14.7063 10.9215 14.8972 10.6109 14.9493 10.2437C15.1133 9.84267 15.3672 9.51534 15.7065 9.26075C15.7221 9.25436 15.884 9.21209 16.028 9.21209C16.1539 9.21209 16.2276 9.24306 16.2545 9.30793C16.2819 9.37477 16.2524 9.4657 16.1634 9.5871L16.1635 9.58688ZM16.0758 4.15597L15.2614 4.85191L15.5942 3.75294L14.7511 3.0978L15.7769 3.11352L16.0754 2.01652L16.3822 3.12138L17.408 3.09828L16.5718 3.76129L16.8977 4.85288L16.0758 4.15597ZM17.3859 6.15626L18.4112 6.17101L18.7106 5.07302L19.0092 6.17838L20.0423 6.15577L19.2057 6.81878L19.5325 7.9089L18.7106 7.21542L17.8884 7.9089L18.2281 6.81878L17.3859 6.15626ZM20.6924 11.3646L19.8714 10.679L19.0483 11.3646L19.3885 10.2755L18.5449 9.61246L19.5646 9.62819L19.8714 8.52922L20.1695 9.63556L21.2027 9.61295L20.3591 10.276L20.6924 11.3646Z" fill="#DA1C4B"/>
</svg>
