<svg width="56" height="37" viewBox="0 0 56 37" fill="none" xmlns="http://www.w3.org/2000/svg">
<g clip-path="url(#clip0_902_8183)">
<mask id="mask0_902_8183" style="mask-type:alpha" maskUnits="userSpaceOnUse" x="0" y="0" width="56" height="37">
<path d="M50.6667 0H5.33333C2.38781 0 0 2.20873 0 4.93333V32.0667C0 34.7913 2.38781 37 5.33333 37H50.6667C53.6122 37 56 34.7913 56 32.0667V4.93333C56 2.20873 53.6122 0 50.6667 0Z" fill="white"/>
</mask>
<g mask="url(#mask0_902_8183)">
<path d="M50.6667 0H5.33333C2.38781 0 0 2.20873 0 4.93333V32.0667C0 34.7913 2.38781 37 5.33333 37H50.6667C53.6122 37 56 34.7913 56 32.0667V4.93333C56 2.20873 53.6122 0 50.6667 0Z" fill="#EB0624"/>
<path fill-rule="evenodd" clip-rule="evenodd" d="M27.2162 23.3963C27.4748 23.4209 27.7362 23.4333 28.0002 23.4333C28.2668 23.4333 28.5255 23.4209 28.7842 23.3963L28.0002 21.5833L27.2162 23.3963ZM23.6002 22.0519C22.2055 21.0307 21.3335 19.5409 21.3335 17.8833C21.3335 15.9272 22.5495 14.2079 24.3842 13.2213L26.6668 18.4999L23.6002 22.0519ZM31.6162 13.2213C33.4508 14.2079 34.6668 15.9272 34.6668 17.8833C34.6668 19.5433 33.7922 21.0332 32.4002 22.0519L29.3335 18.4999L31.6162 13.2213ZM31.3495 13.0831C30.3628 12.6046 29.2215 12.3333 28.0002 12.3333C26.7788 12.3333 25.6348 12.6046 24.6508 13.0831L28.0002 16.9558L31.3495 13.0831V13.0831Z" fill="#FFF100"/>
<path fill-rule="evenodd" clip-rule="evenodd" d="M28 29.5999C34.6267 29.5999 40 24.6296 40 18.4999C40 12.3702 34.6267 7.3999 28 7.3999C21.3733 7.3999 16 12.3702 16 18.4999C16 24.6296 21.3733 29.5999 28 29.5999ZM28 27.1332C33.1547 27.1332 37.3333 23.268 37.3333 18.4999C37.3333 13.7318 33.1547 9.86657 28 9.86657C22.8453 9.86657 18.6667 13.7318 18.6667 18.4999C18.6667 23.268 22.8453 27.1332 28 27.1332Z" fill="#FFF100"/>
</g>
</g>
<defs>
<clipPath id="clip0_902_8183">
<rect width="56" height="37" fill="white"/>
</clipPath>
</defs>
</svg>
