<svg width="32" height="32" viewBox="0 0 32 32" fill="none" xmlns="http://www.w3.org/2000/svg">
<path d="M28.525 11.3845L27.9756 11.0789C27.8903 11.0315 27.8477 11.0076 27.8065 10.983C27.3968 10.7376 27.0518 10.3979 26.7999 9.9923C26.7745 9.9515 26.7496 9.9093 26.7008 9.8247C26.6519 9.74 26.6273 9.6975 26.6045 9.6551C26.3785 9.2331 26.2569 8.7632 26.2496 8.2846C26.2489 8.2414 26.2497 8.1972 26.251 8.1178L26.2515 8.0894L26.262 7.46385C26.2794 6.43481 26.2879 5.92036 26.1439 5.45903C26.0164 5.05091 25.8035 4.67465 25.5188 4.35564C25.1976 3.99566 24.7522 3.73901 23.8636 3.22692L23.8589 3.22425L23.1182 2.79741C22.2289 2.28497 21.7842 2.02885 21.3121 1.93114C20.8944 1.8447 20.4631 1.84815 20.0469 1.94158C19.5777 2.04691 19.1389 2.30964 18.2628 2.83423L18.2561 2.83824L17.7254 3.15603C17.6415 3.20628 17.599 3.23135 17.5569 3.25473C17.1395 3.48681 16.6728 3.61595 16.1954 3.63127C16.1473 3.63282 16.0984 3.63282 16.0005 3.63282H15.9993C15.9021 3.63282 15.8537 3.63282 15.8057 3.63127C15.3273 3.61589 14.8591 3.48617 14.441 3.25313C14.4004 3.23051 14.3601 3.20629 14.2821 3.15943L14.2729 3.15396L13.7388 2.8333L13.7348 2.83088C12.8534 2.30176 12.4123 2.03696 11.9407 1.93114C11.5229 1.83739 11.0894 1.83424 10.6702 1.9218C10.1964 2.02078 9.7503 2.27964 8.8585 2.79723L8.127 3.22178C7.23985 3.73668 6.79691 3.99401 6.47686 4.35424C6.19372 4.67293 5.98164 5.04832 5.85497 5.45537C5.71178 5.91547 5.71986 6.42836 5.73711 7.45397L5.74783 8.091C5.74945 8.1874 5.75053 8.2357 5.74983 8.2831C5.74273 8.7627 5.6206 9.2336 5.39393 9.6564C5.37151 9.6982 5.34736 9.74 5.29912 9.8235C5.25085 9.907 5.22674 9.9487 5.20171 9.9891C4.94863 10.3968 4.60141 10.7381 4.1892 10.9839C4.14843 11.0082 4.10657 11.0316 4.02214 11.0784L3.47979 11.3789C2.57758 11.8789 2.12634 12.1289 1.79815 12.485C1.50779 12.8001 1.28793 13.1737 1.15404 13.5807C1.00288 14.0401 1.00405 14.5552 1.00639 15.5842L1.0064 15.5882L1.00831 16.4314L1.00833 16.4406C1.01065 17.4592 1.01181 17.9699 1.16305 18.4255C1.29725 18.8298 1.51601 19.2007 1.80474 19.5138C2.13075 19.8674 2.57818 20.1163 3.47174 20.6134L3.47466 20.615L4.01217 20.9141L4.01943 20.9181C4.10611 20.9663 4.15078 20.9912 4.19371 21.017C4.60218 21.263 4.94565 21.6028 5.19658 22.0083C5.22369 22.0521 5.24972 22.0976 5.30176 22.1885C5.35315 22.2783 5.37915 22.3232 5.40292 22.3682C5.62293 22.7847 5.74182 23.2471 5.74985 23.7181C5.75072 23.769 5.74991 23.8209 5.74816 23.9243L5.73784 24.5356L5.73781 24.5378C5.72046 25.5655 5.71178 26.0795 5.8557 26.5406C5.98312 26.9487 6.19658 27.3249 6.48125 27.6439C6.80304 28.0045 7.24841 28.2616 8.1402 28.7755L8.8807 29.2022C9.77 29.7147 10.2153 29.9708 10.6874 30.0685C11.1051 30.155 11.5363 30.1514 11.9524 30.058C12.4219 29.9526 12.8608 29.6898 13.7376 29.1648L13.7432 29.1614L14.274 28.8436C14.3579 28.7933 14.4002 28.7683 14.4422 28.7449C14.8596 28.5128 15.3262 28.3837 15.8035 28.3684C15.8516 28.3668 15.9006 28.3668 15.9984 28.3668C16.0965 28.3668 16.1462 28.3668 16.1944 28.3684C16.6728 28.3837 17.1403 28.5133 17.5584 28.7464C17.6005 28.7699 17.6428 28.7951 17.7269 28.8456L18.261 29.1663L18.262 29.1669C19.1453 29.6972 19.587 29.9624 20.0592 30.0683C20.4771 30.1621 20.9097 30.1654 21.3289 30.0779C21.8028 29.9789 22.2491 29.72 23.1409 29.2024L23.8724 28.7779C24.7596 28.263 25.2026 28.0056 25.5227 27.6454C25.8058 27.3267 26.0179 26.9513 26.1446 26.5443C26.2878 26.0842 26.2795 25.5713 26.2622 24.5457L26.2515 23.9087C26.2499 23.8123 26.2489 23.7641 26.2496 23.7167C26.2567 23.237 26.3786 22.766 26.6053 22.3433C26.6277 22.3015 26.6519 22.2597 26.7001 22.1762C26.7483 22.0927 26.7729 22.0508 26.798 22.0105C27.051 21.6027 27.3979 21.2617 27.8101 21.0159C27.8496 20.9923 27.8907 20.9696 27.9698 20.9257L27.9778 20.9213L28.5202 20.6207C29.4225 20.1207 29.8734 19.8707 30.2016 19.5146C30.4919 19.1995 30.7114 18.826 30.8453 18.419C30.9966 17.959 30.996 17.4431 30.9937 16.4115L30.9918 15.5683C30.9894 14.5435 30.9882 14.031 30.8365 13.5741C30.7023 13.1698 30.4833 12.7989 30.1946 12.4857C29.8682 12.1318 29.4205 11.8827 28.525 11.3845Z" stroke="#232C32" stroke-width="2" stroke-linecap="round" stroke-linejoin="round"/>
<path d="M10 16.0075C10 19.3212 12.6863 22.0075 16 22.0075C19.3137 22.0075 22 19.3212 22 16.0075C22 12.6938 19.3144 10 16.0007 10C12.687 10 10 12.6938 10 16.0075Z" stroke="#232C32" stroke-width="2" stroke-linecap="round" stroke-linejoin="round"/>
</svg>
