<?xml version="1.0" encoding="UTF-8" standalone="no"?>
<svg
   width="36"
   height="36"
   viewBox="0 0 36 36"
   fill="none"
   version="1.1"
   id="svg4"
   sodipodi:docname="swatches.svg"
   inkscape:version="1.1.1 (3bf5ae0d25, 2021-09-20)"
   xmlns:inkscape="http://www.inkscape.org/namespaces/inkscape"
   xmlns:sodipodi="http://sodipodi.sourceforge.net/DTD/sodipodi-0.dtd"
   xmlns="http://www.w3.org/2000/svg"
   xmlns:svg="http://www.w3.org/2000/svg">
  <defs
     id="defs8" />
  <sodipodi:namedview
     id="namedview6"
     pagecolor="#ffffff"
     bordercolor="#666666"
     borderopacity="1.0"
     inkscape:pageshadow="2"
     inkscape:pageopacity="0.0"
     inkscape:pagecheckerboard="0"
     showgrid="false"
     inkscape:zoom="22.888889"
     inkscape:cx="17.978155"
     inkscape:cy="17.978155"
     inkscape:window-width="1920"
     inkscape:window-height="1009"
     inkscape:window-x="-8"
     inkscape:window-y="-8"
     inkscape:window-maximized="1"
     inkscape:current-layer="svg4" />
  <path
     style="color:#000000;fill:#232c32;stroke-linecap:round;stroke-linejoin:round;-inkscape-stroke:none"
     d="M 11.335938,3.1210938 C 10.390199,2.8676689 9.3919773,3.4432289 9.1386719,4.3886719 L 3.7148438,24.630859 c -0.8903325,3.32279 1.0972265,6.763919 4.4199218,7.654297 0.4330678,0.116033 0.8578661,0.05839 1.2890625,0.08008 A 1,1 0 0 0 9.75,32.5 H 30.705078 C 31.684208,32.5 32.5,31.68436 32.5,30.705078 v -8.910156 a 1,1 0 0 0 -0.208984,-0.208985 c 0.02994,-0.307276 0.100859,-0.618255 -0.03711,-0.914062 L 28.486328,12.595703 C 28.072494,11.708437 26.990722,11.314932 26.103516,11.728516 L 19.257812,14.919922 21.212891,7.625 C 21.466286,6.6791995 20.889011,5.6811584 19.943359,5.4277344 Z m -0.31836,1.9843749 8.208984,2.2011719 -5.36914,20.0410154 c -0.610526,2.278651 -2.926391,3.616395 -5.2050782,3.00586 -2.2786992,-0.61062 -3.6164055,-2.926474 -3.0058594,-5.205079 z m 15.744141,8.5234373 3.591797,7.703125 -14.732422,6.871094 c 0.04112,-0.122493 0.134089,-0.211444 0.167969,-0.337891 L 18.582031,17.441406 Z M 30.5,23.470703 V 30.5 H 15.425781 Z M 9.75,25.400391 a 1.0001,1.0001 0 0 0 -0.6855469,0.685546 l 0.71875,-0.677734 a 1.0001,1.0001 0 0 0 -0.029297,-0.0078 z M 8.7636719,26.386719 A 1.0001,1.0001 0 0 0 8.75,26.400391 v 0.002 a 1.0001,1.0001 0 0 0 0.9667969,1 h 0.00195 a 1.0001,1.0001 0 0 0 0.027344,-0.0098 z m 1.9824221,0.01758 -0.980469,0.980469 a 1.0001,1.0001 0 0 0 0.986328,-0.958985 v -0.002 a 1.0001,1.0001 0 0 0 -0.0059,-0.01953 z m -0.9941409,0.99414 -0.00195,0.002 h 0.00391 z"
     id="path2" />
</svg>
