<svg width="257" height="192" viewBox="0 0 257 192" fill="none" xmlns="http://www.w3.org/2000/svg">
<path d="M2.5 191V109.452C2.5 92.5715 16.1841 78.8873 33.0644 78.8873V78.8873C33.4089 78.8873 33.6881 78.6081 33.6881 78.2636V47C33.6881 44.7909 35.479 43 37.6881 43H92.0644C94.2735 43 96.0644 44.7909 96.0644 47V78.4841C96.0644 78.7068 96.2449 78.8873 96.4676 78.8873V78.8873C114.159 78.8873 128.5 93.2287 128.5 110.92V191" stroke="white"/>
<path d="M2.5 109.452V191H128.5V110.92C128.5 93.2287 114.159 78.8873 96.4676 78.8873C96.2449 78.8873 96.0644 78.7068 96.0644 78.4841V47C96.0644 44.7909 94.2735 43 92.0644 43H37.6881C35.479 43 33.6881 44.7909 33.6881 47V78.2636C33.6881 78.6081 33.4089 78.8873 33.0644 78.8873C16.1841 78.8873 2.5 92.5715 2.5 109.452Z" fill="url(#paint0_linear_1904_14226)"/>
<rect x="96.2422" y="45.478" width="4" height="4" fill="white"/>
<rect x="29.6992" y="45.4775" width="4" height="4" fill="white"/>
<rect x="29.6992" y="58.5151" width="4" height="4" fill="white"/>
<rect x="96.2422" y="58.5151" width="4" height="4" fill="white"/>
<path d="M20.5 49.2486V10.9946C20.5 5.47179 24.9772 0.994629 30.5 0.994629H100.5C106.023 0.994629 110.5 5.47178 110.5 10.9946V49.2486" stroke="white"/>
<rect x="34.5" y="10" width="62" height="4" fill="#BCACAF"/>
<rect x="34.5" y="18" width="62" height="4" fill="#E1E4EB"/>
<rect x="106.5" y="21.0195" width="4" height="4.10672" fill="white"/>
<rect x="20.5" y="21.0186" width="4" height="4.10672" fill="white"/>
<rect x="106.5" y="34.9517" width="4" height="4.10672" fill="white"/>
<rect x="20.5" y="34.9507" width="4" height="4.10672" fill="white"/>
<circle cx="96" cy="13" r="3" fill="#C2E23F"/>
<path d="M99 13L131 13" stroke="white"/>
<path d="M143.884 19.144C142.612 19.144 141.56 18.724 140.728 17.884C139.896 17.044 139.48 16.016 139.48 14.8C139.48 13.584 139.896 12.556 140.728 11.716C141.56 10.876 142.612 10.456 143.884 10.456C144.66 10.456 145.372 10.644 146.02 11.02C146.668 11.388 147.168 11.888 147.52 12.52L146.776 12.952C146.512 12.44 146.12 12.032 145.6 11.728C145.08 11.424 144.508 11.272 143.884 11.272C142.836 11.272 141.98 11.612 141.316 12.292C140.652 12.972 140.32 13.808 140.32 14.8C140.32 15.792 140.652 16.628 141.316 17.308C141.98 17.988 142.836 18.328 143.884 18.328C144.508 18.328 145.08 18.176 145.6 17.872C146.12 17.568 146.512 17.16 146.776 16.648L147.52 17.068C147.176 17.7 146.676 18.204 146.02 18.58C145.372 18.956 144.66 19.144 143.884 19.144ZM153.821 13V19H153.029V13.768H149.573V19H148.781V13H153.821ZM160.656 13H161.448V19H160.656V17.824C160.104 18.704 159.296 19.144 158.232 19.144C157.376 19.144 156.644 18.84 156.036 18.232C155.436 17.624 155.136 16.88 155.136 16C155.136 15.12 155.436 14.376 156.036 13.768C156.644 13.16 157.376 12.856 158.232 12.856C159.296 12.856 160.104 13.296 160.656 14.176V13ZM156.612 17.692C157.068 18.148 157.628 18.376 158.292 18.376C158.956 18.376 159.516 18.148 159.972 17.692C160.428 17.228 160.656 16.664 160.656 16C160.656 15.336 160.428 14.776 159.972 14.32C159.516 13.856 158.956 13.624 158.292 13.624C157.628 13.624 157.068 13.856 156.612 14.32C156.156 14.776 155.928 15.336 155.928 16C155.928 16.664 156.156 17.228 156.612 17.692ZM167.493 13H168.165V19H167.373V14.38L163.797 19H163.125V13H163.917V17.62L167.493 13ZM173.656 15.916C174.312 16.156 174.64 16.624 174.64 17.32C174.64 17.808 174.476 18.212 174.148 18.532C173.828 18.844 173.364 19 172.756 19H169.84V13H172.516C173.1 13 173.552 13.152 173.872 13.456C174.192 13.752 174.352 14.136 174.352 14.608C174.352 15.208 174.12 15.644 173.656 15.916ZM172.516 13.768H170.632V15.592H172.516C173.212 15.592 173.56 15.28 173.56 14.656C173.56 14.376 173.468 14.16 173.284 14.008C173.108 13.848 172.852 13.768 172.516 13.768ZM172.756 18.232C173.108 18.232 173.376 18.148 173.56 17.98C173.752 17.812 173.848 17.576 173.848 17.272C173.848 16.992 173.752 16.772 173.56 16.612C173.376 16.444 173.108 16.36 172.756 16.36H170.632V18.232H172.756ZM181 13H181.792V19H181V17.824C180.448 18.704 179.64 19.144 178.576 19.144C177.72 19.144 176.988 18.84 176.38 18.232C175.78 17.624 175.48 16.88 175.48 16C175.48 15.12 175.78 14.376 176.38 13.768C176.988 13.16 177.72 12.856 178.576 12.856C179.64 12.856 180.448 13.296 181 14.176V13ZM176.956 17.692C177.412 18.148 177.972 18.376 178.636 18.376C179.3 18.376 179.86 18.148 180.316 17.692C180.772 17.228 181 16.664 181 16C181 15.336 180.772 14.776 180.316 14.32C179.86 13.856 179.3 13.624 178.636 13.624C177.972 13.624 177.412 13.856 176.956 14.32C176.5 14.776 176.272 15.336 176.272 16C176.272 16.664 176.5 17.228 176.956 17.692ZM188.593 12.856C189.473 12.856 190.217 13.16 190.825 13.768C191.441 14.368 191.749 15.112 191.749 16C191.749 16.888 191.441 17.636 190.825 18.244C190.217 18.844 189.473 19.144 188.593 19.144C187.785 19.144 187.089 18.884 186.505 18.364C185.929 17.836 185.597 17.176 185.509 16.384H184.261V19H183.469V13H184.261V15.616H185.509C185.597 14.824 185.929 14.168 186.505 13.648C187.089 13.12 187.785 12.856 188.593 12.856ZM186.913 17.692C187.369 18.148 187.929 18.376 188.593 18.376C189.257 18.376 189.817 18.148 190.273 17.692C190.729 17.228 190.957 16.664 190.957 16C190.957 15.336 190.729 14.776 190.273 14.32C189.817 13.856 189.257 13.624 188.593 13.624C187.929 13.624 187.369 13.856 186.913 14.32C186.457 14.776 186.229 15.336 186.229 16C186.229 16.664 186.457 17.228 186.913 17.692ZM201.107 18.232H201.947V20.608H201.155V19H193.067V13H193.859V18.232H196.691V13H197.483V18.232H200.315V13H201.107V18.232ZM207.513 13H208.185V19H207.393V14.38L203.817 19H203.145V13H203.937V17.62L207.513 13ZM210.82 12.04V11.344H213.94V12.04H210.82ZM214.228 13H214.9V19H214.108V14.38L210.532 19H209.86V13H210.652V17.62L214.228 13ZM222.37 19.144C221.466 19.144 220.714 18.844 220.114 18.244C219.514 17.636 219.214 16.888 219.214 16C219.214 15.112 219.514 14.368 220.114 13.768C220.714 13.16 221.466 12.856 222.37 12.856C222.962 12.856 223.494 13 223.966 13.288C224.438 13.568 224.782 13.948 224.998 14.428L224.35 14.8C224.19 14.44 223.93 14.156 223.57 13.948C223.218 13.732 222.818 13.624 222.37 13.624C221.706 13.624 221.146 13.856 220.69 14.32C220.234 14.776 220.006 15.336 220.006 16C220.006 16.664 220.234 17.228 220.69 17.692C221.146 18.148 221.706 18.376 222.37 18.376C222.818 18.376 223.218 18.272 223.57 18.064C223.922 17.848 224.198 17.56 224.398 17.2L225.058 17.584C224.81 18.064 224.446 18.444 223.966 18.724C223.486 19.004 222.954 19.144 222.37 19.144ZM230.998 13V19H230.206V13.768H227.494V16.444C227.494 17.444 227.302 18.132 226.918 18.508C226.542 18.884 226.022 19.048 225.358 19V18.256C225.814 18.304 226.15 18.196 226.366 17.932C226.59 17.668 226.702 17.172 226.702 16.444V13H230.998ZM237.704 18.244C237.096 18.844 236.352 19.144 235.472 19.144C234.592 19.144 233.844 18.844 233.228 18.244C232.62 17.636 232.316 16.888 232.316 16C232.316 15.112 232.62 14.368 233.228 13.768C233.844 13.16 234.592 12.856 235.472 12.856C236.352 12.856 237.096 13.16 237.704 13.768C238.32 14.368 238.628 15.112 238.628 16C238.628 16.888 238.32 17.636 237.704 18.244ZM233.792 17.692C234.248 18.148 234.808 18.376 235.472 18.376C236.136 18.376 236.696 18.148 237.152 17.692C237.608 17.228 237.836 16.664 237.836 16C237.836 15.336 237.608 14.776 237.152 14.32C236.696 13.856 236.136 13.624 235.472 13.624C234.808 13.624 234.248 13.856 233.792 14.32C233.336 14.776 233.108 15.336 233.108 16C233.108 16.664 233.336 17.228 233.792 17.692ZM240.913 12.04V11.344H244.033V12.04H240.913ZM244.321 13H244.993V19H244.201V14.38L240.625 19H239.953V13H240.745V17.62L244.321 13Z" fill="white"/>
<path d="M98 21L130.5 31.5" stroke="white"/>
<path d="M147.172 31.472C147.916 32.032 148.288 32.808 148.288 33.8C148.288 34.792 147.916 35.568 147.172 36.128C146.436 36.688 145.46 36.996 144.244 37.052V38H143.404V37.052C142.188 36.996 141.208 36.688 140.464 36.128C139.728 35.568 139.36 34.792 139.36 33.8C139.36 32.808 139.728 32.032 140.464 31.472C141.208 30.912 142.188 30.604 143.404 30.548V29.6H144.244V30.548C145.46 30.604 146.436 30.912 147.172 31.472ZM141.064 32.024C140.488 32.44 140.2 33.032 140.2 33.8C140.2 34.568 140.488 35.164 141.064 35.588C141.64 36.004 142.42 36.236 143.404 36.284V31.316C142.42 31.364 141.64 31.6 141.064 32.024ZM144.244 36.284C145.228 36.236 146.008 36.004 146.584 35.588C147.16 35.164 147.448 34.568 147.448 33.8C147.448 33.032 147.16 32.44 146.584 32.024C146.008 31.6 145.228 31.364 144.244 31.316V36.284ZM154.513 37.244C153.905 37.844 153.161 38.144 152.281 38.144C151.401 38.144 150.653 37.844 150.037 37.244C149.429 36.636 149.125 35.888 149.125 35C149.125 34.112 149.429 33.368 150.037 32.768C150.653 32.16 151.401 31.856 152.281 31.856C153.161 31.856 153.905 32.16 154.513 32.768C155.129 33.368 155.437 34.112 155.437 35C155.437 35.888 155.129 36.636 154.513 37.244ZM150.601 36.692C151.057 37.148 151.617 37.376 152.281 37.376C152.945 37.376 153.505 37.148 153.961 36.692C154.417 36.228 154.645 35.664 154.645 35C154.645 34.336 154.417 33.776 153.961 33.32C153.505 32.856 152.945 32.624 152.281 32.624C151.617 32.624 151.057 32.856 150.601 33.32C150.145 33.776 149.917 34.336 149.917 35C149.917 35.664 150.145 36.228 150.601 36.692ZM161.448 32V38H160.656V32.768H157.944V35.444C157.944 36.444 157.752 37.132 157.368 37.508C156.992 37.884 156.472 38.048 155.808 38V37.256C156.264 37.304 156.6 37.196 156.816 36.932C157.04 36.668 157.152 36.172 157.152 35.444V32H161.448ZM165.561 34.28C166.121 34.28 166.593 34.456 166.977 34.808C167.369 35.152 167.565 35.596 167.565 36.14C167.565 36.684 167.369 37.132 166.977 37.484C166.593 37.828 166.121 38 165.561 38H163.125V32H163.917V34.28H165.561ZM165.561 37.232C165.897 37.232 166.181 37.132 166.413 36.932C166.653 36.732 166.773 36.468 166.773 36.14C166.773 35.812 166.653 35.548 166.413 35.348C166.181 35.148 165.897 35.048 165.561 35.048H163.917V37.232H165.561ZM172.602 32V32.768H169.554V38H168.762V32H172.602ZM178.492 32H179.284V38H178.492V36.824C177.94 37.704 177.132 38.144 176.068 38.144C175.212 38.144 174.48 37.84 173.872 37.232C173.272 36.624 172.972 35.88 172.972 35C172.972 34.12 173.272 33.376 173.872 32.768C174.48 32.16 175.212 31.856 176.068 31.856C177.132 31.856 177.94 32.296 178.492 33.176V32ZM174.448 36.692C174.904 37.148 175.464 37.376 176.128 37.376C176.792 37.376 177.352 37.148 177.808 36.692C178.264 36.228 178.492 35.664 178.492 35C178.492 34.336 178.264 33.776 177.808 33.32C177.352 32.856 176.792 32.624 176.128 32.624C175.464 32.624 174.904 32.856 174.448 33.32C173.992 33.776 173.764 34.336 173.764 35C173.764 35.664 173.992 36.228 174.448 36.692Z" fill="white"/>
<circle cx="96" cy="20" r="3" fill="#C2E23F"/>
<defs>
<linearGradient id="paint0_linear_1904_14226" x1="65.5" y1="43" x2="65.5" y2="191" gradientUnits="userSpaceOnUse">
<stop stop-color="white" stop-opacity="0.15"/>
<stop offset="1" stop-color="white" stop-opacity="0"/>
</linearGradient>
</defs>
</svg>
