<svg width="299" height="249" viewBox="0 0 299 249" fill="none" xmlns="http://www.w3.org/2000/svg">
<path d="M104 78C104 72.4772 108.477 68 114 68H184C189.523 68 194 72.4772 194 78V116H104V78Z" fill="#232C32"/>
<g filter="url(#filter0_f_1655_19362)">
<ellipse cx="149.5" cy="89" rx="79.5" ry="19" fill="#E41D1D" fill-opacity="0.66"/>
</g>
<path d="M86 248V166.452C86 149.571 99.6841 135.887 116.564 135.887V135.887C116.909 135.887 117.188 135.608 117.188 135.264V104C117.188 101.791 118.979 100 121.188 100H175.564C177.773 100 179.564 101.791 179.564 104V135.484C179.564 135.707 179.745 135.887 179.968 135.887V135.887C197.659 135.887 212 150.229 212 167.92V248" stroke="white"/>
<path d="M85.5 166.452V248H211.5V167.92C211.5 150.229 197.159 135.887 179.468 135.887C179.245 135.887 179.064 135.707 179.064 135.484V104C179.064 101.791 177.273 100 175.064 100H120.688C118.479 100 116.688 101.791 116.688 104V135.264C116.688 135.608 116.409 135.887 116.064 135.887C99.1841 135.887 85.5 149.571 85.5 166.452Z" fill="url(#paint0_linear_1655_19362)"/>
<rect x="179.742" y="102.478" width="4" height="4" fill="white"/>
<rect x="113.199" y="102.478" width="4" height="4" fill="white"/>
<rect x="113.199" y="115.515" width="4" height="4" fill="white"/>
<rect x="179.742" y="115.515" width="4" height="4" fill="white"/>
<path d="M104 124.249V85.9946C104 80.4718 108.477 75.9946 114 75.9946H184C189.523 75.9946 194 80.4718 194 85.9946V124.249" stroke="white"/>
<rect x="117" y="82" width="63" height="4" fill="#BCACAF"/>
<rect x="117" y="90" width="63" height="4" fill="#E1E4EB"/>
<rect x="190" y="96.0195" width="4" height="4.10672" fill="white"/>
<rect x="104" y="96.0186" width="4" height="4.10672" fill="white"/>
<rect x="190" y="109.952" width="4" height="4.10672" fill="white"/>
<rect x="104" y="109.951" width="4" height="4.10672" fill="white"/>
<path d="M81.0312 58.0342L88.555 67.4882C91.2749 70.9059 92.7557 75.1448 92.7557 79.5127V79.5127C92.7557 87.3202 97.4573 94.3595 104.669 97.3501L108.433 98.9106C112.14 100.448 115.431 102.842 118.035 105.896L119.703 107.852C123.57 112.387 129.23 115 135.19 115H136.133C138.452 115 140.744 114.497 142.851 113.527V113.527C144.958 112.556 147.25 112.053 149.569 112.053H152.121C154.44 112.053 156.732 112.556 158.839 113.527V113.527C160.946 114.497 163.238 115 165.557 115H166.016C171.678 115 177.015 112.358 180.447 107.856L181.979 105.848C184.282 102.828 187.289 100.419 190.738 98.8295L193.403 97.6014C200.272 94.437 204.671 87.5659 204.671 80.0039V80.0039C204.671 75.3365 206.356 70.8261 209.416 67.3017L217.461 58.0342" stroke="#E41D1D" stroke-width="1.51589"/>
<path d="M96.1875 58.0342L102.035 65.4571C104.154 68.147 105.307 71.4717 105.307 74.896V74.896C105.307 81.0431 108.996 86.5894 114.666 88.9644L117.477 90.1419C120.375 91.3559 122.944 93.2412 124.97 95.6424L126.297 97.2148C129.283 100.752 133.676 102.793 138.305 102.793H139.039C140.846 102.793 142.631 102.398 144.27 101.635V101.635C145.908 100.873 147.693 100.478 149.5 100.478H151.475C153.281 100.478 155.067 100.873 156.705 101.635V101.635C158.343 102.398 160.128 102.793 161.935 102.793H162.168C166.178 102.793 169.979 101.003 172.534 97.9123L174.686 95.3088C176.492 93.1232 178.764 91.3682 181.334 90.1716L183.503 89.1621C188.901 86.6501 192.352 81.2369 192.352 75.2838V75.2838C192.352 71.6228 193.664 68.083 196.05 65.3064L202.3 58.0342" stroke="#E41D1D" stroke-width="1.51589"/>
<path d="M111.352 60.0693L115.51 65.7795C117.04 67.8816 117.865 70.415 117.865 73.0154V73.0154C117.865 77.8407 120.688 82.2198 125.084 84.2115L126.475 84.8419C128.599 85.8044 130.457 87.2675 131.892 89.1059L133.036 90.5731C135.047 93.1495 138.132 94.6556 141.4 94.6556H141.931C143.238 94.6556 144.528 94.3492 145.696 93.7611V93.7611C146.864 93.173 148.154 92.8666 149.461 92.8666H150.813C152.121 92.8666 153.41 93.173 154.578 93.7611V93.7611C155.746 94.3492 157.036 94.6556 158.343 94.6556H158.512C161.341 94.6556 164.008 93.3372 165.726 91.0898L167.413 88.8824C168.709 87.1877 170.372 85.8088 172.277 84.8494L173.239 84.3648C177.409 82.2651 180.04 77.9947 180.04 73.3258V73.3258C180.04 70.5338 180.986 67.8241 182.722 65.638L187.146 60.0693" stroke="#E41D1D" stroke-width="1.51589"/>
<path d="M126.5 60L129.531 65.2934C130.111 66.3062 130.416 67.4529 130.416 68.6199V68.6199C130.416 71.3576 132.083 73.8194 134.625 74.8358L135.677 75.2563C136.89 75.7415 137.973 76.504 138.838 77.4828L139.35 78.0613C140.672 79.5573 142.573 80.4139 144.57 80.4139H144.882C145.651 80.4139 146.412 80.2526 147.114 79.9403V79.9403C147.817 79.6281 148.578 79.4668 149.347 79.4668H150.212C150.981 79.4668 151.741 79.6281 152.444 79.9403V79.9403C153.147 80.2526 153.907 80.4139 154.676 80.4139H154.849C156.833 80.4139 158.702 79.4815 159.895 77.8963L160.188 77.5058C160.934 76.5144 161.921 75.7298 163.055 75.226L163.719 74.9311C166.152 73.8498 167.721 71.4364 167.721 68.7732V68.7732C167.721 67.5092 168.077 66.2707 168.747 65.1992L172 60" stroke="#E41D1D" stroke-width="1.51589"/>
<path d="M142 60L142.987 61.5834C143.184 61.9008 143.289 62.2672 143.289 62.641V63.6237C143.289 64.3644 143.698 65.0444 144.353 65.3911L145.186 65.8324C145.479 65.9877 145.729 66.2134 145.913 66.4894L146.361 67.1605C146.712 67.685 147.301 68 147.931 68H148.037C148.304 68 148.567 67.9286 148.797 67.7931V67.7931C149.027 67.6576 149.289 67.5862 149.556 67.5862H149.795C150.062 67.5862 150.325 67.6576 150.555 67.7931V67.7931C150.785 67.9286 151.047 68 151.314 68H151.397C152.074 68 152.694 67.6203 153.001 67.0171L153.22 66.5885C153.392 66.2492 153.659 65.9663 153.987 65.7732L154.608 65.4076C155.219 65.0482 155.594 64.3925 155.594 63.684V62.6843C155.594 62.2834 155.714 61.8917 155.94 61.56L157 60" stroke="#E41D1D" stroke-width="1.51589"/>
<circle cx="81.0318" cy="59.0318" r="3.03178" fill="#E41D1D"/>
<circle cx="96.1919" cy="59.0318" r="3.03178" fill="#E41D1D"/>
<circle cx="111.348" cy="59.0318" r="3.03178" fill="#E41D1D"/>
<circle cx="126.508" cy="59.0318" r="3.03178" fill="#E41D1D"/>
<circle cx="141.669" cy="59.0318" r="3.03178" fill="#E41D1D"/>
<circle cx="156.825" cy="59.0318" r="3.03178" fill="#E41D1D"/>
<circle cx="171.985" cy="59.0318" r="3.03178" fill="#E41D1D"/>
<circle cx="187.145" cy="59.0318" r="3.03178" fill="#E41D1D"/>
<circle cx="202.301" cy="59.0318" r="3.03178" fill="#E41D1D"/>
<circle cx="217.461" cy="59.0318" r="3.03178" fill="#E41D1D"/>
<defs>
<filter id="filter0_f_1655_19362" x="0.875572" y="0.875572" width="297.249" height="176.249" filterUnits="userSpaceOnUse" color-interpolation-filters="sRGB">
<feFlood flood-opacity="0" result="BackgroundImageFix"/>
<feBlend mode="normal" in="SourceGraphic" in2="BackgroundImageFix" result="shape"/>
<feGaussianBlur stdDeviation="34.5622" result="effect1_foregroundBlur_1655_19362"/>
</filter>
<linearGradient id="paint0_linear_1655_19362" x1="148.5" y1="100" x2="148.5" y2="248" gradientUnits="userSpaceOnUse">
<stop stop-color="white" stop-opacity="0.15"/>
<stop offset="1" stop-color="white" stop-opacity="0"/>
</linearGradient>
</defs>
</svg>
