<svg width="257" height="192" viewBox="0 0 257 192" fill="none" xmlns="http://www.w3.org/2000/svg">
<path d="M2.5 191V109.452C2.5 92.5715 16.1841 78.8873 33.0644 78.8873V78.8873C33.4089 78.8873 33.6881 78.6081 33.6881 78.2636V47C33.6881 44.7909 35.479 43 37.6881 43H92.0644C94.2735 43 96.0644 44.7909 96.0644 47V78.4841C96.0644 78.7068 96.2449 78.8873 96.4676 78.8873V78.8873C114.159 78.8873 128.5 93.2287 128.5 110.92V191" stroke="white"/>
<path d="M2.5 109.452V191H128.5V110.92C128.5 93.2287 114.159 78.8873 96.4676 78.8873C96.2449 78.8873 96.0644 78.7068 96.0644 78.4841V47C96.0644 44.7909 94.2735 43 92.0644 43H37.6881C35.479 43 33.6881 44.7909 33.6881 47V78.2636C33.6881 78.6081 33.4089 78.8873 33.0644 78.8873C16.1841 78.8873 2.5 92.5715 2.5 109.452Z" fill="url(#paint0_linear_1911_14518)"/>
<rect x="96.2422" y="45.478" width="4" height="4" fill="white"/>
<rect x="29.6992" y="45.4775" width="4" height="4" fill="white"/>
<rect x="29.6992" y="58.5151" width="4" height="4" fill="white"/>
<rect x="96.2422" y="58.5151" width="4" height="4" fill="white"/>
<path d="M20.5 49.2486V10.9946C20.5 5.47179 24.9772 0.994629 30.5 0.994629H100.5C106.023 0.994629 110.5 5.47178 110.5 10.9946V49.2486" stroke="white"/>
<rect x="34.5" y="6" width="62" height="4" fill="#BCACAF"/>
<rect x="34.5" y="12" width="62" height="4" fill="#E0D69E"/>
<rect x="34.5" y="18" width="62" height="4" fill="#8996B6"/>
<rect x="34.5" y="24" width="62" height="4" fill="#EAEBE7"/>
<rect x="106.5" y="19.0195" width="4" height="4.10672" fill="white"/>
<rect x="20.5" y="19.0186" width="4" height="4.10672" fill="white"/>
<rect x="106.5" y="32.9517" width="4" height="4.10672" fill="white"/>
<rect x="20.5" y="32.9507" width="4" height="4.10672" fill="white"/>
<circle cx="96" cy="7" r="3" fill="#C2E23F"/>
<path d="M99 7L131 7" stroke="white"/>
<path d="M143.884 13.144C142.612 13.144 141.56 12.724 140.728 11.884C139.896 11.044 139.48 10.016 139.48 8.8C139.48 7.584 139.896 6.556 140.728 5.716C141.56 4.876 142.612 4.456 143.884 4.456C144.66 4.456 145.372 4.644 146.02 5.02C146.668 5.388 147.168 5.888 147.52 6.52L146.776 6.952C146.512 6.44 146.12 6.032 145.6 5.728C145.08 5.424 144.508 5.272 143.884 5.272C142.836 5.272 141.98 5.612 141.316 6.292C140.652 6.972 140.32 7.808 140.32 8.8C140.32 9.792 140.652 10.628 141.316 11.308C141.98 11.988 142.836 12.328 143.884 12.328C144.508 12.328 145.08 12.176 145.6 11.872C146.12 11.568 146.512 11.16 146.776 10.648L147.52 11.068C147.176 11.7 146.676 12.204 146.02 12.58C145.372 12.956 144.66 13.144 143.884 13.144ZM153.821 7V13H153.029V7.768H149.573V13H148.781V7H153.821ZM160.656 7H161.448V13H160.656V11.824C160.104 12.704 159.296 13.144 158.232 13.144C157.376 13.144 156.644 12.84 156.036 12.232C155.436 11.624 155.136 10.88 155.136 10C155.136 9.12 155.436 8.376 156.036 7.768C156.644 7.16 157.376 6.856 158.232 6.856C159.296 6.856 160.104 7.296 160.656 8.176V7ZM156.612 11.692C157.068 12.148 157.628 12.376 158.292 12.376C158.956 12.376 159.516 12.148 159.972 11.692C160.428 11.228 160.656 10.664 160.656 10C160.656 9.336 160.428 8.776 159.972 8.32C159.516 7.856 158.956 7.624 158.292 7.624C157.628 7.624 157.068 7.856 156.612 8.32C156.156 8.776 155.928 9.336 155.928 10C155.928 10.664 156.156 11.228 156.612 11.692ZM167.493 7H168.165V13H167.373V8.38L163.797 13H163.125V7H163.917V11.62L167.493 7ZM173.656 9.916C174.312 10.156 174.64 10.624 174.64 11.32C174.64 11.808 174.476 12.212 174.148 12.532C173.828 12.844 173.364 13 172.756 13H169.84V7H172.516C173.1 7 173.552 7.152 173.872 7.456C174.192 7.752 174.352 8.136 174.352 8.608C174.352 9.208 174.12 9.644 173.656 9.916ZM172.516 7.768H170.632V9.592H172.516C173.212 9.592 173.56 9.28 173.56 8.656C173.56 8.376 173.468 8.16 173.284 8.008C173.108 7.848 172.852 7.768 172.516 7.768ZM172.756 12.232C173.108 12.232 173.376 12.148 173.56 11.98C173.752 11.812 173.848 11.576 173.848 11.272C173.848 10.992 173.752 10.772 173.56 10.612C173.376 10.444 173.108 10.36 172.756 10.36H170.632V12.232H172.756ZM181 7H181.792V13H181V11.824C180.448 12.704 179.64 13.144 178.576 13.144C177.72 13.144 176.988 12.84 176.38 12.232C175.78 11.624 175.48 10.88 175.48 10C175.48 9.12 175.78 8.376 176.38 7.768C176.988 7.16 177.72 6.856 178.576 6.856C179.64 6.856 180.448 7.296 181 8.176V7ZM176.956 11.692C177.412 12.148 177.972 12.376 178.636 12.376C179.3 12.376 179.86 12.148 180.316 11.692C180.772 11.228 181 10.664 181 10C181 9.336 180.772 8.776 180.316 8.32C179.86 7.856 179.3 7.624 178.636 7.624C177.972 7.624 177.412 7.856 176.956 8.32C176.5 8.776 176.272 9.336 176.272 10C176.272 10.664 176.5 11.228 176.956 11.692ZM188.593 6.856C189.473 6.856 190.217 7.16 190.825 7.768C191.441 8.368 191.749 9.112 191.749 10C191.749 10.888 191.441 11.636 190.825 12.244C190.217 12.844 189.473 13.144 188.593 13.144C187.785 13.144 187.089 12.884 186.505 12.364C185.929 11.836 185.597 11.176 185.509 10.384H184.261V13H183.469V7H184.261V9.616H185.509C185.597 8.824 185.929 8.168 186.505 7.648C187.089 7.12 187.785 6.856 188.593 6.856ZM186.913 11.692C187.369 12.148 187.929 12.376 188.593 12.376C189.257 12.376 189.817 12.148 190.273 11.692C190.729 11.228 190.957 10.664 190.957 10C190.957 9.336 190.729 8.776 190.273 8.32C189.817 7.856 189.257 7.624 188.593 7.624C187.929 7.624 187.369 7.856 186.913 8.32C186.457 8.776 186.229 9.336 186.229 10C186.229 10.664 186.457 11.228 186.913 11.692ZM201.107 12.232H201.947V14.608H201.155V13H193.067V7H193.859V12.232H196.691V7H197.483V12.232H200.315V7H201.107V12.232ZM207.513 7H208.185V13H207.393V8.38L203.817 13H203.145V7H203.937V11.62L207.513 7ZM210.82 6.04V5.344H213.94V6.04H210.82ZM214.228 7H214.9V13H214.108V8.38L210.532 13H209.86V7H210.652V11.62L214.228 7ZM222.37 13.144C221.466 13.144 220.714 12.844 220.114 12.244C219.514 11.636 219.214 10.888 219.214 10C219.214 9.112 219.514 8.368 220.114 7.768C220.714 7.16 221.466 6.856 222.37 6.856C222.962 6.856 223.494 7 223.966 7.288C224.438 7.568 224.782 7.948 224.998 8.428L224.35 8.8C224.19 8.44 223.93 8.156 223.57 7.948C223.218 7.732 222.818 7.624 222.37 7.624C221.706 7.624 221.146 7.856 220.69 8.32C220.234 8.776 220.006 9.336 220.006 10C220.006 10.664 220.234 11.228 220.69 11.692C221.146 12.148 221.706 12.376 222.37 12.376C222.818 12.376 223.218 12.272 223.57 12.064C223.922 11.848 224.198 11.56 224.398 11.2L225.058 11.584C224.81 12.064 224.446 12.444 223.966 12.724C223.486 13.004 222.954 13.144 222.37 13.144ZM230.998 7V13H230.206V7.768H227.494V10.444C227.494 11.444 227.302 12.132 226.918 12.508C226.542 12.884 226.022 13.048 225.358 13V12.256C225.814 12.304 226.15 12.196 226.366 11.932C226.59 11.668 226.702 11.172 226.702 10.444V7H230.998ZM237.704 12.244C237.096 12.844 236.352 13.144 235.472 13.144C234.592 13.144 233.844 12.844 233.228 12.244C232.62 11.636 232.316 10.888 232.316 10C232.316 9.112 232.62 8.368 233.228 7.768C233.844 7.16 234.592 6.856 235.472 6.856C236.352 6.856 237.096 7.16 237.704 7.768C238.32 8.368 238.628 9.112 238.628 10C238.628 10.888 238.32 11.636 237.704 12.244ZM233.792 11.692C234.248 12.148 234.808 12.376 235.472 12.376C236.136 12.376 236.696 12.148 237.152 11.692C237.608 11.228 237.836 10.664 237.836 10C237.836 9.336 237.608 8.776 237.152 8.32C236.696 7.856 236.136 7.624 235.472 7.624C234.808 7.624 234.248 7.856 233.792 8.32C233.336 8.776 233.108 9.336 233.108 10C233.108 10.664 233.336 11.228 233.792 11.692ZM240.913 6.04V5.344H244.033V6.04H240.913ZM244.321 7H244.993V13H244.201V8.38L240.625 13H239.953V7H240.745V11.62L244.321 7Z" fill="white"/>
<path d="M98 15L130.5 25.5" stroke="white"/>
<circle cx="96" cy="14" r="3" fill="#C2E23F"/>
<path d="M147.172 24.472C147.916 25.032 148.288 25.808 148.288 26.8C148.288 27.792 147.916 28.568 147.172 29.128C146.436 29.688 145.46 29.996 144.244 30.052V31H143.404V30.052C142.188 29.996 141.208 29.688 140.464 29.128C139.728 28.568 139.36 27.792 139.36 26.8C139.36 25.808 139.728 25.032 140.464 24.472C141.208 23.912 142.188 23.604 143.404 23.548V22.6H144.244V23.548C145.46 23.604 146.436 23.912 147.172 24.472ZM141.064 25.024C140.488 25.44 140.2 26.032 140.2 26.8C140.2 27.568 140.488 28.164 141.064 28.588C141.64 29.004 142.42 29.236 143.404 29.284V24.316C142.42 24.364 141.64 24.6 141.064 25.024ZM144.244 29.284C145.228 29.236 146.008 29.004 146.584 28.588C147.16 28.164 147.448 27.568 147.448 26.8C147.448 26.032 147.16 25.44 146.584 25.024C146.008 24.6 145.228 24.364 144.244 24.316V29.284ZM154.513 30.244C153.905 30.844 153.161 31.144 152.281 31.144C151.401 31.144 150.653 30.844 150.037 30.244C149.429 29.636 149.125 28.888 149.125 28C149.125 27.112 149.429 26.368 150.037 25.768C150.653 25.16 151.401 24.856 152.281 24.856C153.161 24.856 153.905 25.16 154.513 25.768C155.129 26.368 155.437 27.112 155.437 28C155.437 28.888 155.129 29.636 154.513 30.244ZM150.601 29.692C151.057 30.148 151.617 30.376 152.281 30.376C152.945 30.376 153.505 30.148 153.961 29.692C154.417 29.228 154.645 28.664 154.645 28C154.645 27.336 154.417 26.776 153.961 26.32C153.505 25.856 152.945 25.624 152.281 25.624C151.617 25.624 151.057 25.856 150.601 26.32C150.145 26.776 149.917 27.336 149.917 28C149.917 28.664 150.145 29.228 150.601 29.692ZM161.448 25V31H160.656V25.768H157.944V28.444C157.944 29.444 157.752 30.132 157.368 30.508C156.992 30.884 156.472 31.048 155.808 31V30.256C156.264 30.304 156.6 30.196 156.816 29.932C157.04 29.668 157.152 29.172 157.152 28.444V25H161.448ZM165.561 27.28C166.121 27.28 166.593 27.456 166.977 27.808C167.369 28.152 167.565 28.596 167.565 29.14C167.565 29.684 167.369 30.132 166.977 30.484C166.593 30.828 166.121 31 165.561 31H163.125V25H163.917V27.28H165.561ZM165.561 30.232C165.897 30.232 166.181 30.132 166.413 29.932C166.653 29.732 166.773 29.468 166.773 29.14C166.773 28.812 166.653 28.548 166.413 28.348C166.181 28.148 165.897 28.048 165.561 28.048H163.917V30.232H165.561ZM172.602 25V25.768H169.554V31H168.762V25H172.602ZM178.492 25H179.284V31H178.492V29.824C177.94 30.704 177.132 31.144 176.068 31.144C175.212 31.144 174.48 30.84 173.872 30.232C173.272 29.624 172.972 28.88 172.972 28C172.972 27.12 173.272 26.376 173.872 25.768C174.48 25.16 175.212 24.856 176.068 24.856C177.132 24.856 177.94 25.296 178.492 26.176V25ZM174.448 29.692C174.904 30.148 175.464 30.376 176.128 30.376C176.792 30.376 177.352 30.148 177.808 29.692C178.264 29.228 178.492 28.664 178.492 28C178.492 27.336 178.264 26.776 177.808 26.32C177.352 25.856 176.792 25.624 176.128 25.624C175.464 25.624 174.904 25.856 174.448 26.32C173.992 26.776 173.764 27.336 173.764 28C173.764 28.664 173.992 29.228 174.448 29.692Z" fill="white"/>
<path d="M98 21L133 41" stroke="white"/>
<circle cx="96" cy="20" r="3" fill="#C2E23F"/>
<path d="M98 28L133 63.5" stroke="white"/>
<circle cx="96" cy="27" r="3" fill="#C2E23F"/>
<path d="M147.172 44.472C147.916 45.032 148.288 45.808 148.288 46.8C148.288 47.792 147.916 48.568 147.172 49.128C146.436 49.688 145.46 49.996 144.244 50.052V51H143.404V50.052C142.188 49.996 141.208 49.688 140.464 49.128C139.728 48.568 139.36 47.792 139.36 46.8C139.36 45.808 139.728 45.032 140.464 44.472C141.208 43.912 142.188 43.604 143.404 43.548V42.6H144.244V43.548C145.46 43.604 146.436 43.912 147.172 44.472ZM141.064 45.024C140.488 45.44 140.2 46.032 140.2 46.8C140.2 47.568 140.488 48.164 141.064 48.588C141.64 49.004 142.42 49.236 143.404 49.284V44.316C142.42 44.364 141.64 44.6 141.064 45.024ZM144.244 49.284C145.228 49.236 146.008 49.004 146.584 48.588C147.16 48.164 147.448 47.568 147.448 46.8C147.448 46.032 147.16 45.44 146.584 45.024C146.008 44.6 145.228 44.364 144.244 44.316V49.284ZM154.513 50.244C153.905 50.844 153.161 51.144 152.281 51.144C151.401 51.144 150.653 50.844 150.037 50.244C149.429 49.636 149.125 48.888 149.125 48C149.125 47.112 149.429 46.368 150.037 45.768C150.653 45.16 151.401 44.856 152.281 44.856C153.161 44.856 153.905 45.16 154.513 45.768C155.129 46.368 155.437 47.112 155.437 48C155.437 48.888 155.129 49.636 154.513 50.244ZM150.601 49.692C151.057 50.148 151.617 50.376 152.281 50.376C152.945 50.376 153.505 50.148 153.961 49.692C154.417 49.228 154.645 48.664 154.645 48C154.645 47.336 154.417 46.776 153.961 46.32C153.505 45.856 152.945 45.624 152.281 45.624C151.617 45.624 151.057 45.856 150.601 46.32C150.145 46.776 149.917 47.336 149.917 48C149.917 48.664 150.145 49.228 150.601 49.692ZM161.448 45V51H160.656V45.768H157.944V48.444C157.944 49.444 157.752 50.132 157.368 50.508C156.992 50.884 156.472 51.048 155.808 51V50.256C156.264 50.304 156.6 50.196 156.816 49.932C157.04 49.668 157.152 49.172 157.152 48.444V45H161.448ZM165.561 47.28C166.121 47.28 166.593 47.456 166.977 47.808C167.369 48.152 167.565 48.596 167.565 49.14C167.565 49.684 167.369 50.132 166.977 50.484C166.593 50.828 166.121 51 165.561 51H163.125V45H163.917V47.28H165.561ZM165.561 50.232C165.897 50.232 166.181 50.132 166.413 49.932C166.653 49.732 166.773 49.468 166.773 49.14C166.773 48.812 166.653 48.548 166.413 48.348C166.181 48.148 165.897 48.048 165.561 48.048H163.917V50.232H165.561ZM172.602 45V45.768H169.554V51H168.762V45H172.602ZM178.492 45H179.284V51H178.492V49.824C177.94 50.704 177.132 51.144 176.068 51.144C175.212 51.144 174.48 50.84 173.872 50.232C173.272 49.624 172.972 48.88 172.972 48C172.972 47.12 173.272 46.376 173.872 45.768C174.48 45.16 175.212 44.856 176.068 44.856C177.132 44.856 177.94 45.296 178.492 46.176V45ZM174.448 49.692C174.904 50.148 175.464 50.376 176.128 50.376C176.792 50.376 177.352 50.148 177.808 49.692C178.264 49.228 178.492 48.664 178.492 48C178.492 47.336 178.264 46.776 177.808 46.32C177.352 45.856 176.792 45.624 176.128 45.624C175.464 45.624 174.904 45.856 174.448 46.32C173.992 46.776 173.764 47.336 173.764 48C173.764 48.664 173.992 49.228 174.448 49.692Z" fill="white"/>
<path d="M147.172 64.472C147.916 65.032 148.288 65.808 148.288 66.8C148.288 67.792 147.916 68.568 147.172 69.128C146.436 69.688 145.46 69.996 144.244 70.052V71H143.404V70.052C142.188 69.996 141.208 69.688 140.464 69.128C139.728 68.568 139.36 67.792 139.36 66.8C139.36 65.808 139.728 65.032 140.464 64.472C141.208 63.912 142.188 63.604 143.404 63.548V62.6H144.244V63.548C145.46 63.604 146.436 63.912 147.172 64.472ZM141.064 65.024C140.488 65.44 140.2 66.032 140.2 66.8C140.2 67.568 140.488 68.164 141.064 68.588C141.64 69.004 142.42 69.236 143.404 69.284V64.316C142.42 64.364 141.64 64.6 141.064 65.024ZM144.244 69.284C145.228 69.236 146.008 69.004 146.584 68.588C147.16 68.164 147.448 67.568 147.448 66.8C147.448 66.032 147.16 65.44 146.584 65.024C146.008 64.6 145.228 64.364 144.244 64.316V69.284ZM154.513 70.244C153.905 70.844 153.161 71.144 152.281 71.144C151.401 71.144 150.653 70.844 150.037 70.244C149.429 69.636 149.125 68.888 149.125 68C149.125 67.112 149.429 66.368 150.037 65.768C150.653 65.16 151.401 64.856 152.281 64.856C153.161 64.856 153.905 65.16 154.513 65.768C155.129 66.368 155.437 67.112 155.437 68C155.437 68.888 155.129 69.636 154.513 70.244ZM150.601 69.692C151.057 70.148 151.617 70.376 152.281 70.376C152.945 70.376 153.505 70.148 153.961 69.692C154.417 69.228 154.645 68.664 154.645 68C154.645 67.336 154.417 66.776 153.961 66.32C153.505 65.856 152.945 65.624 152.281 65.624C151.617 65.624 151.057 65.856 150.601 66.32C150.145 66.776 149.917 67.336 149.917 68C149.917 68.664 150.145 69.228 150.601 69.692ZM161.448 65V71H160.656V65.768H157.944V68.444C157.944 69.444 157.752 70.132 157.368 70.508C156.992 70.884 156.472 71.048 155.808 71V70.256C156.264 70.304 156.6 70.196 156.816 69.932C157.04 69.668 157.152 69.172 157.152 68.444V65H161.448ZM165.561 67.28C166.121 67.28 166.593 67.456 166.977 67.808C167.369 68.152 167.565 68.596 167.565 69.14C167.565 69.684 167.369 70.132 166.977 70.484C166.593 70.828 166.121 71 165.561 71H163.125V65H163.917V67.28H165.561ZM165.561 70.232C165.897 70.232 166.181 70.132 166.413 69.932C166.653 69.732 166.773 69.468 166.773 69.14C166.773 68.812 166.653 68.548 166.413 68.348C166.181 68.148 165.897 68.048 165.561 68.048H163.917V70.232H165.561ZM172.602 65V65.768H169.554V71H168.762V65H172.602ZM178.492 65H179.284V71H178.492V69.824C177.94 70.704 177.132 71.144 176.068 71.144C175.212 71.144 174.48 70.84 173.872 70.232C173.272 69.624 172.972 68.88 172.972 68C172.972 67.12 173.272 66.376 173.872 65.768C174.48 65.16 175.212 64.856 176.068 64.856C177.132 64.856 177.94 65.296 178.492 66.176V65ZM174.448 69.692C174.904 70.148 175.464 70.376 176.128 70.376C176.792 70.376 177.352 70.148 177.808 69.692C178.264 69.228 178.492 68.664 178.492 68C178.492 67.336 178.264 66.776 177.808 66.32C177.352 65.856 176.792 65.624 176.128 65.624C175.464 65.624 174.904 65.856 174.448 66.32C173.992 66.776 173.764 67.336 173.764 68C173.764 68.664 173.992 69.228 174.448 69.692Z" fill="white"/>
<defs>
<linearGradient id="paint0_linear_1911_14518" x1="65.5" y1="43" x2="65.5" y2="191" gradientUnits="userSpaceOnUse">
<stop stop-color="white" stop-opacity="0.15"/>
<stop offset="1" stop-color="white" stop-opacity="0"/>
</linearGradient>
</defs>
</svg>
