<svg width="431" height="338" viewBox="0 0 431 338" fill="none" xmlns="http://www.w3.org/2000/svg">
<path d="M417.43 20.4621L395.93 236.629C395.385 242.114 392.637 247.403 388.29 251.334C383.944 255.264 378.356 257.513 372.755 257.587L146.681 260.546L59.819 322.767C57.3587 324.492 54.5261 325.563 51.6406 325.858C48.755 326.152 45.9312 325.66 43.4874 324.436C41.0437 323.212 39.0772 321.304 37.8097 318.929C36.5422 316.554 36.0241 313.805 36.3137 310.992L41.1938 261.927L28.5754 262.092C22.9745 262.165 17.8196 260.057 14.2448 256.23C10.6701 252.404 8.96831 247.173 9.51384 241.688L31.0191 25.4688C31.3006 22.776 32.1241 20.1053 33.4422 17.6114C34.7602 15.1174 36.5466 12.8497 38.6979 10.9392C40.8492 9.02878 43.3229 7.51359 45.9758 6.4813C48.6287 5.44901 51.4081 4.92008 54.1535 4.92513L398.702 0.414736C404.205 0.342698 409.27 2.41435 412.782 6.17396C416.294 9.93357 417.966 15.0732 417.43 20.4621Z" fill="#E4E4E4"/>
<path d="M427.121 31.089L405.621 247.256C405.075 252.741 402.327 258.03 397.981 261.961C393.635 265.891 388.046 268.14 382.445 268.213L156.371 271.173L69.5095 333.394C67.0491 335.119 64.2166 336.19 61.331 336.485C58.4454 336.779 55.6216 336.287 53.1779 335.063C50.7342 333.839 48.7676 331.931 47.5001 329.556C46.2326 327.181 45.7145 324.432 46.0041 321.619L50.8842 272.554L38.2659 272.719C32.6649 272.792 27.51 270.684 23.9353 266.857C20.3605 263.031 18.6587 257.799 19.2043 252.315L40.7096 36.0958C40.991 33.4029 41.8146 30.7323 43.1326 28.2383C44.4506 25.7444 46.237 23.4766 48.3883 21.5662C50.5397 19.6557 53.0133 18.1405 55.6662 17.1083C58.3191 16.076 61.0986 15.547 63.8439 15.5521L408.393 11.0417C413.896 10.9697 418.96 13.0413 422.473 16.8009C425.985 20.5605 427.657 25.7001 427.121 31.089Z" fill="#B4B6B7"/>
<path d="M417.43 20.4621L395.93 236.629C395.385 242.114 392.637 247.403 388.29 251.334C383.944 255.264 378.356 257.513 372.755 257.587L146.681 260.546L59.819 322.767C57.3587 324.492 54.5261 325.563 51.6406 325.858C48.755 326.152 45.9312 325.66 43.4874 324.436C41.0437 323.212 39.0772 321.304 37.8097 318.929C36.5422 316.554 36.0241 313.805 36.3137 310.992L41.1938 261.927L28.5754 262.092C22.9745 262.165 17.8196 260.057 14.2448 256.23C10.6701 252.404 8.96831 247.173 9.51384 241.688L31.0191 25.4688C31.3006 22.776 32.1241 20.1053 33.4422 17.6114C34.7602 15.1174 36.5466 12.8497 38.6979 10.9392C40.8492 9.02878 43.3229 7.51359 45.9758 6.4813C48.6287 5.44901 51.4081 4.92008 54.1535 4.92513L398.702 0.414736C404.205 0.342698 409.27 2.41435 412.782 6.17396C416.294 9.93357 417.966 15.0732 417.43 20.4621Z" fill="#E4E4E4"/>
<rect width="306.264" height="180.417" rx="17.819" transform="matrix(0.999914 -0.0130896 -0.0989724 0.99509 73.1689 48.9448)" fill="#BEC0C2"/>
<rect width="306.264" height="180.417" rx="17.819" transform="matrix(0.999914 -0.0130896 -0.0989724 0.99509 68.1533 43.4766)" fill="#F7F7F7"/>
<path d="M225.981 95.195L104.538 96.7848C102.437 96.8123 100.505 96.0082 99.1669 94.5495C97.8286 93.0908 97.1935 91.0969 97.4014 89.0065C97.6094 86.916 98.6432 84.9003 100.276 83.4027C101.908 81.9051 104.005 81.0483 106.106 81.0208L227.548 79.431C229.649 79.4036 231.581 80.2076 232.919 81.6663C234.258 83.125 234.893 85.1189 234.685 87.2093C234.477 89.2998 233.443 91.3155 231.811 92.8131C230.178 94.3107 228.081 95.1675 225.981 95.195Z" fill="#C2E23F" stroke="#C2E23F" stroke-width="5.28058"/>
<path d="M205.045 137.032L100.604 138.4C98.5035 138.427 96.5717 137.623 95.2334 136.164C93.895 134.706 93.2599 132.712 93.4678 130.621C93.6758 128.531 94.7096 126.515 96.342 125.018C97.9744 123.52 100.071 122.663 102.172 122.636L206.613 121.268C208.713 121.241 210.645 122.045 211.984 123.504C213.322 124.962 213.957 126.956 213.749 129.047C213.541 131.137 212.507 133.153 210.875 134.65C209.243 136.148 207.146 137.005 205.045 137.032Z" fill="#C2E23F" stroke="#C2E23F" stroke-width="5.28058"/>
<path d="M184.121 178.816L96.4713 179.963C94.3707 179.99 92.4389 179.186 91.1005 177.728C89.7622 176.269 89.1271 174.275 89.335 172.185C89.5429 170.094 90.5768 168.079 92.2092 166.581C93.8416 165.083 95.9386 164.227 98.0392 164.199L185.689 163.052C187.79 163.024 189.722 163.828 191.06 165.287C192.398 166.746 193.033 168.74 192.826 170.83C192.618 172.92 191.584 174.936 189.951 176.434C188.319 177.931 186.222 178.788 184.121 178.816Z" fill="#C2E23F" stroke="#C2E23F" stroke-width="5.28058"/>
<path d="M309.119 140.029C306.256 143.265 302.341 146.824 298.267 146.877L288.749 147.002C282.569 147.083 277.912 141.819 281.439 136.332C283.78 132.772 286.425 129.678 289.374 127.051C292.452 124.304 295.46 121.677 298.397 119.167C301.452 116.657 304.056 113.975 306.209 111.123C308.48 108.27 309.756 105.429 310.037 102.602C310.717 95.7689 306.727 92.4091 298.067 92.5225C294.478 92.5695 291.182 93.5094 288.179 95.3422C280.761 99.8692 271.711 104.076 264.961 100.043C259.184 96.5909 257.279 88.8127 262.222 83.1858C265.738 79.1835 269.806 75.7513 274.426 72.8892C282.887 67.7192 292.033 65.0698 301.862 64.9412C312.628 64.8002 321.673 67.8585 328.998 74.1161C336.322 80.3737 339.445 88.9218 338.367 99.7603C337.887 104.59 336.441 109.139 334.03 113.406C331.736 117.672 329.038 121.296 325.937 124.278C322.952 127.258 319.933 130.004 316.879 132.515C313.941 135.024 311.355 137.529 309.119 140.029ZM305.305 176.611C304.848 181.206 302.818 185.174 299.213 188.515C295.608 191.857 291.524 193.558 286.961 193.617C282.397 193.677 278.641 192.079 275.692 188.823C272.744 185.567 271.498 181.642 271.955 177.048C272.412 172.453 274.443 168.485 278.048 165.143C281.652 161.802 285.736 160.101 290.3 160.041C294.864 159.982 298.62 161.58 301.568 164.836C304.517 168.091 305.762 172.017 305.305 176.611Z" fill="#BEC0C2"/>
<path d="M307.76 136.551C304.867 139.787 300.91 143.347 296.789 143.401L287.16 143.527C280.908 143.609 276.191 138.346 279.753 132.859C282.117 129.298 284.789 126.204 287.77 123.576C290.88 120.83 293.92 118.201 296.889 115.692C299.976 113.181 302.607 110.499 304.783 107.647C307.077 104.793 308.364 101.952 308.645 99.1248C309.325 92.2918 305.285 88.9326 296.524 89.0473C292.893 89.0948 289.56 90.0352 286.524 91.8685C279.024 96.3966 269.874 100.605 263.04 96.5724C257.192 93.1216 255.256 85.3438 260.25 79.7162C263.802 75.7135 267.914 72.2807 272.585 69.4179C281.139 64.2467 290.388 61.596 300.332 61.4658C311.223 61.3232 320.377 64.3801 327.794 70.6365C335.211 76.8929 338.381 85.4403 337.303 96.2788C336.822 101.109 335.365 105.658 332.931 109.925C330.615 114.191 327.89 117.816 324.756 120.798C321.74 123.779 318.688 126.525 315.601 129.036C312.632 131.546 310.019 134.051 307.76 136.551ZM303.944 173.134C303.487 177.728 301.437 181.696 297.795 185.039C294.152 188.381 290.022 190.082 285.405 190.142C280.788 190.203 276.987 188.605 274 185.35C271.014 182.095 269.749 178.17 270.206 173.575C270.663 168.981 272.713 165.012 276.355 161.67C279.998 158.328 284.128 156.627 288.745 156.566C293.362 156.506 297.163 158.103 300.15 161.359C303.137 164.614 304.401 168.539 303.944 173.134Z" fill="#C2E23F"/>
</svg>
