<svg width="258" height="190" viewBox="0 0 258 190" fill="none" xmlns="http://www.w3.org/2000/svg">
<path d="M20 19C20 13.4772 24.4772 9 30 9H100C105.523 9 110 13.4772 110 19V57H20V19Z" fill="#232C32"/>
<path d="M2 189V107.452C2 90.5715 15.6841 76.8873 32.5644 76.8873V76.8873C32.9089 76.8873 33.1881 76.6081 33.1881 76.2636V45C33.1881 42.7909 34.979 41 37.1881 41H91.5644C93.7735 41 95.5644 42.7909 95.5644 45V76.4841C95.5644 76.7068 95.7449 76.8873 95.9676 76.8873V76.8873C113.659 76.8873 128 91.2287 128 108.92V189" stroke="white"/>
<path d="M1.5 107.452V189H127.5V108.92C127.5 91.2287 113.159 76.8873 95.4676 76.8873C95.2449 76.8873 95.0644 76.7068 95.0644 76.4841V45C95.0644 42.7909 93.2735 41 91.0644 41H36.6881C34.479 41 32.6881 42.7909 32.6881 45V76.2636C32.6881 76.6081 32.4089 76.8873 32.0644 76.8873C15.1841 76.8873 1.5 90.5715 1.5 107.452Z" fill="url(#paint0_linear_1904_14267)"/>
<rect x="95.7422" y="43.478" width="4" height="4" fill="white"/>
<rect x="29.1992" y="43.4775" width="4" height="4" fill="white"/>
<rect x="29.1992" y="56.5151" width="4" height="4" fill="white"/>
<rect x="95.7422" y="56.5151" width="4" height="4" fill="white"/>
<path d="M20 65V27C20 21.4772 24.4772 17 30 17H100C105.523 17 110 21.4772 110 27V65" stroke="white"/>
<rect x="33" y="23" width="63" height="4" fill="#BCACAF"/>
<rect x="33" y="31" width="63" height="4" fill="#E1E4EB"/>
<rect x="106" y="37.0195" width="4" height="4.10672" fill="white"/>
<rect x="20" y="37.0186" width="4" height="4.10672" fill="white"/>
<rect x="106" y="50.9517" width="4" height="4.10672" fill="white"/>
<rect x="20" y="50.9507" width="4" height="4.10672" fill="white"/>
<circle cx="97" cy="25" r="3" fill="#C2E23F"/>
<path d="M100 25L132 25" stroke="white"/>
<path d="M144.884 31.144C143.612 31.144 142.56 30.724 141.728 29.884C140.896 29.044 140.48 28.016 140.48 26.8C140.48 25.584 140.896 24.556 141.728 23.716C142.56 22.876 143.612 22.456 144.884 22.456C145.66 22.456 146.372 22.644 147.02 23.02C147.668 23.388 148.168 23.888 148.52 24.52L147.776 24.952C147.512 24.44 147.12 24.032 146.6 23.728C146.08 23.424 145.508 23.272 144.884 23.272C143.836 23.272 142.98 23.612 142.316 24.292C141.652 24.972 141.32 25.808 141.32 26.8C141.32 27.792 141.652 28.628 142.316 29.308C142.98 29.988 143.836 30.328 144.884 30.328C145.508 30.328 146.08 30.176 146.6 29.872C147.12 29.568 147.512 29.16 147.776 28.648L148.52 29.068C148.176 29.7 147.676 30.204 147.02 30.58C146.372 30.956 145.66 31.144 144.884 31.144ZM154.821 25V31H154.029V25.768H150.573V31H149.781V25H154.821ZM161.656 25H162.448V31H161.656V29.824C161.104 30.704 160.296 31.144 159.232 31.144C158.376 31.144 157.644 30.84 157.036 30.232C156.436 29.624 156.136 28.88 156.136 28C156.136 27.12 156.436 26.376 157.036 25.768C157.644 25.16 158.376 24.856 159.232 24.856C160.296 24.856 161.104 25.296 161.656 26.176V25ZM157.612 29.692C158.068 30.148 158.628 30.376 159.292 30.376C159.956 30.376 160.516 30.148 160.972 29.692C161.428 29.228 161.656 28.664 161.656 28C161.656 27.336 161.428 26.776 160.972 26.32C160.516 25.856 159.956 25.624 159.292 25.624C158.628 25.624 158.068 25.856 157.612 26.32C157.156 26.776 156.928 27.336 156.928 28C156.928 28.664 157.156 29.228 157.612 29.692ZM168.493 25H169.165V31H168.373V26.38L164.797 31H164.125V25H164.917V29.62L168.493 25ZM174.656 27.916C175.312 28.156 175.64 28.624 175.64 29.32C175.64 29.808 175.476 30.212 175.148 30.532C174.828 30.844 174.364 31 173.756 31H170.84V25H173.516C174.1 25 174.552 25.152 174.872 25.456C175.192 25.752 175.352 26.136 175.352 26.608C175.352 27.208 175.12 27.644 174.656 27.916ZM173.516 25.768H171.632V27.592H173.516C174.212 27.592 174.56 27.28 174.56 26.656C174.56 26.376 174.468 26.16 174.284 26.008C174.108 25.848 173.852 25.768 173.516 25.768ZM173.756 30.232C174.108 30.232 174.376 30.148 174.56 29.98C174.752 29.812 174.848 29.576 174.848 29.272C174.848 28.992 174.752 28.772 174.56 28.612C174.376 28.444 174.108 28.36 173.756 28.36H171.632V30.232H173.756ZM182 25H182.792V31H182V29.824C181.448 30.704 180.64 31.144 179.576 31.144C178.72 31.144 177.988 30.84 177.38 30.232C176.78 29.624 176.48 28.88 176.48 28C176.48 27.12 176.78 26.376 177.38 25.768C177.988 25.16 178.72 24.856 179.576 24.856C180.64 24.856 181.448 25.296 182 26.176V25ZM177.956 29.692C178.412 30.148 178.972 30.376 179.636 30.376C180.3 30.376 180.86 30.148 181.316 29.692C181.772 29.228 182 28.664 182 28C182 27.336 181.772 26.776 181.316 26.32C180.86 25.856 180.3 25.624 179.636 25.624C178.972 25.624 178.412 25.856 177.956 26.32C177.5 26.776 177.272 27.336 177.272 28C177.272 28.664 177.5 29.228 177.956 29.692ZM189.593 24.856C190.473 24.856 191.217 25.16 191.825 25.768C192.441 26.368 192.749 27.112 192.749 28C192.749 28.888 192.441 29.636 191.825 30.244C191.217 30.844 190.473 31.144 189.593 31.144C188.785 31.144 188.089 30.884 187.505 30.364C186.929 29.836 186.597 29.176 186.509 28.384H185.261V31H184.469V25H185.261V27.616H186.509C186.597 26.824 186.929 26.168 187.505 25.648C188.089 25.12 188.785 24.856 189.593 24.856ZM187.913 29.692C188.369 30.148 188.929 30.376 189.593 30.376C190.257 30.376 190.817 30.148 191.273 29.692C191.729 29.228 191.957 28.664 191.957 28C191.957 27.336 191.729 26.776 191.273 26.32C190.817 25.856 190.257 25.624 189.593 25.624C188.929 25.624 188.369 25.856 187.913 26.32C187.457 26.776 187.229 27.336 187.229 28C187.229 28.664 187.457 29.228 187.913 29.692ZM202.107 30.232H202.947V32.608H202.155V31H194.067V25H194.859V30.232H197.691V25H198.483V30.232H201.315V25H202.107V30.232ZM208.513 25H209.185V31H208.393V26.38L204.817 31H204.145V25H204.937V29.62L208.513 25ZM211.82 24.04V23.344H214.94V24.04H211.82ZM215.228 25H215.9V31H215.108V26.38L211.532 31H210.86V25H211.652V29.62L215.228 25ZM223.37 31.144C222.466 31.144 221.714 30.844 221.114 30.244C220.514 29.636 220.214 28.888 220.214 28C220.214 27.112 220.514 26.368 221.114 25.768C221.714 25.16 222.466 24.856 223.37 24.856C223.962 24.856 224.494 25 224.966 25.288C225.438 25.568 225.782 25.948 225.998 26.428L225.35 26.8C225.19 26.44 224.93 26.156 224.57 25.948C224.218 25.732 223.818 25.624 223.37 25.624C222.706 25.624 222.146 25.856 221.69 26.32C221.234 26.776 221.006 27.336 221.006 28C221.006 28.664 221.234 29.228 221.69 29.692C222.146 30.148 222.706 30.376 223.37 30.376C223.818 30.376 224.218 30.272 224.57 30.064C224.922 29.848 225.198 29.56 225.398 29.2L226.058 29.584C225.81 30.064 225.446 30.444 224.966 30.724C224.486 31.004 223.954 31.144 223.37 31.144ZM231.998 25V31H231.206V25.768H228.494V28.444C228.494 29.444 228.302 30.132 227.918 30.508C227.542 30.884 227.022 31.048 226.358 31V30.256C226.814 30.304 227.15 30.196 227.366 29.932C227.59 29.668 227.702 29.172 227.702 28.444V25H231.998ZM238.704 30.244C238.096 30.844 237.352 31.144 236.472 31.144C235.592 31.144 234.844 30.844 234.228 30.244C233.62 29.636 233.316 28.888 233.316 28C233.316 27.112 233.62 26.368 234.228 25.768C234.844 25.16 235.592 24.856 236.472 24.856C237.352 24.856 238.096 25.16 238.704 25.768C239.32 26.368 239.628 27.112 239.628 28C239.628 28.888 239.32 29.636 238.704 30.244ZM234.792 29.692C235.248 30.148 235.808 30.376 236.472 30.376C237.136 30.376 237.696 30.148 238.152 29.692C238.608 29.228 238.836 28.664 238.836 28C238.836 27.336 238.608 26.776 238.152 26.32C237.696 25.856 237.136 25.624 236.472 25.624C235.808 25.624 235.248 25.856 234.792 26.32C234.336 26.776 234.108 27.336 234.108 28C234.108 28.664 234.336 29.228 234.792 29.692ZM241.913 24.04V23.344H245.033V24.04H241.913ZM245.321 25H245.993V31H245.201V26.38L241.625 31H240.953V25H241.745V29.62L245.321 25Z" fill="white"/>
<circle cx="97" cy="33" r="3" fill="#C2E23F"/>
<path d="M99 34L131.5 44.5" stroke="white"/>
<path d="M148.172 44.472C148.916 45.032 149.288 45.808 149.288 46.8C149.288 47.792 148.916 48.568 148.172 49.128C147.436 49.688 146.46 49.996 145.244 50.052V51H144.404V50.052C143.188 49.996 142.208 49.688 141.464 49.128C140.728 48.568 140.36 47.792 140.36 46.8C140.36 45.808 140.728 45.032 141.464 44.472C142.208 43.912 143.188 43.604 144.404 43.548V42.6H145.244V43.548C146.46 43.604 147.436 43.912 148.172 44.472ZM142.064 45.024C141.488 45.44 141.2 46.032 141.2 46.8C141.2 47.568 141.488 48.164 142.064 48.588C142.64 49.004 143.42 49.236 144.404 49.284V44.316C143.42 44.364 142.64 44.6 142.064 45.024ZM145.244 49.284C146.228 49.236 147.008 49.004 147.584 48.588C148.16 48.164 148.448 47.568 148.448 46.8C148.448 46.032 148.16 45.44 147.584 45.024C147.008 44.6 146.228 44.364 145.244 44.316V49.284ZM155.513 50.244C154.905 50.844 154.161 51.144 153.281 51.144C152.401 51.144 151.653 50.844 151.037 50.244C150.429 49.636 150.125 48.888 150.125 48C150.125 47.112 150.429 46.368 151.037 45.768C151.653 45.16 152.401 44.856 153.281 44.856C154.161 44.856 154.905 45.16 155.513 45.768C156.129 46.368 156.437 47.112 156.437 48C156.437 48.888 156.129 49.636 155.513 50.244ZM151.601 49.692C152.057 50.148 152.617 50.376 153.281 50.376C153.945 50.376 154.505 50.148 154.961 49.692C155.417 49.228 155.645 48.664 155.645 48C155.645 47.336 155.417 46.776 154.961 46.32C154.505 45.856 153.945 45.624 153.281 45.624C152.617 45.624 152.057 45.856 151.601 46.32C151.145 46.776 150.917 47.336 150.917 48C150.917 48.664 151.145 49.228 151.601 49.692ZM162.448 45V51H161.656V45.768H158.944V48.444C158.944 49.444 158.752 50.132 158.368 50.508C157.992 50.884 157.472 51.048 156.808 51V50.256C157.264 50.304 157.6 50.196 157.816 49.932C158.04 49.668 158.152 49.172 158.152 48.444V45H162.448ZM166.561 47.28C167.121 47.28 167.593 47.456 167.977 47.808C168.369 48.152 168.565 48.596 168.565 49.14C168.565 49.684 168.369 50.132 167.977 50.484C167.593 50.828 167.121 51 166.561 51H164.125V45H164.917V47.28H166.561ZM166.561 50.232C166.897 50.232 167.181 50.132 167.413 49.932C167.653 49.732 167.773 49.468 167.773 49.14C167.773 48.812 167.653 48.548 167.413 48.348C167.181 48.148 166.897 48.048 166.561 48.048H164.917V50.232H166.561ZM173.602 45V45.768H170.554V51H169.762V45H173.602ZM179.492 45H180.284V51H179.492V49.824C178.94 50.704 178.132 51.144 177.068 51.144C176.212 51.144 175.48 50.84 174.872 50.232C174.272 49.624 173.972 48.88 173.972 48C173.972 47.12 174.272 46.376 174.872 45.768C175.48 45.16 176.212 44.856 177.068 44.856C178.132 44.856 178.94 45.296 179.492 46.176V45ZM175.448 49.692C175.904 50.148 176.464 50.376 177.128 50.376C177.792 50.376 178.352 50.148 178.808 49.692C179.264 49.228 179.492 48.664 179.492 48C179.492 47.336 179.264 46.776 178.808 46.32C178.352 45.856 177.792 45.624 177.128 45.624C176.464 45.624 175.904 45.856 175.448 46.32C174.992 46.776 174.764 47.336 174.764 48C174.764 48.664 174.992 49.228 175.448 49.692Z" fill="white"/>
<defs>
<linearGradient id="paint0_linear_1904_14267" x1="64.5" y1="41" x2="64.5" y2="189" gradientUnits="userSpaceOnUse">
<stop stop-color="white" stop-opacity="0.15"/>
<stop offset="1" stop-color="white" stop-opacity="0"/>
</linearGradient>
</defs>
</svg>
