<svg width="256" height="192" viewBox="0 0 256 192" fill="none" xmlns="http://www.w3.org/2000/svg">
<path d="M2 191V109.452C2 92.5715 15.6841 78.8873 32.5644 78.8873V78.8873C32.9089 78.8873 33.1881 78.6081 33.1881 78.2636V47C33.1881 44.7909 34.979 43 37.1881 43H91.5644C93.7735 43 95.5644 44.7909 95.5644 47V78.4841C95.5644 78.7068 95.7449 78.8873 95.9676 78.8873V78.8873C113.659 78.8873 128 93.2287 128 110.92V191" stroke="white"/>
<path d="M1.5 109.452V191H127.5V110.92C127.5 93.2287 113.159 78.8873 95.4676 78.8873C95.2449 78.8873 95.0644 78.7068 95.0644 78.4841V47C95.0644 44.7909 93.2735 43 91.0644 43H36.6881C34.479 43 32.6881 44.7909 32.6881 47V78.2636C32.6881 78.6081 32.4089 78.8873 32.0644 78.8873C15.1841 78.8873 1.5 92.5715 1.5 109.452Z" fill="url(#paint0_linear_1904_14297)"/>
<rect x="95.7422" y="45.478" width="4" height="4" fill="white"/>
<rect x="29.1992" y="45.4775" width="4" height="4" fill="white"/>
<rect x="29.1992" y="58.5151" width="4" height="4" fill="white"/>
<rect x="95.7422" y="58.5151" width="4" height="4" fill="white"/>
<path d="M20 49.2486V10.9946C20 5.47179 24.4772 0.994629 30 0.994629H100C105.523 0.994629 110 5.47178 110 10.9946V49.2486" stroke="white"/>
<rect x="34" y="27" width="62" height="4" fill="#BCACAF"/>
<rect x="34" y="33" width="62" height="4" fill="#E1E4EB"/>
<rect x="106" y="21.0195" width="4" height="4.10672" fill="white"/>
<rect x="20" y="21.0186" width="4" height="4.10672" fill="white"/>
<rect x="106" y="34.9517" width="4" height="4.10672" fill="white"/>
<rect x="20" y="34.9507" width="4" height="4.10672" fill="white"/>
<circle cx="95" cy="29" r="3" fill="#C2E23F"/>
<path d="M98 29L130 29" stroke="white"/>
<path d="M142.884 35.144C141.612 35.144 140.56 34.724 139.728 33.884C138.896 33.044 138.48 32.016 138.48 30.8C138.48 29.584 138.896 28.556 139.728 27.716C140.56 26.876 141.612 26.456 142.884 26.456C143.66 26.456 144.372 26.644 145.02 27.02C145.668 27.388 146.168 27.888 146.52 28.52L145.776 28.952C145.512 28.44 145.12 28.032 144.6 27.728C144.08 27.424 143.508 27.272 142.884 27.272C141.836 27.272 140.98 27.612 140.316 28.292C139.652 28.972 139.32 29.808 139.32 30.8C139.32 31.792 139.652 32.628 140.316 33.308C140.98 33.988 141.836 34.328 142.884 34.328C143.508 34.328 144.08 34.176 144.6 33.872C145.12 33.568 145.512 33.16 145.776 32.648L146.52 33.068C146.176 33.7 145.676 34.204 145.02 34.58C144.372 34.956 143.66 35.144 142.884 35.144ZM152.821 29V35H152.029V29.768H148.573V35H147.781V29H152.821ZM159.656 29H160.448V35H159.656V33.824C159.104 34.704 158.296 35.144 157.232 35.144C156.376 35.144 155.644 34.84 155.036 34.232C154.436 33.624 154.136 32.88 154.136 32C154.136 31.12 154.436 30.376 155.036 29.768C155.644 29.16 156.376 28.856 157.232 28.856C158.296 28.856 159.104 29.296 159.656 30.176V29ZM155.612 33.692C156.068 34.148 156.628 34.376 157.292 34.376C157.956 34.376 158.516 34.148 158.972 33.692C159.428 33.228 159.656 32.664 159.656 32C159.656 31.336 159.428 30.776 158.972 30.32C158.516 29.856 157.956 29.624 157.292 29.624C156.628 29.624 156.068 29.856 155.612 30.32C155.156 30.776 154.928 31.336 154.928 32C154.928 32.664 155.156 33.228 155.612 33.692ZM166.493 29H167.165V35H166.373V30.38L162.797 35H162.125V29H162.917V33.62L166.493 29ZM172.656 31.916C173.312 32.156 173.64 32.624 173.64 33.32C173.64 33.808 173.476 34.212 173.148 34.532C172.828 34.844 172.364 35 171.756 35H168.84V29H171.516C172.1 29 172.552 29.152 172.872 29.456C173.192 29.752 173.352 30.136 173.352 30.608C173.352 31.208 173.12 31.644 172.656 31.916ZM171.516 29.768H169.632V31.592H171.516C172.212 31.592 172.56 31.28 172.56 30.656C172.56 30.376 172.468 30.16 172.284 30.008C172.108 29.848 171.852 29.768 171.516 29.768ZM171.756 34.232C172.108 34.232 172.376 34.148 172.56 33.98C172.752 33.812 172.848 33.576 172.848 33.272C172.848 32.992 172.752 32.772 172.56 32.612C172.376 32.444 172.108 32.36 171.756 32.36H169.632V34.232H171.756ZM180 29H180.792V35H180V33.824C179.448 34.704 178.64 35.144 177.576 35.144C176.72 35.144 175.988 34.84 175.38 34.232C174.78 33.624 174.48 32.88 174.48 32C174.48 31.12 174.78 30.376 175.38 29.768C175.988 29.16 176.72 28.856 177.576 28.856C178.64 28.856 179.448 29.296 180 30.176V29ZM175.956 33.692C176.412 34.148 176.972 34.376 177.636 34.376C178.3 34.376 178.86 34.148 179.316 33.692C179.772 33.228 180 32.664 180 32C180 31.336 179.772 30.776 179.316 30.32C178.86 29.856 178.3 29.624 177.636 29.624C176.972 29.624 176.412 29.856 175.956 30.32C175.5 30.776 175.272 31.336 175.272 32C175.272 32.664 175.5 33.228 175.956 33.692ZM187.593 28.856C188.473 28.856 189.217 29.16 189.825 29.768C190.441 30.368 190.749 31.112 190.749 32C190.749 32.888 190.441 33.636 189.825 34.244C189.217 34.844 188.473 35.144 187.593 35.144C186.785 35.144 186.089 34.884 185.505 34.364C184.929 33.836 184.597 33.176 184.509 32.384H183.261V35H182.469V29H183.261V31.616H184.509C184.597 30.824 184.929 30.168 185.505 29.648C186.089 29.12 186.785 28.856 187.593 28.856ZM185.913 33.692C186.369 34.148 186.929 34.376 187.593 34.376C188.257 34.376 188.817 34.148 189.273 33.692C189.729 33.228 189.957 32.664 189.957 32C189.957 31.336 189.729 30.776 189.273 30.32C188.817 29.856 188.257 29.624 187.593 29.624C186.929 29.624 186.369 29.856 185.913 30.32C185.457 30.776 185.229 31.336 185.229 32C185.229 32.664 185.457 33.228 185.913 33.692ZM200.107 34.232H200.947V36.608H200.155V35H192.067V29H192.859V34.232H195.691V29H196.483V34.232H199.315V29H200.107V34.232ZM206.513 29H207.185V35H206.393V30.38L202.817 35H202.145V29H202.937V33.62L206.513 29ZM209.82 28.04V27.344H212.94V28.04H209.82ZM213.228 29H213.9V35H213.108V30.38L209.532 35H208.86V29H209.652V33.62L213.228 29ZM221.37 35.144C220.466 35.144 219.714 34.844 219.114 34.244C218.514 33.636 218.214 32.888 218.214 32C218.214 31.112 218.514 30.368 219.114 29.768C219.714 29.16 220.466 28.856 221.37 28.856C221.962 28.856 222.494 29 222.966 29.288C223.438 29.568 223.782 29.948 223.998 30.428L223.35 30.8C223.19 30.44 222.93 30.156 222.57 29.948C222.218 29.732 221.818 29.624 221.37 29.624C220.706 29.624 220.146 29.856 219.69 30.32C219.234 30.776 219.006 31.336 219.006 32C219.006 32.664 219.234 33.228 219.69 33.692C220.146 34.148 220.706 34.376 221.37 34.376C221.818 34.376 222.218 34.272 222.57 34.064C222.922 33.848 223.198 33.56 223.398 33.2L224.058 33.584C223.81 34.064 223.446 34.444 222.966 34.724C222.486 35.004 221.954 35.144 221.37 35.144ZM229.998 29V35H229.206V29.768H226.494V32.444C226.494 33.444 226.302 34.132 225.918 34.508C225.542 34.884 225.022 35.048 224.358 35V34.256C224.814 34.304 225.15 34.196 225.366 33.932C225.59 33.668 225.702 33.172 225.702 32.444V29H229.998ZM236.704 34.244C236.096 34.844 235.352 35.144 234.472 35.144C233.592 35.144 232.844 34.844 232.228 34.244C231.62 33.636 231.316 32.888 231.316 32C231.316 31.112 231.62 30.368 232.228 29.768C232.844 29.16 233.592 28.856 234.472 28.856C235.352 28.856 236.096 29.16 236.704 29.768C237.32 30.368 237.628 31.112 237.628 32C237.628 32.888 237.32 33.636 236.704 34.244ZM232.792 33.692C233.248 34.148 233.808 34.376 234.472 34.376C235.136 34.376 235.696 34.148 236.152 33.692C236.608 33.228 236.836 32.664 236.836 32C236.836 31.336 236.608 30.776 236.152 30.32C235.696 29.856 235.136 29.624 234.472 29.624C233.808 29.624 233.248 29.856 232.792 30.32C232.336 30.776 232.108 31.336 232.108 32C232.108 32.664 232.336 33.228 232.792 33.692ZM239.913 28.04V27.344H243.033V28.04H239.913ZM243.321 29H243.993V35H243.201V30.38L239.625 35H238.953V29H239.745V33.62L243.321 29Z" fill="white"/>
<path d="M97 37L129.5 47.5" stroke="white"/>
<path d="M146.172 47.472C146.916 48.032 147.288 48.808 147.288 49.8C147.288 50.792 146.916 51.568 146.172 52.128C145.436 52.688 144.46 52.996 143.244 53.052V54H142.404V53.052C141.188 52.996 140.208 52.688 139.464 52.128C138.728 51.568 138.36 50.792 138.36 49.8C138.36 48.808 138.728 48.032 139.464 47.472C140.208 46.912 141.188 46.604 142.404 46.548V45.6H143.244V46.548C144.46 46.604 145.436 46.912 146.172 47.472ZM140.064 48.024C139.488 48.44 139.2 49.032 139.2 49.8C139.2 50.568 139.488 51.164 140.064 51.588C140.64 52.004 141.42 52.236 142.404 52.284V47.316C141.42 47.364 140.64 47.6 140.064 48.024ZM143.244 52.284C144.228 52.236 145.008 52.004 145.584 51.588C146.16 51.164 146.448 50.568 146.448 49.8C146.448 49.032 146.16 48.44 145.584 48.024C145.008 47.6 144.228 47.364 143.244 47.316V52.284ZM153.513 53.244C152.905 53.844 152.161 54.144 151.281 54.144C150.401 54.144 149.653 53.844 149.037 53.244C148.429 52.636 148.125 51.888 148.125 51C148.125 50.112 148.429 49.368 149.037 48.768C149.653 48.16 150.401 47.856 151.281 47.856C152.161 47.856 152.905 48.16 153.513 48.768C154.129 49.368 154.437 50.112 154.437 51C154.437 51.888 154.129 52.636 153.513 53.244ZM149.601 52.692C150.057 53.148 150.617 53.376 151.281 53.376C151.945 53.376 152.505 53.148 152.961 52.692C153.417 52.228 153.645 51.664 153.645 51C153.645 50.336 153.417 49.776 152.961 49.32C152.505 48.856 151.945 48.624 151.281 48.624C150.617 48.624 150.057 48.856 149.601 49.32C149.145 49.776 148.917 50.336 148.917 51C148.917 51.664 149.145 52.228 149.601 52.692ZM160.448 48V54H159.656V48.768H156.944V51.444C156.944 52.444 156.752 53.132 156.368 53.508C155.992 53.884 155.472 54.048 154.808 54V53.256C155.264 53.304 155.6 53.196 155.816 52.932C156.04 52.668 156.152 52.172 156.152 51.444V48H160.448ZM164.561 50.28C165.121 50.28 165.593 50.456 165.977 50.808C166.369 51.152 166.565 51.596 166.565 52.14C166.565 52.684 166.369 53.132 165.977 53.484C165.593 53.828 165.121 54 164.561 54H162.125V48H162.917V50.28H164.561ZM164.561 53.232C164.897 53.232 165.181 53.132 165.413 52.932C165.653 52.732 165.773 52.468 165.773 52.14C165.773 51.812 165.653 51.548 165.413 51.348C165.181 51.148 164.897 51.048 164.561 51.048H162.917V53.232H164.561ZM171.602 48V48.768H168.554V54H167.762V48H171.602ZM177.492 48H178.284V54H177.492V52.824C176.94 53.704 176.132 54.144 175.068 54.144C174.212 54.144 173.48 53.84 172.872 53.232C172.272 52.624 171.972 51.88 171.972 51C171.972 50.12 172.272 49.376 172.872 48.768C173.48 48.16 174.212 47.856 175.068 47.856C176.132 47.856 176.94 48.296 177.492 49.176V48ZM173.448 52.692C173.904 53.148 174.464 53.376 175.128 53.376C175.792 53.376 176.352 53.148 176.808 52.692C177.264 52.228 177.492 51.664 177.492 51C177.492 50.336 177.264 49.776 176.808 49.32C176.352 48.856 175.792 48.624 175.128 48.624C174.464 48.624 173.904 48.856 173.448 49.32C172.992 49.776 172.764 50.336 172.764 51C172.764 51.664 172.992 52.228 173.448 52.692Z" fill="white"/>
<circle cx="95" cy="36" r="3" fill="#C2E23F"/>
<defs>
<linearGradient id="paint0_linear_1904_14297" x1="64.5" y1="43" x2="64.5" y2="191" gradientUnits="userSpaceOnUse">
<stop stop-color="white" stop-opacity="0.15"/>
<stop offset="1" stop-color="white" stop-opacity="0"/>
</linearGradient>
</defs>
</svg>
