<svg width="257" height="190" viewBox="0 0 257 190" fill="none" xmlns="http://www.w3.org/2000/svg">
<path d="M20 19C20 13.4772 24.4772 9 30 9H100C105.523 9 110 13.4772 110 19V57H20V19Z" fill="#232C32"/>
<path d="M2 189V107.452C2 90.5715 15.6841 76.8873 32.5644 76.8873V76.8873C32.9089 76.8873 33.1881 76.6081 33.1881 76.2636V45C33.1881 42.7909 34.979 41 37.1881 41H91.5644C93.7735 41 95.5644 42.7909 95.5644 45V76.4841C95.5644 76.7068 95.7449 76.8873 95.9676 76.8873V76.8873C113.659 76.8873 128 91.2287 128 108.92V189" stroke="white"/>
<path d="M2.5 107.452V189H128.5V108.92C128.5 91.2287 114.159 76.8873 96.4676 76.8873C96.2449 76.8873 96.0644 76.7068 96.0644 76.4841V45C96.0644 42.7909 94.2735 41 92.0644 41H37.6881C35.479 41 33.6881 42.7909 33.6881 45V76.2636C33.6881 76.6081 33.4089 76.8873 33.0644 76.8873C16.1841 76.8873 2.5 90.5715 2.5 107.452Z" fill="url(#paint0_linear_1911_14444)"/>
<rect x="95.7422" y="43.478" width="4" height="4" fill="white"/>
<rect x="29.1992" y="43.4775" width="4" height="4" fill="white"/>
<rect x="29.1992" y="56.5151" width="4" height="4" fill="white"/>
<rect x="95.7422" y="56.5151" width="4" height="4" fill="white"/>
<path d="M20 65V27C20 21.4772 24.4772 17 30 17H100C105.523 17 110 21.4772 110 27V65" stroke="white"/>
<rect x="106" y="37.0195" width="4" height="4.10672" fill="white"/>
<rect x="20" y="37.0186" width="4" height="4.10672" fill="white"/>
<rect x="106" y="50.9517" width="4" height="4.10672" fill="white"/>
<rect x="20" y="50.9507" width="4" height="4.10672" fill="white"/>
<rect x="34.5" y="21" width="62" height="4" fill="#BCACAF"/>
<rect x="34.5" y="27" width="62" height="4" fill="#E0D69E"/>
<rect x="34.5" y="33" width="62" height="4" fill="#EAEBE7"/>
<circle cx="96" cy="23" r="3" fill="#C2E23F"/>
<path d="M99 23L131 23" stroke="white"/>
<path d="M143.884 29.144C142.612 29.144 141.56 28.724 140.728 27.884C139.896 27.044 139.48 26.016 139.48 24.8C139.48 23.584 139.896 22.556 140.728 21.716C141.56 20.876 142.612 20.456 143.884 20.456C144.66 20.456 145.372 20.644 146.02 21.02C146.668 21.388 147.168 21.888 147.52 22.52L146.776 22.952C146.512 22.44 146.12 22.032 145.6 21.728C145.08 21.424 144.508 21.272 143.884 21.272C142.836 21.272 141.98 21.612 141.316 22.292C140.652 22.972 140.32 23.808 140.32 24.8C140.32 25.792 140.652 26.628 141.316 27.308C141.98 27.988 142.836 28.328 143.884 28.328C144.508 28.328 145.08 28.176 145.6 27.872C146.12 27.568 146.512 27.16 146.776 26.648L147.52 27.068C147.176 27.7 146.676 28.204 146.02 28.58C145.372 28.956 144.66 29.144 143.884 29.144ZM153.821 23V29H153.029V23.768H149.573V29H148.781V23H153.821ZM160.656 23H161.448V29H160.656V27.824C160.104 28.704 159.296 29.144 158.232 29.144C157.376 29.144 156.644 28.84 156.036 28.232C155.436 27.624 155.136 26.88 155.136 26C155.136 25.12 155.436 24.376 156.036 23.768C156.644 23.16 157.376 22.856 158.232 22.856C159.296 22.856 160.104 23.296 160.656 24.176V23ZM156.612 27.692C157.068 28.148 157.628 28.376 158.292 28.376C158.956 28.376 159.516 28.148 159.972 27.692C160.428 27.228 160.656 26.664 160.656 26C160.656 25.336 160.428 24.776 159.972 24.32C159.516 23.856 158.956 23.624 158.292 23.624C157.628 23.624 157.068 23.856 156.612 24.32C156.156 24.776 155.928 25.336 155.928 26C155.928 26.664 156.156 27.228 156.612 27.692ZM167.493 23H168.165V29H167.373V24.38L163.797 29H163.125V23H163.917V27.62L167.493 23ZM173.656 25.916C174.312 26.156 174.64 26.624 174.64 27.32C174.64 27.808 174.476 28.212 174.148 28.532C173.828 28.844 173.364 29 172.756 29H169.84V23H172.516C173.1 23 173.552 23.152 173.872 23.456C174.192 23.752 174.352 24.136 174.352 24.608C174.352 25.208 174.12 25.644 173.656 25.916ZM172.516 23.768H170.632V25.592H172.516C173.212 25.592 173.56 25.28 173.56 24.656C173.56 24.376 173.468 24.16 173.284 24.008C173.108 23.848 172.852 23.768 172.516 23.768ZM172.756 28.232C173.108 28.232 173.376 28.148 173.56 27.98C173.752 27.812 173.848 27.576 173.848 27.272C173.848 26.992 173.752 26.772 173.56 26.612C173.376 26.444 173.108 26.36 172.756 26.36H170.632V28.232H172.756ZM181 23H181.792V29H181V27.824C180.448 28.704 179.64 29.144 178.576 29.144C177.72 29.144 176.988 28.84 176.38 28.232C175.78 27.624 175.48 26.88 175.48 26C175.48 25.12 175.78 24.376 176.38 23.768C176.988 23.16 177.72 22.856 178.576 22.856C179.64 22.856 180.448 23.296 181 24.176V23ZM176.956 27.692C177.412 28.148 177.972 28.376 178.636 28.376C179.3 28.376 179.86 28.148 180.316 27.692C180.772 27.228 181 26.664 181 26C181 25.336 180.772 24.776 180.316 24.32C179.86 23.856 179.3 23.624 178.636 23.624C177.972 23.624 177.412 23.856 176.956 24.32C176.5 24.776 176.272 25.336 176.272 26C176.272 26.664 176.5 27.228 176.956 27.692ZM188.593 22.856C189.473 22.856 190.217 23.16 190.825 23.768C191.441 24.368 191.749 25.112 191.749 26C191.749 26.888 191.441 27.636 190.825 28.244C190.217 28.844 189.473 29.144 188.593 29.144C187.785 29.144 187.089 28.884 186.505 28.364C185.929 27.836 185.597 27.176 185.509 26.384H184.261V29H183.469V23H184.261V25.616H185.509C185.597 24.824 185.929 24.168 186.505 23.648C187.089 23.12 187.785 22.856 188.593 22.856ZM186.913 27.692C187.369 28.148 187.929 28.376 188.593 28.376C189.257 28.376 189.817 28.148 190.273 27.692C190.729 27.228 190.957 26.664 190.957 26C190.957 25.336 190.729 24.776 190.273 24.32C189.817 23.856 189.257 23.624 188.593 23.624C187.929 23.624 187.369 23.856 186.913 24.32C186.457 24.776 186.229 25.336 186.229 26C186.229 26.664 186.457 27.228 186.913 27.692ZM201.107 28.232H201.947V30.608H201.155V29H193.067V23H193.859V28.232H196.691V23H197.483V28.232H200.315V23H201.107V28.232ZM207.513 23H208.185V29H207.393V24.38L203.817 29H203.145V23H203.937V27.62L207.513 23ZM210.82 22.04V21.344H213.94V22.04H210.82ZM214.228 23H214.9V29H214.108V24.38L210.532 29H209.86V23H210.652V27.62L214.228 23ZM222.37 29.144C221.466 29.144 220.714 28.844 220.114 28.244C219.514 27.636 219.214 26.888 219.214 26C219.214 25.112 219.514 24.368 220.114 23.768C220.714 23.16 221.466 22.856 222.37 22.856C222.962 22.856 223.494 23 223.966 23.288C224.438 23.568 224.782 23.948 224.998 24.428L224.35 24.8C224.19 24.44 223.93 24.156 223.57 23.948C223.218 23.732 222.818 23.624 222.37 23.624C221.706 23.624 221.146 23.856 220.69 24.32C220.234 24.776 220.006 25.336 220.006 26C220.006 26.664 220.234 27.228 220.69 27.692C221.146 28.148 221.706 28.376 222.37 28.376C222.818 28.376 223.218 28.272 223.57 28.064C223.922 27.848 224.198 27.56 224.398 27.2L225.058 27.584C224.81 28.064 224.446 28.444 223.966 28.724C223.486 29.004 222.954 29.144 222.37 29.144ZM230.998 23V29H230.206V23.768H227.494V26.444C227.494 27.444 227.302 28.132 226.918 28.508C226.542 28.884 226.022 29.048 225.358 29V28.256C225.814 28.304 226.15 28.196 226.366 27.932C226.59 27.668 226.702 27.172 226.702 26.444V23H230.998ZM237.704 28.244C237.096 28.844 236.352 29.144 235.472 29.144C234.592 29.144 233.844 28.844 233.228 28.244C232.62 27.636 232.316 26.888 232.316 26C232.316 25.112 232.62 24.368 233.228 23.768C233.844 23.16 234.592 22.856 235.472 22.856C236.352 22.856 237.096 23.16 237.704 23.768C238.32 24.368 238.628 25.112 238.628 26C238.628 26.888 238.32 27.636 237.704 28.244ZM233.792 27.692C234.248 28.148 234.808 28.376 235.472 28.376C236.136 28.376 236.696 28.148 237.152 27.692C237.608 27.228 237.836 26.664 237.836 26C237.836 25.336 237.608 24.776 237.152 24.32C236.696 23.856 236.136 23.624 235.472 23.624C234.808 23.624 234.248 23.856 233.792 24.32C233.336 24.776 233.108 25.336 233.108 26C233.108 26.664 233.336 27.228 233.792 27.692ZM240.913 22.04V21.344H244.033V22.04H240.913ZM244.321 23H244.993V29H244.201V24.38L240.625 29H239.953V23H240.745V27.62L244.321 23Z" fill="white"/>
<circle cx="96" cy="30" r="3" fill="#C2E23F"/>
<path d="M98 31L130.5 41.5" stroke="white"/>
<path d="M147.172 40.472C147.916 41.032 148.288 41.808 148.288 42.8C148.288 43.792 147.916 44.568 147.172 45.128C146.436 45.688 145.46 45.996 144.244 46.052V47H143.404V46.052C142.188 45.996 141.208 45.688 140.464 45.128C139.728 44.568 139.36 43.792 139.36 42.8C139.36 41.808 139.728 41.032 140.464 40.472C141.208 39.912 142.188 39.604 143.404 39.548V38.6H144.244V39.548C145.46 39.604 146.436 39.912 147.172 40.472ZM141.064 41.024C140.488 41.44 140.2 42.032 140.2 42.8C140.2 43.568 140.488 44.164 141.064 44.588C141.64 45.004 142.42 45.236 143.404 45.284V40.316C142.42 40.364 141.64 40.6 141.064 41.024ZM144.244 45.284C145.228 45.236 146.008 45.004 146.584 44.588C147.16 44.164 147.448 43.568 147.448 42.8C147.448 42.032 147.16 41.44 146.584 41.024C146.008 40.6 145.228 40.364 144.244 40.316V45.284ZM154.513 46.244C153.905 46.844 153.161 47.144 152.281 47.144C151.401 47.144 150.653 46.844 150.037 46.244C149.429 45.636 149.125 44.888 149.125 44C149.125 43.112 149.429 42.368 150.037 41.768C150.653 41.16 151.401 40.856 152.281 40.856C153.161 40.856 153.905 41.16 154.513 41.768C155.129 42.368 155.437 43.112 155.437 44C155.437 44.888 155.129 45.636 154.513 46.244ZM150.601 45.692C151.057 46.148 151.617 46.376 152.281 46.376C152.945 46.376 153.505 46.148 153.961 45.692C154.417 45.228 154.645 44.664 154.645 44C154.645 43.336 154.417 42.776 153.961 42.32C153.505 41.856 152.945 41.624 152.281 41.624C151.617 41.624 151.057 41.856 150.601 42.32C150.145 42.776 149.917 43.336 149.917 44C149.917 44.664 150.145 45.228 150.601 45.692ZM161.448 41V47H160.656V41.768H157.944V44.444C157.944 45.444 157.752 46.132 157.368 46.508C156.992 46.884 156.472 47.048 155.808 47V46.256C156.264 46.304 156.6 46.196 156.816 45.932C157.04 45.668 157.152 45.172 157.152 44.444V41H161.448ZM165.561 43.28C166.121 43.28 166.593 43.456 166.977 43.808C167.369 44.152 167.565 44.596 167.565 45.14C167.565 45.684 167.369 46.132 166.977 46.484C166.593 46.828 166.121 47 165.561 47H163.125V41H163.917V43.28H165.561ZM165.561 46.232C165.897 46.232 166.181 46.132 166.413 45.932C166.653 45.732 166.773 45.468 166.773 45.14C166.773 44.812 166.653 44.548 166.413 44.348C166.181 44.148 165.897 44.048 165.561 44.048H163.917V46.232H165.561ZM172.602 41V41.768H169.554V47H168.762V41H172.602ZM178.492 41H179.284V47H178.492V45.824C177.94 46.704 177.132 47.144 176.068 47.144C175.212 47.144 174.48 46.84 173.872 46.232C173.272 45.624 172.972 44.88 172.972 44C172.972 43.12 173.272 42.376 173.872 41.768C174.48 41.16 175.212 40.856 176.068 40.856C177.132 40.856 177.94 41.296 178.492 42.176V41ZM174.448 45.692C174.904 46.148 175.464 46.376 176.128 46.376C176.792 46.376 177.352 46.148 177.808 45.692C178.264 45.228 178.492 44.664 178.492 44C178.492 43.336 178.264 42.776 177.808 42.32C177.352 41.856 176.792 41.624 176.128 41.624C175.464 41.624 174.904 41.856 174.448 42.32C173.992 42.776 173.764 43.336 173.764 44C173.764 44.664 173.992 45.228 174.448 45.692Z" fill="white"/>
<circle cx="96" cy="36" r="3" fill="#C2E23F"/>
<path d="M98 37L133 57" stroke="white"/>
<path d="M147.172 60.472C147.916 61.032 148.288 61.808 148.288 62.8C148.288 63.792 147.916 64.568 147.172 65.128C146.436 65.688 145.46 65.996 144.244 66.052V67H143.404V66.052C142.188 65.996 141.208 65.688 140.464 65.128C139.728 64.568 139.36 63.792 139.36 62.8C139.36 61.808 139.728 61.032 140.464 60.472C141.208 59.912 142.188 59.604 143.404 59.548V58.6H144.244V59.548C145.46 59.604 146.436 59.912 147.172 60.472ZM141.064 61.024C140.488 61.44 140.2 62.032 140.2 62.8C140.2 63.568 140.488 64.164 141.064 64.588C141.64 65.004 142.42 65.236 143.404 65.284V60.316C142.42 60.364 141.64 60.6 141.064 61.024ZM144.244 65.284C145.228 65.236 146.008 65.004 146.584 64.588C147.16 64.164 147.448 63.568 147.448 62.8C147.448 62.032 147.16 61.44 146.584 61.024C146.008 60.6 145.228 60.364 144.244 60.316V65.284ZM154.513 66.244C153.905 66.844 153.161 67.144 152.281 67.144C151.401 67.144 150.653 66.844 150.037 66.244C149.429 65.636 149.125 64.888 149.125 64C149.125 63.112 149.429 62.368 150.037 61.768C150.653 61.16 151.401 60.856 152.281 60.856C153.161 60.856 153.905 61.16 154.513 61.768C155.129 62.368 155.437 63.112 155.437 64C155.437 64.888 155.129 65.636 154.513 66.244ZM150.601 65.692C151.057 66.148 151.617 66.376 152.281 66.376C152.945 66.376 153.505 66.148 153.961 65.692C154.417 65.228 154.645 64.664 154.645 64C154.645 63.336 154.417 62.776 153.961 62.32C153.505 61.856 152.945 61.624 152.281 61.624C151.617 61.624 151.057 61.856 150.601 62.32C150.145 62.776 149.917 63.336 149.917 64C149.917 64.664 150.145 65.228 150.601 65.692ZM161.448 61V67H160.656V61.768H157.944V64.444C157.944 65.444 157.752 66.132 157.368 66.508C156.992 66.884 156.472 67.048 155.808 67V66.256C156.264 66.304 156.6 66.196 156.816 65.932C157.04 65.668 157.152 65.172 157.152 64.444V61H161.448ZM165.561 63.28C166.121 63.28 166.593 63.456 166.977 63.808C167.369 64.152 167.565 64.596 167.565 65.14C167.565 65.684 167.369 66.132 166.977 66.484C166.593 66.828 166.121 67 165.561 67H163.125V61H163.917V63.28H165.561ZM165.561 66.232C165.897 66.232 166.181 66.132 166.413 65.932C166.653 65.732 166.773 65.468 166.773 65.14C166.773 64.812 166.653 64.548 166.413 64.348C166.181 64.148 165.897 64.048 165.561 64.048H163.917V66.232H165.561ZM172.602 61V61.768H169.554V67H168.762V61H172.602ZM178.492 61H179.284V67H178.492V65.824C177.94 66.704 177.132 67.144 176.068 67.144C175.212 67.144 174.48 66.84 173.872 66.232C173.272 65.624 172.972 64.88 172.972 64C172.972 63.12 173.272 62.376 173.872 61.768C174.48 61.16 175.212 60.856 176.068 60.856C177.132 60.856 177.94 61.296 178.492 62.176V61ZM174.448 65.692C174.904 66.148 175.464 66.376 176.128 66.376C176.792 66.376 177.352 66.148 177.808 65.692C178.264 65.228 178.492 64.664 178.492 64C178.492 63.336 178.264 62.776 177.808 62.32C177.352 61.856 176.792 61.624 176.128 61.624C175.464 61.624 174.904 61.856 174.448 62.32C173.992 62.776 173.764 63.336 173.764 64C173.764 64.664 173.992 65.228 174.448 65.692Z" fill="white"/>
<defs>
<linearGradient id="paint0_linear_1911_14444" x1="65.5" y1="41" x2="65.5" y2="189" gradientUnits="userSpaceOnUse">
<stop stop-color="white" stop-opacity="0.15"/>
<stop offset="1" stop-color="white" stop-opacity="0"/>
</linearGradient>
</defs>
</svg>
