<svg width="255" height="192" viewBox="0 0 255 192" fill="none" xmlns="http://www.w3.org/2000/svg">
<path d="M2 191V109.452C2 92.5715 15.6841 78.8873 32.5644 78.8873V78.8873C32.9089 78.8873 33.1881 78.6081 33.1881 78.2636V47C33.1881 44.7909 34.979 43 37.1881 43H91.5644C93.7735 43 95.5644 44.7909 95.5644 47V78.4841C95.5644 78.7068 95.7449 78.8873 95.9676 78.8873V78.8873C113.659 78.8873 128 93.2287 128 110.92V191" stroke="white"/>
<path d="M2.5 109.452V191H128.5V110.92C128.5 93.2287 114.159 78.8873 96.4676 78.8873C96.2449 78.8873 96.0644 78.7068 96.0644 78.4841V47C96.0644 44.7909 94.2735 43 92.0644 43H37.6881C35.479 43 33.6881 44.7909 33.6881 47V78.2636C33.6881 78.6081 33.4089 78.8873 33.0644 78.8873C16.1841 78.8873 2.5 92.5715 2.5 109.452Z" fill="url(#paint0_linear_1911_14481)"/>
<rect x="95.7422" y="45.478" width="4" height="4" fill="white"/>
<rect x="29.1992" y="45.4775" width="4" height="4" fill="white"/>
<rect x="29.1992" y="58.5151" width="4" height="4" fill="white"/>
<rect x="95.7422" y="58.5151" width="4" height="4" fill="white"/>
<path d="M20 49.2486V10.9946C20 5.47179 24.4772 0.994629 30 0.994629H100C105.523 0.994629 110 5.47178 110 10.9946V49.2486" stroke="white"/>
<rect x="106" y="21.0193" width="4" height="4.10672" fill="white"/>
<rect x="20" y="21.0183" width="4" height="4.10672" fill="white"/>
<rect x="106" y="34.9517" width="4" height="4.10672" fill="white"/>
<rect x="20" y="34.9507" width="4" height="4.10672" fill="white"/>
<rect x="33.5" y="5" width="62" height="4" fill="#BCACAF"/>
<rect x="33.5" y="29" width="62" height="4" fill="#E0D69E"/>
<rect x="33.5" y="35" width="62" height="4" fill="#EAEBE7"/>
<circle cx="94" cy="7" r="3" fill="#C2E23F"/>
<path d="M97 7L129 7" stroke="white"/>
<path d="M141.884 13.144C140.612 13.144 139.56 12.724 138.728 11.884C137.896 11.044 137.48 10.016 137.48 8.8C137.48 7.584 137.896 6.556 138.728 5.716C139.56 4.876 140.612 4.456 141.884 4.456C142.66 4.456 143.372 4.644 144.02 5.02C144.668 5.388 145.168 5.888 145.52 6.52L144.776 6.952C144.512 6.44 144.12 6.032 143.6 5.728C143.08 5.424 142.508 5.272 141.884 5.272C140.836 5.272 139.98 5.612 139.316 6.292C138.652 6.972 138.32 7.808 138.32 8.8C138.32 9.792 138.652 10.628 139.316 11.308C139.98 11.988 140.836 12.328 141.884 12.328C142.508 12.328 143.08 12.176 143.6 11.872C144.12 11.568 144.512 11.16 144.776 10.648L145.52 11.068C145.176 11.7 144.676 12.204 144.02 12.58C143.372 12.956 142.66 13.144 141.884 13.144ZM151.821 7V13H151.029V7.768H147.573V13H146.781V7H151.821ZM158.656 7H159.448V13H158.656V11.824C158.104 12.704 157.296 13.144 156.232 13.144C155.376 13.144 154.644 12.84 154.036 12.232C153.436 11.624 153.136 10.88 153.136 10C153.136 9.12 153.436 8.376 154.036 7.768C154.644 7.16 155.376 6.856 156.232 6.856C157.296 6.856 158.104 7.296 158.656 8.176V7ZM154.612 11.692C155.068 12.148 155.628 12.376 156.292 12.376C156.956 12.376 157.516 12.148 157.972 11.692C158.428 11.228 158.656 10.664 158.656 10C158.656 9.336 158.428 8.776 157.972 8.32C157.516 7.856 156.956 7.624 156.292 7.624C155.628 7.624 155.068 7.856 154.612 8.32C154.156 8.776 153.928 9.336 153.928 10C153.928 10.664 154.156 11.228 154.612 11.692ZM165.493 7H166.165V13H165.373V8.38L161.797 13H161.125V7H161.917V11.62L165.493 7ZM171.656 9.916C172.312 10.156 172.64 10.624 172.64 11.32C172.64 11.808 172.476 12.212 172.148 12.532C171.828 12.844 171.364 13 170.756 13H167.84V7H170.516C171.1 7 171.552 7.152 171.872 7.456C172.192 7.752 172.352 8.136 172.352 8.608C172.352 9.208 172.12 9.644 171.656 9.916ZM170.516 7.768H168.632V9.592H170.516C171.212 9.592 171.56 9.28 171.56 8.656C171.56 8.376 171.468 8.16 171.284 8.008C171.108 7.848 170.852 7.768 170.516 7.768ZM170.756 12.232C171.108 12.232 171.376 12.148 171.56 11.98C171.752 11.812 171.848 11.576 171.848 11.272C171.848 10.992 171.752 10.772 171.56 10.612C171.376 10.444 171.108 10.36 170.756 10.36H168.632V12.232H170.756ZM179 7H179.792V13H179V11.824C178.448 12.704 177.64 13.144 176.576 13.144C175.72 13.144 174.988 12.84 174.38 12.232C173.78 11.624 173.48 10.88 173.48 10C173.48 9.12 173.78 8.376 174.38 7.768C174.988 7.16 175.72 6.856 176.576 6.856C177.64 6.856 178.448 7.296 179 8.176V7ZM174.956 11.692C175.412 12.148 175.972 12.376 176.636 12.376C177.3 12.376 177.86 12.148 178.316 11.692C178.772 11.228 179 10.664 179 10C179 9.336 178.772 8.776 178.316 8.32C177.86 7.856 177.3 7.624 176.636 7.624C175.972 7.624 175.412 7.856 174.956 8.32C174.5 8.776 174.272 9.336 174.272 10C174.272 10.664 174.5 11.228 174.956 11.692ZM186.593 6.856C187.473 6.856 188.217 7.16 188.825 7.768C189.441 8.368 189.749 9.112 189.749 10C189.749 10.888 189.441 11.636 188.825 12.244C188.217 12.844 187.473 13.144 186.593 13.144C185.785 13.144 185.089 12.884 184.505 12.364C183.929 11.836 183.597 11.176 183.509 10.384H182.261V13H181.469V7H182.261V9.616H183.509C183.597 8.824 183.929 8.168 184.505 7.648C185.089 7.12 185.785 6.856 186.593 6.856ZM184.913 11.692C185.369 12.148 185.929 12.376 186.593 12.376C187.257 12.376 187.817 12.148 188.273 11.692C188.729 11.228 188.957 10.664 188.957 10C188.957 9.336 188.729 8.776 188.273 8.32C187.817 7.856 187.257 7.624 186.593 7.624C185.929 7.624 185.369 7.856 184.913 8.32C184.457 8.776 184.229 9.336 184.229 10C184.229 10.664 184.457 11.228 184.913 11.692ZM199.107 12.232H199.947V14.608H199.155V13H191.067V7H191.859V12.232H194.691V7H195.483V12.232H198.315V7H199.107V12.232ZM205.513 7H206.185V13H205.393V8.38L201.817 13H201.145V7H201.937V11.62L205.513 7ZM208.82 6.04V5.344H211.94V6.04H208.82ZM212.228 7H212.9V13H212.108V8.38L208.532 13H207.86V7H208.652V11.62L212.228 7ZM220.37 13.144C219.466 13.144 218.714 12.844 218.114 12.244C217.514 11.636 217.214 10.888 217.214 10C217.214 9.112 217.514 8.368 218.114 7.768C218.714 7.16 219.466 6.856 220.37 6.856C220.962 6.856 221.494 7 221.966 7.288C222.438 7.568 222.782 7.948 222.998 8.428L222.35 8.8C222.19 8.44 221.93 8.156 221.57 7.948C221.218 7.732 220.818 7.624 220.37 7.624C219.706 7.624 219.146 7.856 218.69 8.32C218.234 8.776 218.006 9.336 218.006 10C218.006 10.664 218.234 11.228 218.69 11.692C219.146 12.148 219.706 12.376 220.37 12.376C220.818 12.376 221.218 12.272 221.57 12.064C221.922 11.848 222.198 11.56 222.398 11.2L223.058 11.584C222.81 12.064 222.446 12.444 221.966 12.724C221.486 13.004 220.954 13.144 220.37 13.144ZM228.998 7V13H228.206V7.768H225.494V10.444C225.494 11.444 225.302 12.132 224.918 12.508C224.542 12.884 224.022 13.048 223.358 13V12.256C223.814 12.304 224.15 12.196 224.366 11.932C224.59 11.668 224.702 11.172 224.702 10.444V7H228.998ZM235.704 12.244C235.096 12.844 234.352 13.144 233.472 13.144C232.592 13.144 231.844 12.844 231.228 12.244C230.62 11.636 230.316 10.888 230.316 10C230.316 9.112 230.62 8.368 231.228 7.768C231.844 7.16 232.592 6.856 233.472 6.856C234.352 6.856 235.096 7.16 235.704 7.768C236.32 8.368 236.628 9.112 236.628 10C236.628 10.888 236.32 11.636 235.704 12.244ZM231.792 11.692C232.248 12.148 232.808 12.376 233.472 12.376C234.136 12.376 234.696 12.148 235.152 11.692C235.608 11.228 235.836 10.664 235.836 10C235.836 9.336 235.608 8.776 235.152 8.32C234.696 7.856 234.136 7.624 233.472 7.624C232.808 7.624 232.248 7.856 231.792 8.32C231.336 8.776 231.108 9.336 231.108 10C231.108 10.664 231.336 11.228 231.792 11.692ZM238.913 6.04V5.344H242.033V6.04H238.913ZM242.321 7H242.993V13H242.201V8.38L238.625 13H237.953V7H238.745V11.62L242.321 7Z" fill="white"/>
<circle cx="94" cy="30" r="3" fill="#C2E23F"/>
<path d="M97 30L129 30" stroke="white"/>
<path d="M141.884 36.144C140.612 36.144 139.56 35.724 138.728 34.884C137.896 34.044 137.48 33.016 137.48 31.8C137.48 30.584 137.896 29.556 138.728 28.716C139.56 27.876 140.612 27.456 141.884 27.456C142.66 27.456 143.372 27.644 144.02 28.02C144.668 28.388 145.168 28.888 145.52 29.52L144.776 29.952C144.512 29.44 144.12 29.032 143.6 28.728C143.08 28.424 142.508 28.272 141.884 28.272C140.836 28.272 139.98 28.612 139.316 29.292C138.652 29.972 138.32 30.808 138.32 31.8C138.32 32.792 138.652 33.628 139.316 34.308C139.98 34.988 140.836 35.328 141.884 35.328C142.508 35.328 143.08 35.176 143.6 34.872C144.12 34.568 144.512 34.16 144.776 33.648L145.52 34.068C145.176 34.7 144.676 35.204 144.02 35.58C143.372 35.956 142.66 36.144 141.884 36.144ZM151.821 30V36H151.029V30.768H147.573V36H146.781V30H151.821ZM158.656 30H159.448V36H158.656V34.824C158.104 35.704 157.296 36.144 156.232 36.144C155.376 36.144 154.644 35.84 154.036 35.232C153.436 34.624 153.136 33.88 153.136 33C153.136 32.12 153.436 31.376 154.036 30.768C154.644 30.16 155.376 29.856 156.232 29.856C157.296 29.856 158.104 30.296 158.656 31.176V30ZM154.612 34.692C155.068 35.148 155.628 35.376 156.292 35.376C156.956 35.376 157.516 35.148 157.972 34.692C158.428 34.228 158.656 33.664 158.656 33C158.656 32.336 158.428 31.776 157.972 31.32C157.516 30.856 156.956 30.624 156.292 30.624C155.628 30.624 155.068 30.856 154.612 31.32C154.156 31.776 153.928 32.336 153.928 33C153.928 33.664 154.156 34.228 154.612 34.692ZM165.493 30H166.165V36H165.373V31.38L161.797 36H161.125V30H161.917V34.62L165.493 30ZM171.656 32.916C172.312 33.156 172.64 33.624 172.64 34.32C172.64 34.808 172.476 35.212 172.148 35.532C171.828 35.844 171.364 36 170.756 36H167.84V30H170.516C171.1 30 171.552 30.152 171.872 30.456C172.192 30.752 172.352 31.136 172.352 31.608C172.352 32.208 172.12 32.644 171.656 32.916ZM170.516 30.768H168.632V32.592H170.516C171.212 32.592 171.56 32.28 171.56 31.656C171.56 31.376 171.468 31.16 171.284 31.008C171.108 30.848 170.852 30.768 170.516 30.768ZM170.756 35.232C171.108 35.232 171.376 35.148 171.56 34.98C171.752 34.812 171.848 34.576 171.848 34.272C171.848 33.992 171.752 33.772 171.56 33.612C171.376 33.444 171.108 33.36 170.756 33.36H168.632V35.232H170.756ZM179 30H179.792V36H179V34.824C178.448 35.704 177.64 36.144 176.576 36.144C175.72 36.144 174.988 35.84 174.38 35.232C173.78 34.624 173.48 33.88 173.48 33C173.48 32.12 173.78 31.376 174.38 30.768C174.988 30.16 175.72 29.856 176.576 29.856C177.64 29.856 178.448 30.296 179 31.176V30ZM174.956 34.692C175.412 35.148 175.972 35.376 176.636 35.376C177.3 35.376 177.86 35.148 178.316 34.692C178.772 34.228 179 33.664 179 33C179 32.336 178.772 31.776 178.316 31.32C177.86 30.856 177.3 30.624 176.636 30.624C175.972 30.624 175.412 30.856 174.956 31.32C174.5 31.776 174.272 32.336 174.272 33C174.272 33.664 174.5 34.228 174.956 34.692ZM186.593 29.856C187.473 29.856 188.217 30.16 188.825 30.768C189.441 31.368 189.749 32.112 189.749 33C189.749 33.888 189.441 34.636 188.825 35.244C188.217 35.844 187.473 36.144 186.593 36.144C185.785 36.144 185.089 35.884 184.505 35.364C183.929 34.836 183.597 34.176 183.509 33.384H182.261V36H181.469V30H182.261V32.616H183.509C183.597 31.824 183.929 31.168 184.505 30.648C185.089 30.12 185.785 29.856 186.593 29.856ZM184.913 34.692C185.369 35.148 185.929 35.376 186.593 35.376C187.257 35.376 187.817 35.148 188.273 34.692C188.729 34.228 188.957 33.664 188.957 33C188.957 32.336 188.729 31.776 188.273 31.32C187.817 30.856 187.257 30.624 186.593 30.624C185.929 30.624 185.369 30.856 184.913 31.32C184.457 31.776 184.229 32.336 184.229 33C184.229 33.664 184.457 34.228 184.913 34.692ZM199.107 35.232H199.947V37.608H199.155V36H191.067V30H191.859V35.232H194.691V30H195.483V35.232H198.315V30H199.107V35.232ZM205.513 30H206.185V36H205.393V31.38L201.817 36H201.145V30H201.937V34.62L205.513 30ZM208.82 29.04V28.344H211.94V29.04H208.82ZM212.228 30H212.9V36H212.108V31.38L208.532 36H207.86V30H208.652V34.62L212.228 30ZM220.37 36.144C219.466 36.144 218.714 35.844 218.114 35.244C217.514 34.636 217.214 33.888 217.214 33C217.214 32.112 217.514 31.368 218.114 30.768C218.714 30.16 219.466 29.856 220.37 29.856C220.962 29.856 221.494 30 221.966 30.288C222.438 30.568 222.782 30.948 222.998 31.428L222.35 31.8C222.19 31.44 221.93 31.156 221.57 30.948C221.218 30.732 220.818 30.624 220.37 30.624C219.706 30.624 219.146 30.856 218.69 31.32C218.234 31.776 218.006 32.336 218.006 33C218.006 33.664 218.234 34.228 218.69 34.692C219.146 35.148 219.706 35.376 220.37 35.376C220.818 35.376 221.218 35.272 221.57 35.064C221.922 34.848 222.198 34.56 222.398 34.2L223.058 34.584C222.81 35.064 222.446 35.444 221.966 35.724C221.486 36.004 220.954 36.144 220.37 36.144ZM228.998 30V36H228.206V30.768H225.494V33.444C225.494 34.444 225.302 35.132 224.918 35.508C224.542 35.884 224.022 36.048 223.358 36V35.256C223.814 35.304 224.15 35.196 224.366 34.932C224.59 34.668 224.702 34.172 224.702 33.444V30H228.998ZM235.704 35.244C235.096 35.844 234.352 36.144 233.472 36.144C232.592 36.144 231.844 35.844 231.228 35.244C230.62 34.636 230.316 33.888 230.316 33C230.316 32.112 230.62 31.368 231.228 30.768C231.844 30.16 232.592 29.856 233.472 29.856C234.352 29.856 235.096 30.16 235.704 30.768C236.32 31.368 236.628 32.112 236.628 33C236.628 33.888 236.32 34.636 235.704 35.244ZM231.792 34.692C232.248 35.148 232.808 35.376 233.472 35.376C234.136 35.376 234.696 35.148 235.152 34.692C235.608 34.228 235.836 33.664 235.836 33C235.836 32.336 235.608 31.776 235.152 31.32C234.696 30.856 234.136 30.624 233.472 30.624C232.808 30.624 232.248 30.856 231.792 31.32C231.336 31.776 231.108 32.336 231.108 33C231.108 33.664 231.336 34.228 231.792 34.692ZM238.913 29.04V28.344H242.033V29.04H238.913ZM242.321 30H242.993V36H242.201V31.38L238.625 36H237.953V30H238.745V34.62L242.321 30Z" fill="white"/>
<circle cx="94" cy="37" r="3" fill="#C2E23F"/>
<path d="M96 38L128.5 48.5" stroke="white"/>
<path d="M145.172 47.472C145.916 48.032 146.288 48.808 146.288 49.8C146.288 50.792 145.916 51.568 145.172 52.128C144.436 52.688 143.46 52.996 142.244 53.052V54H141.404V53.052C140.188 52.996 139.208 52.688 138.464 52.128C137.728 51.568 137.36 50.792 137.36 49.8C137.36 48.808 137.728 48.032 138.464 47.472C139.208 46.912 140.188 46.604 141.404 46.548V45.6H142.244V46.548C143.46 46.604 144.436 46.912 145.172 47.472ZM139.064 48.024C138.488 48.44 138.2 49.032 138.2 49.8C138.2 50.568 138.488 51.164 139.064 51.588C139.64 52.004 140.42 52.236 141.404 52.284V47.316C140.42 47.364 139.64 47.6 139.064 48.024ZM142.244 52.284C143.228 52.236 144.008 52.004 144.584 51.588C145.16 51.164 145.448 50.568 145.448 49.8C145.448 49.032 145.16 48.44 144.584 48.024C144.008 47.6 143.228 47.364 142.244 47.316V52.284ZM152.513 53.244C151.905 53.844 151.161 54.144 150.281 54.144C149.401 54.144 148.653 53.844 148.037 53.244C147.429 52.636 147.125 51.888 147.125 51C147.125 50.112 147.429 49.368 148.037 48.768C148.653 48.16 149.401 47.856 150.281 47.856C151.161 47.856 151.905 48.16 152.513 48.768C153.129 49.368 153.437 50.112 153.437 51C153.437 51.888 153.129 52.636 152.513 53.244ZM148.601 52.692C149.057 53.148 149.617 53.376 150.281 53.376C150.945 53.376 151.505 53.148 151.961 52.692C152.417 52.228 152.645 51.664 152.645 51C152.645 50.336 152.417 49.776 151.961 49.32C151.505 48.856 150.945 48.624 150.281 48.624C149.617 48.624 149.057 48.856 148.601 49.32C148.145 49.776 147.917 50.336 147.917 51C147.917 51.664 148.145 52.228 148.601 52.692ZM159.448 48V54H158.656V48.768H155.944V51.444C155.944 52.444 155.752 53.132 155.368 53.508C154.992 53.884 154.472 54.048 153.808 54V53.256C154.264 53.304 154.6 53.196 154.816 52.932C155.04 52.668 155.152 52.172 155.152 51.444V48H159.448ZM163.561 50.28C164.121 50.28 164.593 50.456 164.977 50.808C165.369 51.152 165.565 51.596 165.565 52.14C165.565 52.684 165.369 53.132 164.977 53.484C164.593 53.828 164.121 54 163.561 54H161.125V48H161.917V50.28H163.561ZM163.561 53.232C163.897 53.232 164.181 53.132 164.413 52.932C164.653 52.732 164.773 52.468 164.773 52.14C164.773 51.812 164.653 51.548 164.413 51.348C164.181 51.148 163.897 51.048 163.561 51.048H161.917V53.232H163.561ZM170.602 48V48.768H167.554V54H166.762V48H170.602ZM176.492 48H177.284V54H176.492V52.824C175.94 53.704 175.132 54.144 174.068 54.144C173.212 54.144 172.48 53.84 171.872 53.232C171.272 52.624 170.972 51.88 170.972 51C170.972 50.12 171.272 49.376 171.872 48.768C172.48 48.16 173.212 47.856 174.068 47.856C175.132 47.856 175.94 48.296 176.492 49.176V48ZM172.448 52.692C172.904 53.148 173.464 53.376 174.128 53.376C174.792 53.376 175.352 53.148 175.808 52.692C176.264 52.228 176.492 51.664 176.492 51C176.492 50.336 176.264 49.776 175.808 49.32C175.352 48.856 174.792 48.624 174.128 48.624C173.464 48.624 172.904 48.856 172.448 49.32C171.992 49.776 171.764 50.336 171.764 51C171.764 51.664 171.992 52.228 172.448 52.692Z" fill="white"/>
<defs>
<linearGradient id="paint0_linear_1911_14481" x1="65.5" y1="43" x2="65.5" y2="191" gradientUnits="userSpaceOnUse">
<stop stop-color="white" stop-opacity="0.15"/>
<stop offset="1" stop-color="white" stop-opacity="0"/>
</linearGradient>
</defs>
</svg>
