<svg width="36" height="36" viewBox="0 0 36 36" fill="none" xmlns="http://www.w3.org/2000/svg">
<path d="M31.5 24.933V11.0674C31.4989 10.8671 31.4451 10.6706 31.3438 10.4978C31.2426 10.325 31.0976 10.1819 30.9234 10.083L18.5484 3.12205C18.3817 3.02578 18.1925 2.9751 18 2.9751C17.8075 2.9751 17.6183 3.02578 17.4516 3.12205L5.07656 10.083C4.9024 10.1819 4.75739 10.325 4.65617 10.4978C4.55494 10.6706 4.50108 10.8671 4.5 11.0674V24.933C4.50108 25.1333 4.55494 25.3297 4.65617 25.5026C4.75739 25.6754 4.9024 25.8185 5.07656 25.9174L17.4516 32.8783C17.6183 32.9746 17.8075 33.0253 18 33.0253C18.1925 33.0253 18.3817 32.9746 18.5484 32.8783L30.9234 25.9174C31.0976 25.8185 31.2426 25.6754 31.3438 25.5026C31.4451 25.3297 31.4989 25.1333 31.5 24.933V24.933Z" stroke="#232C32" stroke-width="2" stroke-linecap="round" stroke-linejoin="round"/>
<path d="M31.3449 10.4907L18.1262 18.0001L4.6543 10.4907" stroke="#232C32" stroke-width="2" stroke-linecap="round" stroke-linejoin="round"/>
<path d="M18.1266 18L18 33.0187" stroke="#232C32" stroke-width="2" stroke-linecap="round" stroke-linejoin="round"/>
</svg>
