<svg width="515" height="515" viewBox="0 0 515 515" fill="none" xmlns="http://www.w3.org/2000/svg">
<path d="M258.074 504.165C394.775 504.165 505.593 446.816 505.593 376.074C505.593 305.331 394.775 247.983 258.074 247.983C121.373 247.983 10.5547 305.331 10.5547 376.074C10.5547 446.816 121.373 504.165 258.074 504.165Z" fill="#F5F5F5"/>
<path d="M81.8782 444.332L36.826 418.314C34.2819 416.851 34.2819 414.472 36.826 413.01L288.929 267.625C290.355 266.904 291.93 266.528 293.528 266.528C295.126 266.528 296.701 266.904 298.127 267.625L343.189 293.643C345.723 295.105 345.723 297.485 343.189 298.947L91.0761 444.332C89.6504 445.053 88.075 445.429 86.4772 445.429C84.8794 445.429 83.304 445.053 81.8782 444.332Z" fill="#E0E0E0"/>
<path d="M323.825 351.632L318.273 348.397C305.552 341.054 285.467 340.693 273.509 347.594L252.538 359.676C252.183 359.881 251.924 360.218 251.818 360.614C251.711 361.01 251.767 361.432 251.972 361.787C252.177 362.143 252.514 362.402 252.91 362.508C253.306 362.614 253.728 362.559 254.083 362.354L275.013 350.272C286.116 343.855 304.821 344.216 316.687 351.065L322.29 354.31C327.749 357.461 330.756 361.52 330.756 365.846C330.756 370.172 327.749 374.23 322.29 377.382L245.565 421.672C233.689 428.531 214.377 428.521 202.501 421.672L180.15 408.786C167.429 401.442 146.726 401.442 134.006 408.786L128.403 412C121.677 415.883 117.969 421.054 117.969 426.544C117.969 431.611 121.182 436.256 127.022 439.625L147.025 451.181L138.785 456.032C135.026 458.247 135.046 461.842 138.785 464.025L153.875 472.77C154.009 472.816 154.126 472.902 154.209 473.018C154.291 473.133 154.336 473.272 154.336 473.414C154.336 473.556 154.291 473.694 154.209 473.81C154.126 473.925 154.009 474.012 153.875 474.057L152.618 474.768C152 475.118 152 475.695 152.618 476.056L154.565 477.178C154.91 477.356 155.293 477.449 155.682 477.449C156.071 477.449 156.454 477.356 156.8 477.178L163.618 473.264C163.966 473.092 164.348 473.002 164.736 473.002C165.124 473.002 165.506 473.092 165.853 473.264L178.213 480.474C178.559 480.647 178.94 480.738 179.326 480.738C179.712 480.738 180.093 480.647 180.438 480.474L182.395 479.341C183.013 478.991 183.013 478.414 182.395 478.054L170.035 470.844C169.417 470.483 169.417 469.907 170.035 469.556L174.794 466.806C175.138 466.628 175.519 466.535 175.906 466.535C176.293 466.535 176.675 466.628 177.019 466.806L189.44 473.965C189.784 474.143 190.166 474.236 190.553 474.236C190.94 474.236 191.321 474.143 191.665 473.965L193.643 472.77C193.777 472.724 193.894 472.638 193.977 472.522C194.06 472.407 194.104 472.268 194.104 472.126C194.104 471.984 194.06 471.846 193.977 471.73C193.894 471.615 193.777 471.528 193.643 471.482L181.283 464.272C181.148 464.227 181.031 464.14 180.949 464.025C180.866 463.909 180.821 463.771 180.821 463.629C180.821 463.487 180.866 463.348 180.949 463.233C181.031 463.117 181.148 463.031 181.283 462.985L187.463 459.442C187.597 459.396 187.714 459.309 187.797 459.194C187.88 459.079 187.924 458.94 187.924 458.798C187.924 458.656 187.88 458.517 187.797 458.402C187.714 458.287 187.597 458.2 187.463 458.154L185.506 457.032C185.16 456.854 184.777 456.761 184.388 456.761C184 456.761 183.616 456.854 183.271 457.032L181.324 458.154C180.977 458.327 180.594 458.416 180.207 458.416C179.819 458.416 179.436 458.327 179.089 458.154L160.003 447.133C159.054 446.649 158.004 446.396 156.939 446.396C155.873 446.396 154.823 446.649 153.875 447.133L150.074 449.368C149.944 449.199 149.783 449.056 149.6 448.946L128.681 436.874C123.84 434.073 121.172 430.385 121.172 426.461C121.172 422.176 124.417 417.85 130.061 414.596L135.664 411.351C147.54 404.502 166.853 404.502 178.718 411.351L200.946 424.36C213.676 431.704 234.369 431.704 247.1 424.36L323.825 380.07C330.283 376.341 333.836 371.294 333.836 365.856C333.836 360.418 330.283 355.35 323.825 351.632Z" fill="#E0E0E0"/>
<path d="M148.71 447.133C148.439 447.132 148.173 447.061 147.938 446.927L127.019 434.845C121.178 431.477 117.965 426.832 117.965 421.764C117.965 416.264 121.673 411.104 128.399 407.221L134.002 403.976C146.722 396.632 167.425 396.632 180.146 403.976L202.487 416.882C214.363 423.732 233.675 423.732 245.551 416.882L322.276 372.592C327.735 369.44 330.742 365.382 330.742 361.046C330.742 356.71 327.735 352.662 322.276 349.51L316.672 346.276C304.797 339.426 286.102 339.066 274.999 345.483L254.079 357.554C253.724 357.759 253.302 357.814 252.906 357.708C252.51 357.602 252.173 357.343 251.968 356.988C251.763 356.633 251.708 356.211 251.814 355.815C251.92 355.419 252.179 355.081 252.534 354.876L273.454 342.805C285.412 335.893 305.497 336.254 318.217 343.598L323.821 346.842C330.279 350.56 333.832 355.607 333.832 361.046C333.832 366.484 330.279 371.542 323.821 375.26L247.096 419.55C234.365 426.904 213.672 426.904 200.942 419.55L178.601 406.654C166.735 399.805 147.423 399.805 135.547 406.654L129.944 409.94C124.299 413.205 121.055 417.531 121.055 421.816C121.055 425.73 123.723 429.428 128.564 432.219L149.483 444.301C149.778 444.471 150.009 444.733 150.139 445.048C150.27 445.362 150.293 445.711 150.204 446.04C150.116 446.368 149.922 446.659 149.652 446.866C149.382 447.073 149.051 447.185 148.71 447.185V447.133Z" fill="#37474F"/>
<path d="M135.711 450.481V452.263C135.796 453.81 136.244 455.315 137.019 456.657C137.794 457.999 138.874 459.14 140.171 459.988L156.651 469.484L173.378 459.823V445.331L157.125 437.833C155.659 437.25 154.087 436.986 152.512 437.057C150.937 437.128 149.395 437.533 147.989 438.245L140.171 442.756C138.873 443.603 137.793 444.744 137.018 446.086C136.243 447.428 135.795 448.934 135.711 450.481Z" fill="#37474F"/>
<path d="M157.123 437.833C155.658 437.25 154.086 436.986 152.511 437.057C150.936 437.128 149.394 437.533 147.987 438.245L140.169 442.756C137.708 444.177 137.811 446.299 140.386 447.494L156.629 454.992L173.376 445.331L157.123 437.833Z" fill="#323C42"/>
<path opacity="0.1" d="M155.057 451.501C154.408 451.924 153.869 452.495 153.482 453.166C153.096 453.837 152.873 454.59 152.832 455.363V467.291L156.643 469.485L173.37 459.823V445.331L169.127 443.374L155.057 451.501Z" fill="#232C32"/>
<path d="M174.797 442.838C174.546 442.725 174.269 442.679 173.994 442.706C173.719 442.733 173.456 442.832 173.232 442.993L156.752 452.5C156.101 452.922 155.56 453.492 155.171 454.163C154.783 454.835 154.559 455.588 154.517 456.362V470.535C154.487 470.812 154.533 471.093 154.649 471.346C154.765 471.6 154.947 471.818 155.176 471.977L157.236 473.182C157.488 473.301 157.768 473.349 158.045 473.322C158.322 473.295 158.587 473.193 158.812 473.028L175.292 463.531C175.939 463.106 176.478 462.536 176.864 461.865C177.25 461.194 177.474 460.442 177.516 459.669V445.486C177.544 445.209 177.498 444.931 177.385 444.678C177.271 444.425 177.092 444.206 176.868 444.044L174.797 442.838Z" fill="#37474F"/>
<path d="M158.864 453.705L175.344 444.198C176.57 443.487 177.569 444.064 177.569 445.485V459.668C177.526 460.441 177.303 461.194 176.916 461.865C176.53 462.536 175.991 463.106 175.344 463.531L158.864 473.028C157.628 473.738 156.629 473.161 156.629 471.74V457.567C156.671 456.793 156.895 456.039 157.284 455.368C157.672 454.697 158.214 454.127 158.864 453.705Z" fill="#323C42"/>
<path d="M175.914 464.417L162.297 456.558L160.824 457.413V467.074L174.431 474.933C174.748 475.16 175.121 475.299 175.51 475.336C175.899 475.372 176.291 475.304 176.645 475.139L178.128 474.284C178.454 474.057 178.711 473.744 178.87 473.381C179.03 473.018 179.087 472.617 179.035 472.224V469.773C178.969 468.698 178.652 467.654 178.11 466.724C177.568 465.794 176.816 465.003 175.914 464.417ZM173.411 467.002C174.014 467.4 174.515 467.935 174.873 468.563C175.23 469.192 175.435 469.895 175.471 470.617C175.47 470.812 175.446 471.005 175.399 471.194C175.213 471.142 175.033 471.07 174.863 470.978C174.261 470.576 173.761 470.038 173.403 469.409C173.046 468.779 172.84 468.075 172.803 467.352C172.804 467.154 172.828 466.957 172.875 466.765C173.064 466.82 173.244 466.899 173.411 467.002Z" fill="#C2E23F"/>
<path opacity="0.85" d="M175.914 464.417L162.297 456.558L160.824 457.413L174.431 465.271C175.334 465.867 176.084 466.667 176.621 467.606C177.158 468.546 177.466 469.598 177.521 470.679V473.13C177.567 473.531 177.499 473.936 177.326 474.301C177.153 474.665 176.882 474.973 176.542 475.19H176.614L178.097 474.325C178.424 474.099 178.681 473.787 178.841 473.423C179.001 473.059 179.057 472.659 179.004 472.265V469.814C178.945 468.735 178.636 467.686 178.099 466.749C177.562 465.811 176.814 465.013 175.914 464.417Z" fill="white"/>
<path d="M179.033 469.824V472.276C179.087 472.669 179.031 473.07 178.871 473.434C178.711 473.797 178.453 474.109 178.127 474.336L176.644 475.201H176.582C176.92 474.982 177.19 474.673 177.361 474.309C177.532 473.945 177.597 473.54 177.55 473.141V470.71C177.513 469.619 177.198 468.555 176.634 467.62L178.117 466.765C178.677 467.69 178.993 468.743 179.033 469.824Z" fill="#C2E23F"/>
<path opacity="0.6" d="M179.033 469.824V472.276C179.087 472.669 179.031 473.07 178.871 473.434C178.711 473.797 178.453 474.109 178.127 474.336L176.644 475.201H176.582C176.92 474.982 177.19 474.673 177.361 474.309C177.532 473.945 177.597 473.54 177.55 473.141V470.71C177.513 469.619 177.198 468.555 176.634 467.62L178.117 466.765C178.677 467.69 178.993 468.743 179.033 469.824Z" fill="white"/>
<path opacity="0.05" d="M179.033 469.824V472.276C179.087 472.669 179.031 473.07 178.871 473.434C178.711 473.797 178.453 474.109 178.127 474.336L176.644 475.201H176.582C176.92 474.982 177.19 474.673 177.361 474.309C177.532 473.945 177.597 473.54 177.55 473.141V470.71C177.513 469.619 177.198 468.555 176.634 467.62L178.117 466.765C178.677 467.69 178.993 468.743 179.033 469.824Z" fill="#232C32"/>
<path opacity="0.6" d="M172.804 467.352C172.804 467.154 172.828 466.957 172.876 466.765C171.98 466.518 171.32 467.085 171.32 468.207C171.356 468.931 171.561 469.636 171.918 470.265C172.276 470.895 172.777 471.432 173.38 471.833C174.349 472.399 175.173 472.101 175.44 471.194C175.251 471.152 175.07 471.079 174.905 470.978C174.294 470.582 173.785 470.047 173.42 469.417C173.055 468.787 172.844 468.079 172.804 467.352Z" fill="white"/>
<path opacity="0.1" d="M172.804 467.352C172.804 467.154 172.828 466.957 172.876 466.765C171.98 466.518 171.32 467.085 171.32 468.207C171.356 468.931 171.561 469.636 171.918 470.265C172.276 470.895 172.777 471.432 173.38 471.833C174.349 472.399 175.173 472.101 175.44 471.194C175.251 471.152 175.07 471.079 174.905 470.978C174.294 470.582 173.785 470.047 173.42 469.417C173.055 468.787 172.844 468.079 172.804 467.352Z" fill="#232C32"/>
<path opacity="0.7" d="M174.431 465.272L160.824 457.413V467.074L174.431 474.933C176.161 475.963 177.521 475.118 177.521 473.13V470.71C177.473 469.623 177.169 468.564 176.631 467.618C176.094 466.672 175.34 465.868 174.431 465.272ZM173.401 471.833C172.798 471.431 172.299 470.893 171.941 470.264C171.583 469.634 171.378 468.93 171.341 468.207C171.341 466.868 172.278 466.332 173.401 467.002C174.004 467.4 174.504 467.935 174.862 468.564C175.22 469.192 175.425 469.895 175.461 470.617C175.502 471.956 174.564 472.492 173.411 471.833H173.401Z" fill="white"/>
<path d="M186.984 458.021L173.378 450.162L171.895 451.017V460.678L185.501 468.537C185.817 468.768 186.189 468.91 186.578 468.948C186.968 468.986 187.361 468.919 187.715 468.753L189.199 467.888C189.517 467.666 189.769 467.362 189.928 467.008C190.088 466.655 190.149 466.265 190.105 465.879V463.428C190.047 462.345 189.734 461.29 189.192 460.351C188.65 459.411 187.893 458.613 186.984 458.021ZM184.481 460.606C185.086 461.005 185.587 461.542 185.945 462.172C186.303 462.802 186.507 463.508 186.541 464.231C186.541 464.423 186.517 464.613 186.469 464.798C186.28 464.756 186.099 464.683 185.933 464.582C185.33 464.181 184.829 463.644 184.472 463.014C184.114 462.384 183.909 461.679 183.873 460.956C183.874 460.762 183.898 460.568 183.946 460.379C184.134 460.43 184.314 460.506 184.481 460.606Z" fill="#C2E23F"/>
<path opacity="0.85" d="M186.984 458.021L173.367 450.162L171.895 451.017L185.501 458.875C186.404 459.471 187.155 460.271 187.692 461.21C188.228 462.15 188.537 463.202 188.591 464.283V466.734C188.637 467.135 188.57 467.54 188.397 467.905C188.224 468.269 187.952 468.577 187.612 468.794H187.684L189.168 467.929C189.486 467.707 189.738 467.403 189.897 467.05C190.057 466.696 190.118 466.306 190.074 465.921V463.469C190.024 462.382 189.718 461.322 189.181 460.375C188.644 459.429 187.891 458.622 186.984 458.021Z" fill="white"/>
<path d="M190.108 463.428V465.879C190.152 466.265 190.09 466.655 189.931 467.008C189.771 467.362 189.519 467.666 189.201 467.888L187.718 468.753H187.656C187.994 468.535 188.264 468.226 188.435 467.862C188.606 467.497 188.672 467.093 188.624 466.693V464.242C188.588 463.15 188.272 462.087 187.708 461.152L189.191 460.297C189.763 461.243 190.079 462.322 190.108 463.428Z" fill="#C2E23F"/>
<path opacity="0.6" d="M190.108 463.428V465.879C190.152 466.265 190.09 466.655 189.931 467.008C189.771 467.362 189.519 467.666 189.201 467.888L187.718 468.753H187.656C187.994 468.535 188.264 468.226 188.435 467.862C188.606 467.497 188.672 467.093 188.624 466.693V464.242C188.588 463.15 188.272 462.087 187.708 461.152L189.191 460.297C189.763 461.243 190.079 462.322 190.108 463.428Z" fill="white"/>
<path opacity="0.05" d="M190.108 463.428V465.879C190.152 466.265 190.09 466.655 189.931 467.008C189.771 467.362 189.519 467.666 189.201 467.888L187.718 468.753H187.656C187.994 468.535 188.264 468.226 188.435 467.862C188.606 467.497 188.672 467.093 188.624 466.693V464.242C188.588 463.15 188.272 462.087 187.708 461.152L189.191 460.297C189.763 461.243 190.079 462.322 190.108 463.428Z" fill="#232C32"/>
<path opacity="0.6" d="M183.874 460.956C183.874 460.762 183.898 460.568 183.946 460.379C183.06 460.132 182.391 460.688 182.391 461.811C182.426 462.534 182.631 463.239 182.989 463.869C183.347 464.499 183.847 465.036 184.451 465.437C185.419 466.003 186.243 465.704 186.511 464.798C186.321 464.756 186.141 464.683 185.975 464.582C185.364 464.185 184.855 463.65 184.49 463.02C184.125 462.39 183.914 461.683 183.874 460.956Z" fill="white"/>
<path opacity="0.1" d="M183.874 460.956C183.874 460.762 183.898 460.568 183.946 460.379C183.06 460.132 182.391 460.688 182.391 461.811C182.426 462.534 182.631 463.239 182.989 463.869C183.347 464.499 183.847 465.036 184.451 465.437C185.419 466.003 186.243 465.704 186.511 464.798C186.321 464.756 186.141 464.683 185.975 464.582C185.364 464.185 184.855 463.65 184.49 463.02C184.125 462.39 183.914 461.683 183.874 460.956Z" fill="#232C32"/>
<path opacity="0.7" d="M185.511 458.876L171.895 451.017V460.678L185.501 468.537C187.231 469.567 188.591 468.733 188.591 466.734V464.283C188.535 463.204 188.228 462.153 187.693 461.214C187.158 460.275 186.411 459.474 185.511 458.876ZM184.481 465.437C183.878 465.036 183.377 464.499 183.019 463.869C182.661 463.239 182.457 462.534 182.421 461.811C182.421 460.482 183.358 459.936 184.481 460.606C185.086 461.005 185.587 461.542 185.945 462.172C186.303 462.802 186.507 463.508 186.541 464.231C186.572 465.56 185.635 466.106 184.481 465.437Z" fill="white"/>
<path d="M233.859 403.904L272.587 381.502C276.583 379.205 278.581 376.177 278.581 373.159C278.581 370.141 278.581 367.772 278.581 367.772L238.411 345.112C237.288 344.379 236.353 343.392 235.681 342.231C235.01 341.07 234.622 339.766 234.549 338.427V290.676L166.898 329.816V377.577C166.969 378.915 167.355 380.216 168.024 381.376C168.694 382.536 169.628 383.522 170.751 384.252L204.967 403.904C212.929 408.508 225.876 408.508 233.859 403.904Z" fill="#C2E23F"/>
<g opacity="0.6">
<path d="M233.859 403.904L272.587 381.502C276.583 379.205 278.581 376.177 278.581 373.159C278.581 370.141 278.581 367.772 278.581 367.772L238.411 345.112C237.288 344.379 236.353 343.392 235.681 342.231C235.01 341.07 234.622 339.766 234.549 338.427V290.676L166.898 329.816V377.577C166.969 378.915 167.355 380.216 168.024 381.376C168.694 382.536 169.628 383.522 170.751 384.252L204.967 403.904C212.929 408.508 225.876 408.508 233.859 403.904Z" fill="#232C32"/>
</g>
<path opacity="0.3" d="M183.142 385.982V391.4L170.782 384.252C169.662 383.519 168.73 382.533 168.061 381.373C167.392 380.214 167.004 378.914 166.93 377.578V329.775L179.784 322.39C180.042 325.655 180.34 329.044 180.608 332.34L171.565 337.572V374.879C171.63 376.217 172.014 377.521 172.684 378.682C173.354 379.842 174.291 380.827 175.417 381.553L183.142 385.982Z" fill="#232C32"/>
<path d="M171.566 374.838C171.637 376.175 172.023 377.477 172.692 378.637C173.362 379.796 174.296 380.782 175.419 381.512L204.969 398.517C212.952 403.121 225.899 403.132 233.892 398.517L272.64 376.125C280.623 371.521 280.623 364.043 272.64 359.429L243.079 342.423C241.957 341.69 241.023 340.703 240.354 339.542C239.685 338.38 239.299 337.077 239.227 335.739V298.422L171.577 337.562L171.566 374.838Z" fill="#C2E23F"/>
<path opacity="0.3" d="M171.566 374.838C171.637 376.175 172.023 377.477 172.692 378.637C173.362 379.796 174.296 380.782 175.419 381.512L204.969 398.517C212.952 403.121 225.899 403.132 233.892 398.517L272.64 376.125C280.623 371.521 280.623 364.043 272.64 359.429L243.079 342.423C241.957 341.69 241.023 340.703 240.354 339.542C239.685 338.38 239.299 337.077 239.227 335.739V298.422L171.577 337.562L171.566 374.838Z" fill="#232C32"/>
<path opacity="0.5" d="M250.929 346.955L243.081 342.423C241.958 341.69 241.025 340.703 240.356 339.542C239.686 338.38 239.3 337.077 239.229 335.739V298.422L171.578 337.562V374.879C171.649 376.216 172.035 377.518 172.704 378.678C173.374 379.838 174.308 380.823 175.43 381.553L183.155 386.013L250.929 346.955Z" fill="#232C32"/>
<path d="M278.594 367.771V373.158C278.594 376.187 276.534 379.194 272.599 381.512L233.861 403.894C229.616 406.164 224.873 407.343 220.059 407.323V401.957C224.873 401.977 229.616 400.798 233.861 398.527L272.599 376.125C276.585 373.828 278.594 370.8 278.594 367.771Z" fill="#C2E23F"/>
<path opacity="0.5" d="M278.594 367.771V373.158C278.594 376.187 276.534 379.194 272.599 381.512L233.861 403.894C229.616 406.164 224.873 407.343 220.059 407.323V401.957C224.873 401.977 229.616 400.798 233.861 398.527L272.599 376.125C276.585 373.828 278.594 370.8 278.594 367.771Z" fill="#232C32"/>
<path d="M62.9333 421.27C64.394 421.979 66.0018 422.333 67.6253 422.303C69.2489 422.272 70.8422 421.858 72.2754 421.095L333.895 270.035C336.553 268.5 338.705 264.761 338.705 265.812V27.5215C338.705 20.3115 336.645 16.6653 334.184 15.2233C332.724 14.5157 331.118 14.1628 329.497 14.1932C327.875 14.2236 326.284 14.6366 324.852 15.3984L63.2423 166.458C61.8385 167.371 60.6701 168.602 59.8325 170.052C58.9948 171.502 58.5115 173.129 58.4219 174.801V413.03C58.4666 414.663 58.899 416.261 59.6835 417.694C60.4679 419.127 61.5818 420.353 62.9333 421.27Z" fill="#C2E23F"/>
<path d="M72.2735 421.043L333.894 269.984C336.551 268.449 338.714 264.71 338.714 265.75V27.5114C338.714 20.3014 336.551 19.0757 333.894 20.6104L72.2735 171.67C70.8697 172.583 69.7014 173.814 68.8637 175.264C68.026 176.714 67.5427 178.341 67.4531 180.013V418.252C67.4531 421.332 69.6161 422.578 72.2735 421.043Z" fill="#C2E23F"/>
<path opacity="0.5" d="M72.2735 421.043L333.894 269.984C336.551 268.449 338.714 264.71 338.714 265.75V27.5114C338.714 20.3014 336.551 19.0757 333.894 20.6104L72.2735 171.67C70.8697 172.583 69.7014 173.814 68.8637 175.264C68.026 176.714 67.5427 178.341 67.4531 180.013V418.252C67.4531 421.332 69.6161 422.578 72.2735 421.043Z" fill="#232C32"/>
<path d="M71.5633 426.544C70.1953 427.133 68.7166 427.422 67.2274 427.39C65.7382 427.358 64.2732 427.006 62.9319 426.358C61.5868 425.448 60.476 424.233 59.6902 422.812C58.9043 421.39 58.4657 419.803 58.4102 418.18V403.019L67.4536 408.251V423.402C67.4536 426.204 69.2355 427.45 71.5633 426.544Z" fill="#C2E23F"/>
<path opacity="0.5" d="M71.5633 426.544C70.1953 427.133 68.7166 427.422 67.2274 427.39C65.7382 427.358 64.2732 427.006 62.9319 426.358C61.5868 425.448 60.476 424.233 59.6902 422.812C58.9043 421.39 58.4657 419.803 58.4102 418.18V403.019L67.4536 408.251V423.402C67.4536 426.204 69.2355 427.45 71.5633 426.544Z" fill="#232C32"/>
<path d="M67.4531 408.251V423.392C67.4531 426.482 69.6161 427.718 72.2735 426.173L333.894 275.123C335.297 274.208 336.465 272.974 337.302 271.523C338.14 270.072 338.624 268.443 338.714 266.77V251.588L67.4531 408.251Z" fill="#C2E23F"/>
<path opacity="0.3" d="M67.4531 408.21V423.392C67.4531 426.482 69.6161 427.718 72.2735 426.173L333.894 275.123C335.297 274.208 336.465 272.974 337.302 271.523C338.14 270.072 338.624 268.443 338.714 266.77V251.588L67.4531 408.21Z" fill="#232C32"/>
<path d="M76.4961 389.216V183.021C76.5516 182.016 76.8424 181.039 77.3452 180.168C77.848 179.296 78.5485 178.555 79.3904 178.005L326.796 35.1642C328.393 34.2475 329.691 34.9891 329.691 36.8328V243.08C329.635 244.083 329.344 245.059 328.841 245.929C328.339 246.798 327.638 247.537 326.796 248.086L79.3904 390.895C77.7939 391.812 76.4961 391.06 76.4961 389.216Z" fill="#C2E23F"/>
<path d="M76.4961 389.216V183.021C76.5516 182.016 76.8424 181.039 77.3452 180.168C77.848 179.296 78.5485 178.555 79.3904 178.005L326.796 35.1642C328.393 34.2475 329.691 34.9891 329.691 36.8328V243.08C329.635 244.083 329.344 245.059 328.841 245.929C328.339 246.798 327.638 247.537 326.796 248.086L79.3904 390.895C77.7939 391.812 76.4961 391.06 76.4961 389.216Z" fill="#263238"/>
<path opacity="0.7" d="M68.875 175.244C68.0185 176.694 67.5305 178.331 67.4536 180.013V408.251L58.4102 403.018V174.801C58.4723 173.121 58.9577 171.485 59.8213 170.042L68.875 175.244Z" fill="#232C32"/>
<path opacity="0.3" d="M338.696 22.5981C338.356 20.1158 336.347 19.2197 333.916 20.6102L72.2965 171.67C70.8718 172.553 69.6978 173.787 68.8871 175.254L59.8438 170.032C60.6603 168.57 61.833 167.337 63.2531 166.448L324.883 15.4499C326.316 14.6863 327.91 14.2725 329.533 14.242C331.157 14.2116 332.765 14.5655 334.225 15.2748C335.448 16.1074 336.48 17.1913 337.251 18.4541C338.022 19.717 338.514 21.1297 338.696 22.5981Z" fill="#232C32"/>
<path d="M101.352 401.782C100.778 402.121 100.132 402.315 99.4667 402.349C98.5188 402.473 97.5556 402.304 96.7063 401.865C96.0325 401.405 95.4776 400.792 95.0872 400.075C94.6968 399.359 94.4822 398.56 94.4609 397.745V210.697L98.9826 213.303V400.392C98.9826 401.484 99.5285 402.112 100.311 402.112C100.679 402.082 101.034 401.969 101.352 401.782Z" fill="#F0F0F0"/>
<path d="M350.027 255.44C349.977 256.267 349.734 257.07 349.317 257.785C348.901 258.501 348.322 259.109 347.627 259.56L101.354 401.782C100.036 402.545 98.9648 401.927 98.9648 400.392V197.76L105.567 193.949C106.886 193.187 109.038 181.589 110.367 180.775L167.635 147.712C168.964 146.95 172.085 155.551 173.403 154.778L350.027 52.8081V255.44Z" fill="#FAFAFA"/>
<path d="M348.915 54.6931V255.44C348.869 256.077 348.679 256.695 348.36 257.248C348.041 257.802 347.6 258.275 347.071 258.633L100.798 400.825C100.646 400.921 100.473 400.981 100.294 401C100.067 401 100.067 400.423 100.067 400.392V198.388L106.123 194.886C107.081 194.33 107.679 192.466 109.028 187.676C109.51 185.624 110.171 183.618 111.006 181.682L167.759 148.918C168.432 149.828 169.034 150.789 169.561 151.791C171.106 154.51 171.971 155.911 173.228 155.911C173.486 155.911 173.739 155.84 173.959 155.705L348.915 54.6931ZM350.027 52.7773L173.403 154.747C173.35 154.78 173.29 154.797 173.228 154.799C171.889 154.799 169.108 147.589 167.81 147.589C167.753 147.574 167.692 147.574 167.635 147.589L110.367 180.652C109.038 181.424 106.886 193.012 105.567 193.826L98.9648 197.76V400.392C98.9648 401.484 99.5004 402.112 100.294 402.112C100.66 402.096 101.016 401.982 101.324 401.783L347.627 259.56C348.322 259.109 348.901 258.501 349.317 257.786C349.734 257.07 349.977 256.267 350.027 255.44V52.7773Z" fill="#E0E0E0"/>
<path d="M96.7088 205.125C96.0331 204.666 95.4761 204.053 95.0839 203.337C94.6917 202.62 94.4755 201.821 94.4531 201.005V182.31C94.5004 181.487 94.7392 180.685 95.1504 179.97C95.5617 179.255 96.1341 178.645 96.8221 178.19L343.095 36.0502C343.788 35.611 344.588 35.3701 345.408 35.3535C346.229 35.3369 347.038 35.5453 347.748 35.9561C348.458 36.3669 349.042 36.9644 349.437 37.6837C349.831 38.403 350.021 39.2167 349.986 40.0363V58.7102C349.938 59.5372 349.695 60.3411 349.278 61.0569C348.861 61.7727 348.281 62.3802 347.586 62.8302L101.354 205.042C100.64 205.419 99.8482 205.623 99.0413 205.637C98.2344 205.651 97.4354 205.476 96.7088 205.125Z" fill="#C2E23F"/>
<path opacity="0.4" d="M349.995 39.5624C349.83 38.3161 348.821 37.8629 347.626 38.5324L101.353 180.755C100.65 181.211 100.067 181.829 99.6534 182.557L95.1523 179.951C95.5557 179.236 96.1287 178.632 96.8209 178.19L343.094 36.0501C343.757 35.6272 344.52 35.3868 345.306 35.3532C346.092 35.3196 346.873 35.4939 347.57 35.8585C348.267 36.2232 348.855 36.7653 349.275 37.4301C349.696 38.0949 349.933 38.8589 349.964 39.6448L349.995 39.5624Z" fill="white"/>
<path opacity="0.1" d="M99.6532 182.557C99.2249 183.271 98.9873 184.083 98.9631 184.916V213.354L94.4414 210.748V182.31C94.4362 182.214 94.4362 182.118 94.4414 182.022C94.4598 181.821 94.4908 181.621 94.5341 181.424C94.663 180.904 94.8641 180.405 95.1315 179.941L99.6532 182.557Z" fill="#232C32"/>
<path d="M350.017 39.9435V52.7773L173.393 154.747C172.074 155.52 171.003 154.892 171.003 153.367V148.506C171.003 146.981 169.973 146.353 168.593 147.125L110.357 180.745C109.663 181.196 109.084 181.804 108.668 182.52C108.251 183.235 108.007 184.038 107.957 184.865V189.716C107.904 190.542 107.66 191.344 107.244 192.059C106.827 192.775 106.25 193.383 105.557 193.836L98.9648 197.76V184.916C99.016 184.091 99.2586 183.289 99.6734 182.574C100.088 181.859 100.664 181.25 101.354 180.796L347.627 38.656C348.946 37.7908 350.017 38.4191 350.017 39.9435Z" fill="#C2E23F"/>
<path d="M338.766 47.9879C340.435 47.03 341.784 47.8128 341.784 49.7389C341.727 50.7867 341.424 51.8064 340.9 52.7154C340.376 53.6244 339.645 54.3972 338.766 54.9713C337.098 55.9292 335.738 55.1464 335.738 53.2203C335.797 52.1717 336.102 51.1518 336.628 50.2428C337.154 49.3339 337.887 48.5614 338.766 47.9879Z" fill="white"/>
<path d="M327.889 54.2605C329.558 53.3026 330.907 54.0751 330.907 56.0012C330.851 57.0494 330.549 58.0697 330.025 58.9789C329.5 59.8882 328.769 60.6607 327.889 61.2336C326.22 62.2018 324.871 61.419 324.871 59.4929C324.928 58.445 325.231 57.4254 325.755 56.5164C326.28 55.6074 327.011 54.8345 327.889 54.2605Z" fill="white"/>
<path d="M317.014 60.5331C318.683 59.5649 320.032 60.3477 320.032 62.2738C319.975 63.3216 319.672 64.3413 319.148 65.2503C318.623 66.1593 317.892 66.9321 317.014 67.5062C315.345 68.4641 313.996 67.6916 313.996 65.7655C314.052 64.7173 314.354 63.697 314.878 62.7877C315.403 61.8784 316.134 61.1059 317.014 60.5331Z" fill="white"/>
<path d="M350.027 52.7773V68.3818L98.9648 213.354V197.76L103.899 194.907C105.217 194.145 105.66 192.981 106.288 190.787L107.967 184.978C108.492 182.918 108.997 181.589 110.367 180.858L167.635 147.795C168.964 147.033 170.004 146.95 171.013 148.619L173.073 152.347C173.825 153.645 174.206 154.407 175.525 153.645L350.027 52.7773Z" fill="#E6E6E6"/>
<path d="M98.9631 197.74V213.354L94.4414 210.748V195.154L98.9631 197.74Z" fill="#E0E0E0"/>
<path opacity="0.5" d="M109.971 198.872L106.202 201.046L107.633 198.285C107.691 198.181 107.721 198.064 107.721 197.945C107.721 197.826 107.691 197.71 107.633 197.606C107.52 197.472 107.335 197.606 107.201 197.812L105.141 201.736C105.141 201.736 105.141 201.829 105.089 201.88C105.084 201.945 105.084 202.011 105.089 202.076C105.082 202.134 105.082 202.193 105.089 202.251C105.104 202.28 105.121 202.307 105.141 202.333L107.201 203.899C107.23 203.922 107.266 203.935 107.304 203.935C107.341 203.935 107.378 203.922 107.407 203.899C107.512 203.831 107.592 203.729 107.633 203.61C107.747 203.353 107.726 203.065 107.633 202.972L106.202 201.859L109.971 199.686C110.067 199.61 110.144 199.513 110.196 199.402C110.248 199.291 110.273 199.17 110.27 199.048C110.27 198.903 110.136 198.79 109.971 198.872Z" fill="#323C42"/>
<path opacity="0.5" d="M113.115 197.05L116.885 194.876L115.443 193.774C115.382 193.677 115.349 193.565 115.349 193.45C115.349 193.335 115.382 193.222 115.443 193.125C115.546 192.868 115.742 192.744 115.865 192.837L117.925 194.413C117.953 194.434 117.975 194.462 117.987 194.495C117.998 194.553 117.998 194.612 117.987 194.67C117.997 194.739 117.997 194.808 117.987 194.876L117.925 195.031L115.865 198.965C115.826 199.06 115.757 199.139 115.67 199.192C115.639 199.221 115.598 199.237 115.556 199.237C115.514 199.237 115.474 199.221 115.443 199.192C115.384 199.09 115.353 198.975 115.353 198.857C115.353 198.74 115.384 198.624 115.443 198.522L116.885 195.762L113.115 197.935C112.95 198.028 112.816 197.935 112.816 197.647C112.821 197.532 112.85 197.419 112.902 197.316C112.953 197.213 113.026 197.122 113.115 197.05Z" fill="#323C42"/>
<path opacity="0.5" d="M125.475 186.203C125.475 185.977 125.258 185.997 125.155 186.203L124.64 187.47C123.754 187.378 122.694 188.232 121.973 189.757C121.035 191.734 121.035 194.073 121.973 194.969C122.198 195.179 122.49 195.305 122.799 195.324C123.107 195.343 123.412 195.253 123.662 195.072C124.416 194.564 125.006 193.848 125.361 193.012C125.418 192.911 125.448 192.798 125.448 192.682C125.448 192.567 125.418 192.453 125.361 192.352C125.238 192.239 125.052 192.352 124.929 192.6C124.228 194.073 123.095 194.732 122.405 194.062C121.715 193.393 121.705 191.642 122.405 190.169C122.9 189.139 123.61 188.5 124.228 188.459L123.847 189.417C123.744 189.664 123.847 189.891 123.991 189.788L125.526 188.758C125.589 188.711 125.639 188.648 125.669 188.575C125.7 188.503 125.711 188.424 125.701 188.346L125.475 186.203Z" fill="#323C42"/>
<path opacity="0.5" d="M165.971 154.819L167.352 151.915C167.429 151.776 167.47 151.62 167.47 151.461C167.47 151.303 167.429 151.147 167.352 151.008C167.187 150.854 166.919 151.008 166.764 151.348L165.384 154.253L164.014 152.934C163.85 152.78 163.592 152.934 163.427 153.274C163.344 153.411 163.301 153.568 163.301 153.727C163.301 153.887 163.344 154.044 163.427 154.181L164.797 155.53L163.427 158.435C163.344 158.571 163.301 158.728 163.301 158.888C163.301 159.048 163.344 159.204 163.427 159.341C163.467 159.376 163.518 159.396 163.571 159.396C163.625 159.396 163.676 159.376 163.716 159.341C163.85 159.255 163.954 159.129 164.014 158.98L165.384 156.076L166.764 157.394C166.804 157.43 166.855 157.449 166.909 157.449C166.962 157.449 167.013 157.43 167.053 157.394C167.187 157.308 167.292 157.182 167.352 157.034C167.429 156.895 167.47 156.739 167.47 156.581C167.47 156.422 167.429 156.266 167.352 156.127L165.971 154.819Z" fill="#323C42"/>
<path d="M130.48 189.778V184.916C130.53 184.09 130.774 183.286 131.19 182.571C131.607 181.855 132.186 181.247 132.88 180.796L334.111 64.6225C335.44 63.85 336.511 64.4783 336.511 66.0027V70.8643C336.461 71.6909 336.218 72.4942 335.801 73.2097C335.385 73.9253 334.806 74.5331 334.111 74.9843L132.87 191.158C131.552 191.93 130.48 191.302 130.48 189.778Z" fill="#FAFAFA"/>
<path d="M330.847 75.3962C330.775 75.408 330.702 75.408 330.63 75.3962C330.496 75.3339 330.386 75.2273 330.321 75.0943C330.255 74.9612 330.237 74.8097 330.27 74.6649L330.507 72.6976L329.58 72.0281C329.499 71.9647 329.435 71.8831 329.392 71.79C329.349 71.6969 329.328 71.595 329.333 71.4925C329.329 71.3326 329.362 71.174 329.43 71.0292C329.498 70.8844 329.598 70.7574 329.724 70.6582L331.135 69.5664C331.163 69.5331 331.184 69.4946 331.197 69.4531L331.825 67.3931C331.864 67.2236 331.952 67.0693 332.079 66.9501C332.205 66.8309 332.364 66.752 332.536 66.7236C332.652 66.7105 332.769 66.7356 332.869 66.795C332.97 66.8545 333.048 66.9452 333.092 67.0532L333.617 68.1759L334.812 67.7227C334.918 67.6753 335.037 67.6637 335.15 67.6897C335.264 67.7157 335.366 67.7779 335.44 67.8669C335.538 68.0094 335.591 68.1782 335.591 68.351C335.591 68.5239 335.538 68.6927 335.44 68.8351L334.41 70.7509C334.406 70.7886 334.406 70.8266 334.41 70.8642L334.658 72.5946C334.677 72.7529 334.659 72.9135 334.605 73.0636C334.551 73.2137 334.464 73.3494 334.349 73.4598C334.281 73.5392 334.195 73.6005 334.098 73.6382C334.001 73.676 333.896 73.689 333.792 73.6761L332.69 73.501L331.444 75.0872C331.378 75.1841 331.288 75.263 331.184 75.3169C331.08 75.3708 330.964 75.3981 330.847 75.3962ZM330.167 71.3792L331.094 72.0487C331.19 72.127 331.263 72.2292 331.306 72.345C331.35 72.4608 331.362 72.586 331.341 72.7079L331.176 74.0263L332.011 72.9963C332.082 72.8949 332.178 72.8133 332.29 72.7592C332.402 72.7052 332.525 72.6804 332.649 72.6873L333.803 72.8315C333.81 72.7872 333.81 72.7419 333.803 72.6976L333.556 70.9672C333.536 70.7536 333.579 70.539 333.679 70.3492L334.575 68.6703L333.72 69.0102C333.585 69.0661 333.433 69.0673 333.297 69.0135C333.16 68.9597 333.05 68.8552 332.989 68.7218L332.577 67.836L332.011 69.6797C331.952 69.8872 331.829 70.0709 331.66 70.205L330.249 71.235C330.209 71.2743 330.18 71.3243 330.167 71.3792Z" fill="#E0E0E0"/>
<g opacity="0.5">
<path d="M339.344 64.025C339.159 64.0303 338.978 63.9735 338.83 63.8635C338.681 63.7535 338.574 63.5968 338.525 63.4186C338.477 63.2403 338.489 63.0508 338.561 62.8806C338.633 62.7104 338.76 62.5693 338.922 62.4799L345.679 58.5762C345.774 58.514 345.88 58.4717 345.992 58.4521C346.104 58.4324 346.218 58.4358 346.329 58.462C346.439 58.4881 346.543 58.5366 346.634 58.6043C346.725 58.6721 346.802 58.7577 346.859 58.8559C346.915 58.9542 346.952 59.063 346.965 59.1757C346.978 59.2885 346.968 59.4027 346.936 59.5115C346.904 59.6203 346.85 59.7214 346.777 59.8085C346.704 59.8957 346.614 59.967 346.513 60.0183L339.756 63.9116C339.633 63.9885 339.49 64.0278 339.344 64.025Z" fill="#323C42"/>
<path d="M339.344 67.9802C339.198 67.9815 339.055 67.9441 338.928 67.8717C338.801 67.7993 338.696 67.6946 338.623 67.5682C338.513 67.3765 338.483 67.1494 338.539 66.9357C338.595 66.7219 338.732 66.5386 338.922 66.4249L345.679 62.5315C345.773 62.4759 345.878 62.4395 345.987 62.4244C346.095 62.4093 346.206 62.4158 346.312 62.4436C346.418 62.4713 346.518 62.5198 346.606 62.5861C346.693 62.6525 346.766 62.7354 346.822 62.8302C346.877 62.9247 346.912 63.0292 346.927 63.1375C346.941 63.2459 346.933 63.356 346.905 63.4614C346.876 63.5669 346.826 63.6656 346.759 63.7517C346.692 63.8379 346.608 63.9098 346.513 63.9632L339.756 67.8669C339.633 67.9438 339.489 67.9831 339.344 67.9802Z" fill="#323C42"/>
<path d="M339.345 71.8324C339.161 71.8329 338.982 71.7729 338.836 71.6616C338.69 71.5503 338.585 71.3939 338.537 71.2167C338.489 71.0395 338.501 70.8514 338.57 70.6815C338.64 70.5116 338.764 70.3695 338.922 70.2771L345.679 66.3734C345.872 66.2646 346.1 66.2361 346.314 66.2939C346.528 66.3517 346.71 66.4912 346.822 66.6824C346.877 66.7768 346.913 66.8813 346.927 66.9897C346.941 67.098 346.934 67.2081 346.905 67.3136C346.876 67.419 346.827 67.5177 346.76 67.6038C346.692 67.69 346.609 67.7619 346.513 67.8154L339.757 71.7191C339.631 71.7911 339.489 71.8301 339.345 71.8324Z" fill="#323C42"/>
</g>
<g opacity="0.5">
<path d="M106.368 217.722C106.183 217.727 106.002 217.67 105.853 217.56C105.705 217.45 105.597 217.293 105.549 217.115C105.5 216.937 105.513 216.748 105.584 216.577C105.656 216.407 105.783 216.266 105.945 216.177L112.702 212.273C112.892 212.177 113.112 212.157 113.316 212.218C113.521 212.278 113.694 212.415 113.801 212.6C113.907 212.784 113.94 213.002 113.89 213.21C113.841 213.417 113.715 213.598 113.536 213.715L106.78 217.608C106.655 217.684 106.513 217.723 106.368 217.722Z" fill="#323C42"/>
<path d="M106.367 221.626C106.221 221.627 106.078 221.589 105.951 221.517C105.824 221.445 105.719 221.34 105.646 221.214C105.591 221.119 105.554 221.014 105.539 220.905C105.524 220.797 105.531 220.686 105.558 220.58C105.586 220.474 105.635 220.374 105.701 220.287C105.767 220.199 105.85 220.126 105.945 220.07L112.702 216.177C112.796 216.121 112.9 216.085 113.007 216.07C113.115 216.055 113.225 216.062 113.331 216.09C113.436 216.118 113.535 216.166 113.621 216.232C113.708 216.298 113.78 216.381 113.835 216.476C113.89 216.57 113.927 216.675 113.942 216.784C113.957 216.892 113.95 217.003 113.923 217.109C113.895 217.215 113.847 217.315 113.78 217.403C113.714 217.49 113.631 217.564 113.536 217.619L106.779 221.512C106.655 221.587 106.512 221.627 106.367 221.626Z" fill="#323C42"/>
<path d="M106.368 225.57C106.184 225.571 106.006 225.511 105.86 225.4C105.714 225.288 105.609 225.132 105.56 224.955C105.512 224.778 105.524 224.589 105.594 224.42C105.663 224.25 105.787 224.108 105.946 224.015L112.703 220.122C112.796 220.065 112.9 220.028 113.008 220.012C113.116 219.996 113.227 220.002 113.333 220.03C113.438 220.058 113.537 220.107 113.624 220.174C113.71 220.241 113.782 220.325 113.836 220.42C113.891 220.514 113.927 220.618 113.942 220.726C113.957 220.834 113.95 220.944 113.923 221.049C113.895 221.155 113.847 221.253 113.78 221.34C113.714 221.427 113.631 221.499 113.537 221.553L106.78 225.457C106.654 225.528 106.513 225.567 106.368 225.57Z" fill="#323C42"/>
</g>
<path d="M166.293 183.34V189.324C166.293 190.55 167.158 191.044 168.219 190.437L248.487 144.025V133.581L168.229 179.992C167.666 180.358 167.196 180.852 166.86 181.434C166.523 182.016 166.329 182.669 166.293 183.34Z" fill="#E6E6E6"/>
<path d="M258.603 127.72C259.633 127.102 260.529 127.607 260.529 128.833V134.817C260.492 135.485 260.298 136.135 259.963 136.715C259.629 137.295 259.163 137.788 258.603 138.154L248.488 143.994V133.581L258.603 127.72Z" fill="#C2E23F"/>
<path d="M257.849 135.96L256.726 135.599C256.841 135.124 256.9 134.636 256.902 134.147C256.954 133.691 256.886 133.228 256.706 132.806C256.525 132.383 256.238 132.015 255.872 131.737C255.617 131.601 255.33 131.537 255.041 131.552C254.753 131.566 254.474 131.659 254.234 131.819C253.516 132.37 252.937 133.083 252.545 133.899C252.154 134.714 251.959 135.611 251.978 136.516C251.926 136.973 251.993 137.435 252.174 137.858C252.354 138.28 252.642 138.649 253.008 138.926C253.225 139.049 253.47 139.113 253.719 139.112C254.046 139.108 254.367 139.016 254.646 138.844C255.507 138.254 256.148 137.396 256.469 136.403L257.602 136.753C257.643 136.763 257.685 136.763 257.726 136.753C257.831 136.764 257.936 136.734 258.02 136.669C258.104 136.604 258.159 136.51 258.175 136.405C258.191 136.3 258.166 136.194 258.105 136.107C258.045 136.02 257.953 135.96 257.849 135.939V135.96ZM254.234 138.123C254.118 138.208 253.98 138.259 253.837 138.272C253.694 138.285 253.55 138.258 253.42 138.195C253.193 137.983 253.019 137.721 252.914 137.429C252.808 137.137 252.773 136.824 252.812 136.516C252.801 135.759 252.96 135.008 253.278 134.32C253.595 133.632 254.062 133.024 254.646 132.54C254.802 132.446 254.979 132.393 255.161 132.386C255.266 132.383 255.371 132.411 255.46 132.468C255.687 132.68 255.86 132.942 255.966 133.234C256.072 133.526 256.106 133.839 256.067 134.147C256.077 134.903 255.917 135.651 255.6 136.338C255.283 137.024 254.816 137.63 254.234 138.113V138.123Z" fill="#FAFAFA"/>
<path d="M132.932 200.366L121.344 207.03C120.784 207.392 120.318 207.881 119.983 208.457C119.648 209.034 119.454 209.681 119.418 210.347V216.31C119.418 217.536 120.283 218.031 121.344 217.423L132.932 210.718C133.49 210.353 133.955 209.862 134.288 209.284C134.621 208.706 134.813 208.057 134.847 207.391V201.468C134.847 200.253 133.992 199.748 132.932 200.366Z" fill="#C2E23F"/>
<path d="M334.453 84.0069C333.14 84.8645 332.048 86.0191 331.264 87.3772C330.48 88.7354 330.027 90.2589 329.941 91.8246C329.941 94.7086 332.001 95.8725 334.453 94.4408C335.768 93.5826 336.863 92.4268 337.649 91.0668C338.434 89.7068 338.888 88.181 338.975 86.6128C338.975 83.7288 336.945 82.5649 334.453 84.0069Z" fill="#C2E23F"/>
<path d="M333.926 88.5803C333.786 88.5827 333.647 88.5471 333.525 88.4773C333.381 88.3757 333.266 88.239 333.19 88.0804C333.115 87.9217 333.081 87.7463 333.092 87.5709C333.111 87.158 333.229 86.7557 333.435 86.3974C333.641 86.039 333.929 85.7351 334.276 85.5109C334.417 85.3996 334.588 85.3331 334.767 85.3202C334.947 85.3073 335.125 85.3484 335.281 85.4383C335.436 85.5282 335.561 85.6628 335.639 85.8245C335.717 85.9862 335.745 86.1676 335.718 86.3452C335.696 86.7586 335.577 87.1609 335.369 87.519C335.161 87.8771 334.872 88.1808 334.524 88.4052C334.342 88.5123 334.137 88.5725 333.926 88.5803Z" fill="white"/>
<path d="M336.231 88.8996C335.98 88.7744 335.7 88.7197 335.421 88.7415C335.142 88.7633 334.873 88.8606 334.645 89.0232L333.986 89.4043C333.388 89.7835 332.889 90.3001 332.53 90.9109C332.172 91.5218 331.965 92.2094 331.926 92.9166V93.3904C332.329 93.5647 332.771 93.6317 333.207 93.5848C333.644 93.5379 334.061 93.3786 334.418 93.1226C335.458 92.4762 336.316 91.5759 336.911 90.5064V90.3931C336.939 90.1063 336.891 89.8172 336.772 89.555C336.652 89.2928 336.466 89.0667 336.231 88.8996Z" fill="white"/>
<path d="M318.478 97.9735V96.377C318.478 94.5642 317.376 93.7299 316.016 94.5127C315.264 95.0508 314.648 95.758 314.219 96.5773C313.79 97.3966 313.559 98.3052 313.544 99.2301V100.662C313.511 101.645 313.224 102.604 312.71 103.443C312.582 103.662 312.511 103.91 312.504 104.164C312.504 104.627 312.782 104.833 313.122 104.638L318.9 101.311C319.088 101.173 319.242 100.993 319.349 100.786C319.456 100.578 319.514 100.349 319.518 100.116C319.525 100.027 319.512 99.9368 319.48 99.8531C319.448 99.7694 319.397 99.6939 319.333 99.6318C319.042 99.471 318.806 99.2275 318.654 98.9324C318.502 98.6372 318.44 98.3035 318.478 97.9735Z" fill="#C2E23F"/>
<path d="M317.239 102.794C317.231 103.238 317.12 103.674 316.914 104.067C316.709 104.46 316.414 104.8 316.054 105.06C315.395 105.431 314.859 105.06 314.859 104.164L317.239 102.794Z" fill="#C2E23F"/>
<path d="M297.172 105.554C297.487 105.368 297.838 105.248 298.202 105.204C298.487 105.171 298.776 105.228 299.026 105.369C299.268 105.517 299.459 105.737 299.572 105.997C299.705 106.356 299.758 106.739 299.726 107.12C299.73 107.467 299.692 107.812 299.613 108.15C299.539 108.452 299.442 108.748 299.325 109.036C299.212 109.307 299.085 109.572 298.944 109.829L298.532 110.57C298.408 110.807 298.284 111.054 298.181 111.291C298.083 111.519 298.01 111.758 297.965 112.002C297.955 112.119 297.927 112.233 297.883 112.342C297.848 112.425 297.791 112.496 297.718 112.548L296.554 113.217C296.482 113.217 296.42 113.217 296.379 113.217C296.349 113.186 296.327 113.149 296.313 113.108C296.298 113.067 296.293 113.024 296.297 112.981C296.295 112.663 296.34 112.347 296.43 112.043C296.513 111.745 296.617 111.452 296.739 111.168C296.873 110.89 297.007 110.612 297.162 110.354C297.316 110.097 297.44 109.839 297.574 109.612C297.708 109.386 297.8 109.149 297.893 108.933C297.971 108.739 298.012 108.533 298.017 108.325C298.017 108.037 297.945 107.851 297.811 107.779C297.677 107.707 297.45 107.779 297.162 107.903C296.915 108.033 296.705 108.224 296.554 108.459C296.44 108.644 296.347 108.841 296.276 109.046L296.132 109.561C296.1 109.701 296.015 109.822 295.895 109.901L294.731 110.57C294.71 110.585 294.685 110.594 294.659 110.594C294.633 110.594 294.608 110.585 294.587 110.57C294.563 110.542 294.546 110.509 294.535 110.474C294.525 110.438 294.521 110.401 294.525 110.364C294.54 109.964 294.602 109.566 294.71 109.18C294.841 108.722 295.014 108.278 295.225 107.851C295.45 107.402 295.727 106.98 296.049 106.595C296.358 106.183 296.738 105.831 297.172 105.554ZM297.996 115.071C297.996 115.182 297.971 115.291 297.924 115.391C297.885 115.48 297.82 115.555 297.739 115.607L296.544 116.297C296.532 116.309 296.519 116.318 296.504 116.324C296.489 116.33 296.473 116.334 296.456 116.334C296.44 116.334 296.424 116.33 296.409 116.324C296.394 116.318 296.38 116.309 296.369 116.297C296.339 116.266 296.317 116.228 296.302 116.187C296.288 116.147 296.283 116.103 296.286 116.06V114.587C296.289 114.476 296.317 114.367 296.369 114.268C296.401 114.176 296.462 114.096 296.544 114.041L297.739 113.351C297.765 113.33 297.797 113.318 297.831 113.318C297.865 113.318 297.898 113.33 297.924 113.351C297.951 113.382 297.972 113.418 297.984 113.457C297.997 113.496 298.001 113.537 297.996 113.578V115.071Z" fill="#C2E23F"/>
<path d="M166.406 291.109C165.459 291.11 164.55 290.74 163.872 290.079C163.392 289.585 163.02 288.996 162.779 288.351C162.538 287.706 162.433 287.018 162.471 286.33V278.708L142.139 290.46C141.518 290.835 140.805 291.031 140.079 291.027C139.135 291.03 138.228 290.66 137.556 289.997C137.072 289.502 136.697 288.913 136.454 288.265C136.211 287.618 136.106 286.927 136.145 286.237V273.671C136.128 271.417 136.526 269.179 137.319 267.069L160.339 209.09C160.745 207.993 161.292 206.955 161.967 206C162.606 205.192 163.396 204.517 164.295 204.012L175.913 197.307C176.534 196.932 177.247 196.736 177.973 196.74C178.916 196.74 179.822 197.11 180.496 197.77C180.978 198.264 181.352 198.852 181.595 199.497C181.838 200.142 181.944 200.831 181.908 201.52V242.544L184.658 240.958C185.278 240.582 185.992 240.386 186.718 240.392C187.66 240.396 188.565 240.765 189.241 241.422C189.709 241.935 190.067 242.539 190.292 243.196C190.517 243.854 190.605 244.55 190.549 245.243V257.799C190.543 259.081 190.247 260.345 189.684 261.496C189.169 262.705 188.296 263.726 187.181 264.422L181.856 267.512V278.1C181.848 279.385 181.553 280.652 180.991 281.808C180.476 283.016 179.602 284.037 178.488 284.733L168.415 290.553C167.804 290.907 167.112 291.099 166.406 291.109ZM159.32 255.605L162.853 253.545V246.695L159.32 255.605Z" fill="#E0E0E0"/>
<path d="M209.388 265.359H208.77C205.517 265.272 202.429 263.911 200.169 261.569C197.841 259.015 196.213 255.904 195.442 252.535C194.455 248.639 193.899 244.646 193.783 240.629C193.68 237.446 193.629 233.944 193.629 230.205C193.629 226.466 193.629 222.82 193.783 219.369C193.952 214.797 194.497 210.246 195.411 205.763C196.32 201.229 197.751 196.815 199.675 192.61C201.559 188.464 203.984 184.585 206.885 181.074C209.866 177.492 213.462 174.472 217.504 172.154C221.563 169.806 225.065 168.673 228.227 168.673H228.845C232.095 168.77 235.18 170.129 237.445 172.463C239.769 175.019 241.397 178.13 242.173 181.496C243.158 185.393 243.714 189.386 243.831 193.403C243.934 196.812 243.986 200.397 243.986 204.074C243.986 207.751 243.986 211.284 243.831 214.662C243.657 219.234 243.113 223.785 242.204 228.269C241.284 232.798 239.85 237.208 237.929 241.411C236.046 245.558 233.621 249.437 230.719 252.947C227.736 256.53 224.141 259.553 220.1 261.878C216.052 264.216 212.54 265.359 209.388 265.359ZM222.294 194.67C221.509 194.765 220.759 195.052 220.11 195.504C218.921 196.181 217.872 197.08 217.02 198.151C216.157 199.265 215.462 200.501 214.96 201.818C214.39 203.31 213.976 204.856 213.724 206.433C213.426 208.217 213.258 210.021 213.219 211.83C212.962 218.473 212.962 225.096 213.219 231.565C213.249 233.167 213.404 234.765 213.683 236.344C213.799 237.218 214.109 238.055 214.589 238.795C214.669 238.923 214.778 239.031 214.906 239.11C215.035 239.188 215.181 239.236 215.331 239.248C216.138 239.172 216.911 238.888 217.576 238.424C218.765 237.741 219.813 236.839 220.666 235.767C221.553 234.641 222.271 233.392 222.799 232.059C223.382 230.59 223.796 229.059 224.034 227.496C224.299 225.705 224.454 223.899 224.498 222.089C224.704 215.342 224.704 208.699 224.498 202.344C224.425 200.757 224.246 199.178 223.962 197.616C223.832 196.718 223.52 195.856 223.046 195.082C222.978 194.966 222.884 194.869 222.772 194.797C222.659 194.725 222.53 194.682 222.397 194.67H222.294Z" fill="#E0E0E0"/>
<path d="M279.366 225.889C278.419 225.89 277.51 225.52 276.832 224.859C276.352 224.365 275.98 223.777 275.739 223.132C275.498 222.486 275.393 221.798 275.431 221.11V213.488L255.058 225.251C254.455 225.617 253.765 225.812 253.06 225.817C252.112 225.822 251.201 225.452 250.526 224.787C250.046 224.293 249.673 223.705 249.432 223.06C249.191 222.414 249.086 221.726 249.125 221.038V208.441C249.105 206.201 249.499 203.977 250.289 201.88L273.299 143.922C273.701 142.826 274.245 141.787 274.916 140.832C275.558 140.026 276.348 139.351 277.244 138.844L288.863 132.139C289.484 131.765 290.197 131.569 290.923 131.572C291.867 131.569 292.774 131.939 293.446 132.602C293.928 133.096 294.302 133.684 294.545 134.329C294.788 134.974 294.894 135.663 294.857 136.352V177.376L297.618 175.79C298.22 175.423 298.91 175.227 299.616 175.224C300.558 175.228 301.463 175.597 302.139 176.254C302.621 176.751 302.996 177.342 303.239 177.991C303.481 178.64 303.588 179.332 303.55 180.024V192.61C303.543 193.894 303.251 195.161 302.695 196.318C302.177 197.525 301.304 198.545 300.193 199.243L294.857 202.333V212.922C294.848 214.206 294.556 215.472 294.002 216.63C293.484 217.839 292.606 218.86 291.489 219.555L281.416 225.374C280.79 225.725 280.083 225.903 279.366 225.889ZM272.29 190.385L275.823 188.325V181.476L272.29 190.385Z" fill="#E0E0E0"/>
<path d="M196.192 248.539C196.116 248.462 196.029 248.396 195.934 248.343L188.117 243.832V206.752C188.146 206.411 188.107 206.067 188.001 205.741C187.895 205.415 187.724 205.115 187.499 204.857L187.251 204.671L178.898 199.82C178.706 199.718 178.49 199.672 178.273 199.686C178.057 199.701 177.849 199.776 177.672 199.902L166.054 206.608C165.448 206.945 164.913 207.396 164.478 207.936C163.947 208.692 163.521 209.517 163.211 210.388L140.201 268.325C139.507 270.133 139.158 272.054 139.171 273.99V286.546C139.139 286.887 139.178 287.231 139.284 287.557C139.39 287.883 139.562 288.184 139.789 288.441C139.865 288.518 139.952 288.584 140.046 288.637L148.4 293.468C148.59 293.568 148.806 293.613 149.021 293.597C149.236 293.58 149.442 293.503 149.615 293.375L165.518 284.28V286.7C165.489 287.041 165.528 287.384 165.632 287.709C165.737 288.034 165.905 288.336 166.126 288.596L166.373 288.781L174.747 293.612C174.937 293.714 175.152 293.76 175.367 293.746C175.582 293.731 175.788 293.656 175.963 293.529L186.036 287.71C186.692 287.272 187.202 286.648 187.499 285.918C187.898 285.107 188.109 284.216 188.117 283.312V271.209L194.729 267.388C195.39 266.955 195.9 266.329 196.192 265.596C196.591 264.785 196.803 263.894 196.81 262.99V250.434C196.84 250.093 196.8 249.749 196.694 249.423C196.588 249.098 196.417 248.797 196.192 248.539Z" fill="#C2E23F"/>
<path opacity="0.15" d="M172.791 212.798V212.942C172.316 213.669 171.922 214.446 171.617 215.26L148.617 273.197C148.316 273.967 148.088 274.764 147.937 275.576L139.512 270.715C139.669 269.915 139.893 269.129 140.181 268.366L163.181 210.429C163.5 209.56 163.929 208.736 164.458 207.978L172.791 212.798Z" fill="#232C32"/>
<path opacity="0.3" d="M148.318 293.447C147.37 292.901 140.397 288.874 140.078 288.689C139.985 288.63 139.898 288.561 139.82 288.483C139.593 288.226 139.422 287.925 139.315 287.599C139.209 287.273 139.17 286.929 139.202 286.587V274.042C139.205 272.935 139.315 271.831 139.532 270.746L147.895 275.577C147.677 276.662 147.57 277.766 147.576 278.873V291.429C147.546 291.767 147.585 292.109 147.689 292.433C147.793 292.756 147.962 293.056 148.184 293.313L148.318 293.447Z" fill="#232C32"/>
<path opacity="0.3" d="M174.272 238.466V260.261L167.227 256.192L174.272 238.466Z" fill="#232C32"/>
<path opacity="0.4" d="M174.272 260.26L163.035 266.739L167.227 256.192L174.272 260.26Z" fill="#232C32"/>
<path opacity="0.3" d="M174.503 293.406L174.647 293.529L166.407 288.771C166.314 288.72 166.23 288.654 166.16 288.575C165.933 288.318 165.762 288.017 165.656 287.691C165.549 287.365 165.511 287.021 165.542 286.68V284.28L173.905 279.449V291.49C173.869 291.833 173.903 292.18 174.005 292.51C174.108 292.839 174.277 293.144 174.503 293.406Z" fill="#232C32"/>
<path opacity="0.15" d="M195.842 248.302C195.662 248.232 195.467 248.207 195.274 248.231C195.082 248.254 194.898 248.325 194.74 248.436L188.117 252.257V243.842L195.842 248.302Z" fill="#232C32"/>
<path opacity="0.4" d="M187.2 204.661C187.013 204.576 186.807 204.542 186.603 204.562C186.399 204.582 186.203 204.655 186.036 204.774L174.428 211.48C173.824 211.816 173.29 212.263 172.852 212.798L164.488 207.967C164.922 207.433 165.453 206.985 166.054 206.649L177.672 199.944C177.848 199.815 178.057 199.74 178.275 199.727C178.492 199.714 178.708 199.764 178.898 199.871L187.2 204.661Z" fill="white"/>
<path d="M175.963 293.55C175.748 293.713 175.481 293.793 175.212 293.774C174.943 293.755 174.69 293.639 174.5 293.447C174.274 293.19 174.102 292.889 173.996 292.563C173.89 292.237 173.851 291.893 173.882 291.552V279.429L149.646 293.416C149.432 293.582 149.165 293.662 148.895 293.643C148.625 293.624 148.372 293.507 148.183 293.313C147.957 293.056 147.785 292.756 147.679 292.43C147.572 292.104 147.534 291.76 147.565 291.418V278.863C147.552 276.926 147.902 275.005 148.595 273.198L171.575 215.27C171.895 214.404 172.321 213.581 172.842 212.819C173.281 212.283 173.815 211.833 174.418 211.49L186.036 204.785C186.251 204.622 186.518 204.542 186.787 204.561C187.056 204.58 187.309 204.696 187.499 204.888C187.724 205.146 187.895 205.447 188.001 205.772C188.107 206.098 188.146 206.442 188.117 206.783V252.268L194.729 248.447C194.946 248.288 195.211 248.211 195.479 248.23C195.747 248.248 196 248.362 196.192 248.55C196.417 248.808 196.588 249.109 196.694 249.434C196.8 249.76 196.84 250.104 196.81 250.445V263.001C196.803 263.905 196.591 264.795 196.192 265.606C195.9 266.34 195.39 266.966 194.729 267.399L188.117 271.22V283.25C188.109 284.154 187.898 285.045 187.499 285.856C187.202 286.587 186.692 287.211 186.036 287.648L175.963 293.55ZM174.263 260.292V238.456L163.036 266.77L174.263 260.292Z" fill="#C2E23F"/>
<path d="M250.125 198.687C250.017 194.864 249.488 191.064 248.549 187.357C247.878 184.416 246.459 181.698 244.429 179.467C243.82 178.827 243.127 178.272 242.369 177.819C240.978 176.995 234.757 173.421 233.995 172.978C232.536 172.145 230.895 171.682 229.216 171.629C226.469 171.485 223.163 172.515 219.297 174.719C215.514 176.878 212.151 179.701 209.368 183.052C206.597 186.386 204.283 190.075 202.487 194.021C200.63 198.046 199.248 202.274 198.367 206.618C197.481 210.959 196.954 215.365 196.791 219.792C196.688 223.225 196.637 226.806 196.637 230.535C196.637 234.253 196.688 237.693 196.791 240.835C196.898 244.658 197.426 248.458 198.367 252.165C199.036 255.109 200.456 257.831 202.487 260.065C203.097 260.7 203.79 261.251 204.547 261.702C205.948 262.526 212.252 266.162 213.055 266.616C214.487 267.407 216.086 267.848 217.721 267.903C220.481 268.047 223.798 267.007 227.64 264.813C231.418 262.647 234.78 259.826 237.569 256.48C240.336 253.143 242.65 249.455 244.449 245.511C246.306 241.486 247.689 237.258 248.569 232.914C249.455 228.573 249.982 224.167 250.145 219.74C250.248 216.444 250.3 212.942 250.3 209.234C250.3 205.526 250.241 202.011 250.125 198.687ZM219.729 240.783C219.54 239.497 219.426 238.2 219.389 236.9C219.135 230.336 219.135 223.702 219.389 217C219.433 215.071 219.612 213.147 219.925 211.243C220.209 209.483 220.675 207.757 221.316 206.093C221.914 204.535 222.744 203.077 223.777 201.767C224.714 200.596 225.842 199.593 227.114 198.8C227.29 199.975 227.413 201.252 227.485 202.642C227.691 209.083 227.691 215.716 227.485 222.542C227.442 224.463 227.274 226.38 226.981 228.279C226.72 230.043 226.256 231.771 225.6 233.429C224.98 234.991 224.137 236.455 223.097 237.776C222.156 238.965 221.017 239.982 219.729 240.783Z" fill="#C2E23F"/>
<path opacity="0.15" d="M212.857 266.554L204.617 261.775C203.862 261.317 203.17 260.763 202.557 260.127C200.527 257.896 199.108 255.178 198.437 252.237C197.497 248.53 196.969 244.73 196.862 240.907C196.759 237.728 196.707 234.294 196.707 230.607C196.707 226.919 196.759 223.335 196.862 219.854C197.025 215.427 197.552 211.021 198.437 206.68C199.052 203.609 199.92 200.595 201.033 197.667L209.386 202.508C208.285 205.434 207.424 208.445 206.811 211.511C205.917 215.85 205.387 220.257 205.225 224.684C205.122 228.118 205.071 231.702 205.071 235.438C205.071 239.173 205.122 242.606 205.225 245.738C205.331 249.562 205.863 253.362 206.811 257.068C207.479 260.01 208.899 262.728 210.931 264.957C211.503 265.569 212.15 266.106 212.857 266.554Z" fill="#232C32"/>
<path opacity="0.4" d="M242.046 177.624C240.66 176.908 239.134 176.503 237.575 176.439C234.829 176.302 231.519 177.332 227.646 179.529C223.87 181.698 220.511 184.524 217.727 187.872C214.957 191.205 212.64 194.89 210.837 198.831C210.558 199.429 210.301 200.037 210.043 200.655C209.786 201.273 209.58 201.829 209.353 202.426L201 197.585C201.196 197.06 201.402 196.555 201.618 196.02C201.896 195.34 202.174 194.67 202.483 193.96C204.289 190.019 206.602 186.331 209.364 182.99C212.155 179.647 215.516 176.826 219.293 174.657C223.135 172.433 226.503 171.403 229.222 171.567C230.897 171.625 232.534 172.088 233.991 172.917C234.712 173.38 240.212 176.542 242.046 177.624Z" fill="white"/>
<path opacity="0.3" d="M235.87 227.403C235.823 229.324 235.654 231.241 235.366 233.141C235.106 234.905 234.643 236.633 233.986 238.291C233.71 238.977 233.39 239.644 233.028 240.289L224.664 235.458C225.019 234.811 225.335 234.144 225.612 233.46C226.268 231.801 226.734 230.073 227.002 228.31C227.287 226.41 227.452 224.494 227.497 222.573C227.703 215.747 227.703 209.114 227.497 202.673C227.424 201.283 227.301 200.005 227.136 198.831C227.136 198.831 227.352 198.677 227.63 198.512C228.758 197.725 230.108 197.321 231.483 197.358C231.976 197.413 232.451 197.574 232.876 197.83C233.301 198.086 233.666 198.431 233.944 198.842C234.64 199.914 235.1 201.122 235.294 202.385C235.597 204.087 235.79 205.807 235.87 207.535C236.09 213.955 236.09 220.578 235.87 227.403Z" fill="#232C32"/>
<path opacity="0.4" d="M233.055 240.258C232.608 241.083 232.091 241.869 231.51 242.606C230.451 243.941 229.142 245.057 227.658 245.892C226.531 246.673 225.186 247.077 223.816 247.046C223.319 246.997 222.838 246.842 222.407 246.591C221.975 246.34 221.602 246 221.313 245.593C220.592 244.539 220.12 243.334 219.933 242.071C219.85 241.659 219.788 241.226 219.727 240.783C221.031 239.989 222.185 238.971 223.136 237.776C223.72 237.038 224.24 236.253 224.691 235.427L233.055 240.258Z" fill="#232C32"/>
<path d="M227.629 179.56C231.481 177.335 234.791 176.305 237.558 176.47C240.157 176.536 242.626 177.615 244.439 179.478C246.469 181.709 247.888 184.427 248.559 187.368C249.498 191.075 250.027 194.875 250.135 198.698C250.238 202.035 250.289 205.561 250.289 209.276C250.289 212.991 250.238 216.493 250.135 219.782C249.972 224.209 249.444 228.615 248.559 232.955C247.678 237.3 246.295 241.527 244.439 245.552C242.641 249.474 240.338 253.145 237.589 256.47C234.801 259.815 231.438 262.637 227.66 264.803C223.818 267.028 220.501 268.068 217.741 267.893C215.139 267.83 212.666 266.751 210.85 264.885C208.819 262.651 207.4 259.93 206.73 256.985C205.79 253.278 205.261 249.478 205.154 245.655C205.051 242.473 205 239.032 205 235.355C205 231.678 205.051 228.063 205.154 224.612C205.318 220.185 205.845 215.779 206.73 211.439C207.611 207.094 208.994 202.867 210.85 198.842C212.654 194.898 214.971 191.209 217.741 187.872C220.513 184.532 223.862 181.717 227.629 179.56ZM235.869 227.404C236.075 220.578 236.075 213.945 235.869 207.504C235.794 205.776 235.601 204.056 235.292 202.354C235.101 201.092 234.645 199.884 233.953 198.811C233.678 198.397 233.315 198.049 232.889 197.793C232.463 197.536 231.986 197.377 231.492 197.328C230.119 197.301 228.772 197.704 227.639 198.481C226.158 199.317 224.853 200.433 223.797 201.767C222.764 203.077 221.935 204.536 221.336 206.093C220.695 207.757 220.229 209.483 219.945 211.243C219.632 213.147 219.453 215.071 219.41 217.001C219.156 223.703 219.156 230.336 219.41 236.9C219.44 238.627 219.606 240.349 219.904 242.05C220.09 243.316 220.566 244.521 221.295 245.573C221.583 245.981 221.956 246.323 222.388 246.575C222.819 246.828 223.3 246.984 223.797 247.035C225.167 247.061 226.51 246.657 227.639 245.882C229.12 245.04 230.427 243.925 231.492 242.596C232.524 241.273 233.363 239.809 233.984 238.25C234.644 236.592 235.11 234.864 235.375 233.1C235.658 231.213 235.823 229.311 235.869 227.404Z" fill="#C2E23F"/>
<path d="M309.161 183.34C309.081 183.263 308.991 183.197 308.893 183.144L301.076 178.633V141.553C301.106 141.213 301.067 140.869 300.963 140.544C300.859 140.219 300.69 139.917 300.468 139.658C300.393 139.586 300.31 139.524 300.221 139.472L291.857 134.642C291.665 134.54 291.449 134.493 291.232 134.508C291.016 134.523 290.808 134.597 290.631 134.724L279.013 141.429C278.406 141.766 277.871 142.217 277.437 142.758C276.914 143.519 276.488 144.342 276.17 145.209L253.17 203.147C252.476 204.954 252.127 206.876 252.14 208.812V221.368C252.108 221.708 252.145 222.052 252.249 222.378C252.354 222.704 252.524 223.005 252.748 223.263C252.828 223.34 252.918 223.406 253.016 223.459L261.369 228.289C261.56 228.39 261.775 228.435 261.99 228.418C262.205 228.402 262.411 228.325 262.584 228.197L278.446 219.04V221.45C278.417 221.791 278.456 222.135 278.562 222.461C278.668 222.786 278.839 223.087 279.064 223.345L279.312 223.531L287.675 228.361C287.866 228.461 288.08 228.506 288.295 228.492C288.509 228.477 288.716 228.404 288.891 228.279L299.005 222.48C299.658 222.039 300.167 221.416 300.468 220.688C300.858 219.874 301.066 218.985 301.076 218.082V206L307.698 202.179C308.356 201.743 308.866 201.118 309.161 200.387C309.552 199.573 309.759 198.683 309.769 197.781V185.215C309.822 184.534 309.603 183.86 309.161 183.34Z" fill="#C2E23F"/>
<path opacity="0.15" d="M285.752 147.579V147.723C285.277 148.45 284.883 149.227 284.578 150.04L261.578 207.978C261.277 208.748 261.049 209.544 260.898 210.357L252.473 205.496C252.63 204.695 252.854 203.91 253.142 203.147L276.101 145.23C276.42 144.362 276.849 143.538 277.378 142.779L285.752 147.579Z" fill="#232C32"/>
<path opacity="0.3" d="M261.298 228.228C260.351 227.682 253.377 223.654 253.058 223.469C252.965 223.41 252.879 223.341 252.801 223.263C252.574 223.006 252.402 222.705 252.296 222.379C252.189 222.053 252.151 221.709 252.183 221.368V208.822C252.185 207.716 252.296 206.612 252.512 205.526L260.876 210.357C260.657 211.442 260.55 212.546 260.557 213.653V226.209C260.527 226.548 260.565 226.889 260.669 227.213C260.774 227.537 260.942 227.836 261.164 228.094L261.298 228.228Z" fill="#232C32"/>
<path opacity="0.3" d="M287.237 173.246V195.041L280.191 190.972L287.237 173.246Z" fill="#232C32"/>
<path opacity="0.4" d="M287.233 195.041L275.996 201.519L280.188 190.972L287.233 195.041Z" fill="#232C32"/>
<path opacity="0.3" d="M287.46 228.186L287.604 228.31L279.364 223.551C279.271 223.501 279.187 223.435 279.117 223.355C278.89 223.098 278.719 222.797 278.613 222.471C278.506 222.146 278.468 221.801 278.499 221.46V219.04L286.862 214.209V226.291C286.828 226.631 286.864 226.974 286.967 227.3C287.069 227.626 287.237 227.927 287.46 228.186Z" fill="#232C32"/>
<path opacity="0.15" d="M308.799 183.082C308.619 183.012 308.424 182.988 308.231 183.011C308.039 183.034 307.856 183.105 307.697 183.216L301.074 187.038V178.623L308.799 183.082Z" fill="#232C32"/>
<path opacity="0.4" d="M300.162 139.442C299.975 139.357 299.769 139.323 299.565 139.343C299.361 139.363 299.165 139.436 298.998 139.555L287.369 146.26C286.766 146.597 286.231 147.044 285.793 147.579L277.43 142.748C277.864 142.214 278.395 141.766 278.995 141.43L290.614 134.724C290.789 134.596 290.999 134.521 291.216 134.508C291.433 134.495 291.65 134.545 291.839 134.652L300.162 139.442Z" fill="white"/>
<path d="M288.921 228.289C288.707 228.452 288.44 228.532 288.171 228.513C287.902 228.494 287.649 228.378 287.459 228.186C287.235 227.927 287.066 227.626 286.962 227.3C286.857 226.975 286.82 226.631 286.851 226.291V214.24L262.646 228.196C262.432 228.362 262.165 228.442 261.895 228.423C261.625 228.404 261.372 228.287 261.183 228.093C260.957 227.836 260.785 227.536 260.679 227.21C260.572 226.884 260.534 226.539 260.565 226.198V213.642C260.552 211.706 260.902 209.785 261.595 207.977L284.595 150.04C284.912 149.17 285.341 148.346 285.873 147.589C286.28 147.054 286.787 146.603 287.366 146.26L298.984 139.555C299.2 139.394 299.466 139.315 299.735 139.334C300.003 139.353 300.256 139.468 300.447 139.658C300.67 139.917 300.838 140.218 300.942 140.544C301.047 140.869 301.085 141.212 301.055 141.553V187.038L307.678 183.216C307.893 183.055 308.16 182.977 308.428 182.996C308.697 183.015 308.949 183.13 309.14 183.319C309.362 183.579 309.529 183.881 309.634 184.206C309.738 184.531 309.777 184.874 309.748 185.214V197.76C309.738 198.662 309.531 199.552 309.14 200.366C308.846 201.098 308.336 201.723 307.678 202.158L301.075 206V218.082C301.066 218.984 300.858 219.874 300.468 220.688C300.167 221.416 299.658 222.039 299.005 222.48L288.921 228.289ZM287.232 195.03V173.236L276.036 201.519L287.232 195.03Z" fill="#C2E23F"/>
<path d="M207.253 301.203C207.299 301.164 207.358 301.143 207.418 301.143C207.478 301.143 207.536 301.164 207.583 301.203C207.634 301.262 207.674 301.33 207.698 301.405C207.723 301.479 207.733 301.557 207.727 301.636V304.478C207.722 304.685 207.673 304.889 207.583 305.076C207.518 305.241 207.403 305.382 207.253 305.477L199.013 310.246C198.967 310.285 198.908 310.306 198.848 310.306C198.788 310.306 198.73 310.285 198.683 310.246C198.634 310.187 198.596 310.118 198.573 310.043C198.55 309.969 198.542 309.891 198.55 309.814V292.52C198.549 292.317 198.595 292.116 198.683 291.933C198.751 291.769 198.866 291.629 199.013 291.531L207.14 286.834C207.185 286.794 207.244 286.771 207.305 286.771C207.365 286.771 207.424 286.794 207.469 286.834C207.52 286.892 207.558 286.959 207.581 287.031C207.604 287.104 207.612 287.181 207.603 287.257V290.11C207.603 290.313 207.558 290.514 207.469 290.697C207.402 290.861 207.287 291.001 207.14 291.099L201.773 294.189V297.083L206.748 294.209C206.797 294.172 206.857 294.151 206.918 294.151C206.98 294.151 207.04 294.172 207.088 294.209C207.138 294.269 207.176 294.338 207.199 294.412C207.222 294.486 207.23 294.564 207.222 294.642V297.485C207.222 297.688 207.177 297.889 207.088 298.072C207.017 298.239 206.899 298.382 206.748 298.484L201.773 301.357V304.365L207.253 301.203Z" fill="#323C42"/>
<path d="M215.363 282.045C215.995 281.651 216.693 281.375 217.423 281.231C217.95 281.117 218.5 281.201 218.968 281.468C219.445 281.787 219.792 282.265 219.947 282.818C220.198 283.638 220.313 284.494 220.286 285.351C220.3 286.588 220.116 287.819 219.741 288.998C219.409 290.052 218.893 291.039 218.216 291.912L220.369 297.062C220.406 297.143 220.423 297.231 220.42 297.32C220.423 297.488 220.384 297.654 220.307 297.804C220.252 297.938 220.159 298.052 220.039 298.134L217.67 299.504C217.444 299.637 217.279 299.648 217.176 299.504C217.079 299.404 216.999 299.289 216.939 299.164L214.992 294.58L213.396 295.497V301.244C213.392 301.448 213.343 301.649 213.252 301.831C213.179 301.995 213.066 302.137 212.922 302.243L210.635 303.551C210.591 303.594 210.532 303.618 210.471 303.618C210.409 303.618 210.35 303.594 210.306 303.551C210.254 303.493 210.216 303.424 210.193 303.349C210.17 303.275 210.163 303.196 210.172 303.119V285.763C210.172 285.56 210.218 285.359 210.306 285.176C210.373 285.01 210.488 284.867 210.635 284.764L215.363 282.045ZM213.396 291.315L215.363 290.182C215.845 289.899 216.256 289.512 216.568 289.049C216.911 288.501 217.08 287.862 217.052 287.216C217.052 286.464 216.887 286.041 216.568 285.938C216.36 285.898 216.145 285.901 215.938 285.947C215.73 285.993 215.535 286.081 215.363 286.206L213.396 287.37V291.315Z" fill="#323C42"/>
<path d="M227.905 274.794C228.538 274.403 229.236 274.128 229.965 273.98C230.488 273.877 231.032 273.961 231.5 274.217C231.993 274.534 232.358 275.016 232.53 275.577C232.749 276.399 232.832 277.251 232.777 278.1C232.789 279.339 232.608 280.573 232.241 281.757C231.901 282.806 231.382 283.789 230.706 284.661L232.859 289.811C232.899 289.895 232.92 289.986 232.921 290.079C232.918 290.247 232.879 290.412 232.808 290.563C232.746 290.696 232.65 290.81 232.53 290.893L230.161 292.263C229.934 292.397 229.769 292.407 229.666 292.263C229.566 292.161 229.486 292.043 229.429 291.912L227.534 287.37L225.938 288.297V294.045C225.934 294.249 225.885 294.449 225.793 294.632C225.726 294.795 225.611 294.935 225.464 295.033L223.177 296.352C223.132 296.392 223.073 296.415 223.012 296.415C222.952 296.415 222.893 296.392 222.848 296.352C222.798 296.292 222.76 296.223 222.737 296.149C222.714 296.075 222.706 295.996 222.714 295.919V278.522C222.714 278.316 222.759 278.112 222.848 277.925C222.915 277.761 223.03 277.621 223.177 277.523L227.905 274.794ZM225.938 284.064L227.905 282.921C228.39 282.648 228.804 282.263 229.11 281.798C229.452 281.249 229.621 280.61 229.594 279.964C229.594 279.213 229.429 278.79 229.11 278.687C228.901 278.647 228.687 278.65 228.48 278.696C228.272 278.742 228.077 278.83 227.905 278.955L225.938 280.088V284.064Z" fill="#323C42"/>
<path d="M234.84 277.781C234.873 276.739 235.015 275.703 235.262 274.691C235.5 273.682 235.846 272.701 236.292 271.766C236.746 270.859 237.31 270.011 237.971 269.242C238.617 268.488 239.386 267.851 240.247 267.357C240.925 266.918 241.707 266.665 242.513 266.626C243.126 266.61 243.723 266.819 244.192 267.213C244.684 267.671 245.04 268.255 245.222 268.902C245.487 269.739 245.629 270.61 245.645 271.487C245.645 272.239 245.645 273.043 245.645 273.877C245.645 274.711 245.645 275.515 245.645 276.267C245.611 277.308 245.47 278.344 245.222 279.357C244.987 280.37 244.642 281.354 244.192 282.292C243.743 283.202 243.179 284.05 242.513 284.816C241.867 285.562 241.101 286.195 240.247 286.69C239.565 287.131 238.782 287.39 237.971 287.442C237.359 287.458 236.762 287.249 236.292 286.855C235.808 286.383 235.454 285.794 235.262 285.145C234.998 284.308 234.855 283.438 234.84 282.56C234.84 281.839 234.84 281.056 234.84 280.222C234.84 279.388 234.84 278.564 234.84 277.781ZM242.493 278.007C242.493 277.678 242.493 277.317 242.493 276.916C242.493 276.514 242.493 276.112 242.493 275.7C242.493 275.288 242.493 274.897 242.493 274.516C242.493 274.135 242.493 273.805 242.493 273.486C242.471 273.102 242.409 272.723 242.307 272.353C242.231 272.074 242.086 271.819 241.885 271.611C241.701 271.444 241.464 271.349 241.216 271.343C240.881 271.359 240.557 271.466 240.278 271.652C239.918 271.855 239.597 272.12 239.331 272.435C239.064 272.748 238.839 273.094 238.661 273.465C238.479 273.857 238.341 274.268 238.249 274.691C238.145 275.13 238.083 275.578 238.064 276.03C238.064 276.349 238.064 276.699 238.064 277.06C238.064 277.42 238.064 277.853 238.064 278.265C238.064 278.677 238.064 279.079 238.064 279.46C238.064 279.841 238.064 280.201 238.064 280.49C238.043 281.168 238.254 281.832 238.661 282.375C239.022 282.756 239.557 282.745 240.278 282.323C240.995 281.915 241.556 281.281 241.875 280.521C242.23 279.725 242.446 278.875 242.513 278.007H242.493Z" fill="#323C42"/>
<path d="M253.381 260.075C254.014 259.684 254.711 259.409 255.441 259.261C255.964 259.158 256.507 259.242 256.975 259.498C257.469 259.815 257.834 260.297 258.005 260.858C258.256 261.675 258.371 262.527 258.345 263.381C258.357 264.621 258.177 265.854 257.81 267.038C257.468 268.09 256.949 269.075 256.275 269.953L258.428 275.103C258.467 275.186 258.489 275.278 258.489 275.371C258.486 275.538 258.448 275.703 258.376 275.855C258.314 275.987 258.218 276.101 258.098 276.184L255.729 277.554C255.502 277.688 255.338 277.698 255.235 277.554C255.135 277.453 255.055 277.334 254.998 277.204L253.061 272.579L251.465 273.506V279.254C251.461 279.458 251.412 279.658 251.321 279.841C251.253 280.005 251.139 280.145 250.991 280.242L248.704 281.561C248.659 281.601 248.6 281.624 248.54 281.624C248.479 281.624 248.42 281.601 248.375 281.561C248.325 281.501 248.288 281.432 248.265 281.358C248.242 281.284 248.234 281.206 248.241 281.128V263.804C248.242 263.597 248.288 263.393 248.375 263.206C248.442 263.042 248.557 262.903 248.704 262.805L253.381 260.075ZM251.413 269.345L253.381 268.202C253.867 267.927 254.283 267.542 254.596 267.079C254.935 266.529 255.1 265.891 255.07 265.246C255.07 264.494 254.915 264.071 254.596 263.968C254.386 263.928 254.17 263.93 253.961 263.976C253.752 264.022 253.554 264.111 253.381 264.236L251.413 265.369V269.345Z" fill="#323C42"/>
<path d="M175.831 330.867C176.861 330.249 177.747 330.156 178.344 330.599C178.941 331.042 179.24 332 179.24 333.514C179.27 334.889 178.963 336.251 178.344 337.48C177.78 338.586 176.907 339.506 175.831 340.127L173.699 341.352V345.946C173.695 346.1 173.656 346.252 173.585 346.389C173.537 346.518 173.451 346.629 173.338 346.708L172.308 347.326C172.274 347.36 172.227 347.378 172.179 347.378C172.131 347.378 172.085 347.36 172.051 347.326C172.012 347.283 171.983 347.233 171.965 347.178C171.947 347.123 171.941 347.065 171.948 347.007V333.72C171.947 333.563 171.982 333.408 172.051 333.267C172.105 333.141 172.194 333.034 172.308 332.958L175.831 330.867ZM173.699 338.788L175.759 337.593C176.298 337.299 176.742 336.856 177.038 336.318C177.334 335.779 177.469 335.167 177.427 334.554C177.427 333.782 177.273 333.339 176.974 333.215C176.764 333.168 176.547 333.167 176.336 333.214C176.126 333.26 175.929 333.352 175.759 333.483L173.699 334.678V338.788Z" fill="#E0E0E0"/>
<path d="M184.865 325.665C184.999 325.583 185.112 325.573 185.184 325.665C185.28 325.785 185.344 325.927 185.37 326.077L188.645 337.181C188.645 337.181 188.645 337.263 188.645 337.315C188.642 337.471 188.607 337.625 188.542 337.768C188.49 337.895 188.4 338.003 188.285 338.077L187.327 338.633C187.141 338.736 187.018 338.757 186.946 338.633C186.876 338.561 186.826 338.472 186.801 338.376L186.225 336.429L182.022 338.87L181.445 341.476C181.408 341.62 181.36 341.761 181.301 341.898C181.222 342.068 181.088 342.206 180.92 342.29L179.962 342.846C179.927 342.877 179.881 342.894 179.834 342.894C179.786 342.894 179.74 342.877 179.705 342.846C179.628 342.754 179.591 342.635 179.602 342.516C179.596 342.465 179.596 342.413 179.602 342.362L182.887 327.54C182.925 327.324 182.988 327.113 183.073 326.912C183.136 326.759 183.248 326.632 183.392 326.551L184.865 325.665ZM185.596 334.266L184.123 329.25L182.661 335.955L185.596 334.266Z" fill="#E0E0E0"/>
<path d="M189.681 328.199C189.693 327.385 189.79 326.573 189.97 325.779C190.146 325.021 190.405 324.286 190.742 323.585C191.078 322.914 191.5 322.291 191.999 321.731C192.5 321.177 193.083 320.705 193.729 320.33C194.299 319.949 194.961 319.728 195.645 319.691C196.079 319.688 196.5 319.833 196.84 320.103C197.147 320.376 197.366 320.735 197.468 321.133C197.582 321.466 197.651 321.813 197.674 322.163C197.685 322.323 197.653 322.484 197.581 322.627C197.523 322.751 197.43 322.854 197.314 322.926L196.284 323.554C196.191 323.605 196.109 323.616 196.057 323.554C195.996 323.514 195.95 323.457 195.923 323.389C195.884 323.294 195.839 323.201 195.789 323.111C195.703 322.959 195.578 322.831 195.429 322.74C195.231 322.629 195.006 322.576 194.78 322.586C194.413 322.608 194.058 322.725 193.75 322.926C193.052 323.342 192.493 323.954 192.143 324.687C191.734 325.492 191.516 326.38 191.504 327.283C191.504 327.818 191.504 328.385 191.504 328.972C191.504 329.559 191.504 330.125 191.504 330.63C191.504 331.753 191.741 332.463 192.143 332.69C192.396 332.826 192.684 332.884 192.97 332.857C193.256 332.829 193.527 332.717 193.75 332.536C194.078 332.342 194.383 332.111 194.656 331.845C194.94 331.568 195.18 331.248 195.367 330.898C195.584 330.509 195.741 330.088 195.83 329.652C195.951 329.132 196.01 328.599 196.006 328.065V327.901L194.368 328.848C194.333 328.877 194.289 328.892 194.244 328.892C194.199 328.892 194.156 328.877 194.121 328.848C194.082 328.803 194.053 328.751 194.035 328.694C194.017 328.637 194.011 328.578 194.018 328.519V327.056C194.017 326.899 194.052 326.744 194.121 326.603C194.175 326.48 194.26 326.374 194.368 326.294L197.458 324.522C197.491 324.489 197.535 324.471 197.581 324.471C197.628 324.471 197.672 324.489 197.705 324.522C197.746 324.566 197.778 324.618 197.797 324.675C197.817 324.732 197.824 324.792 197.818 324.852V327.107C197.816 327.921 197.73 328.732 197.561 329.528C197.402 330.299 197.146 331.047 196.799 331.753C196.464 332.442 196.038 333.083 195.532 333.658C195.024 334.235 194.425 334.725 193.76 335.111C193.226 335.451 192.619 335.659 191.989 335.718C191.763 335.731 191.538 335.699 191.325 335.623C191.113 335.547 190.918 335.428 190.753 335.275C190.382 334.908 190.121 334.444 190.001 333.936C189.813 333.266 189.716 332.573 189.712 331.876C189.712 331.619 189.712 331.33 189.712 331.021C189.712 330.712 189.712 330.383 189.712 330.053C189.712 329.724 189.712 329.404 189.712 329.085C189.712 328.766 189.671 328.467 189.681 328.199Z" fill="#E0E0E0"/>
<path d="M205.997 325.264C206.031 325.231 206.077 325.212 206.125 325.212C206.173 325.212 206.219 325.231 206.254 325.264C206.295 325.308 206.327 325.36 206.346 325.417C206.366 325.473 206.373 325.534 206.367 325.594V327.046C206.365 327.204 206.326 327.359 206.254 327.499C206.206 327.628 206.115 327.737 205.997 327.808L200.136 331.197C200.102 331.227 200.058 331.244 200.012 331.244C199.967 331.244 199.923 331.227 199.889 331.197C199.847 331.153 199.816 331.101 199.796 331.044C199.777 330.987 199.77 330.927 199.775 330.867V317.591C199.778 317.433 199.817 317.278 199.889 317.137C199.937 317.011 200.023 316.903 200.136 316.828L205.893 313.501C205.929 313.47 205.975 313.453 206.022 313.453C206.07 313.453 206.115 313.47 206.151 313.501C206.19 313.546 206.219 313.599 206.237 313.656C206.255 313.712 206.26 313.772 206.254 313.831V315.294C206.253 315.447 206.218 315.598 206.151 315.737C206.1 315.867 206.01 315.978 205.893 316.056L201.578 318.538V321.814L205.605 319.486C205.64 319.457 205.684 319.442 205.729 319.442C205.774 319.442 205.817 319.457 205.852 319.486C205.893 319.53 205.923 319.582 205.943 319.639C205.962 319.696 205.97 319.756 205.966 319.815V321.36C205.963 321.518 205.924 321.673 205.852 321.814C205.798 321.936 205.713 322.042 205.605 322.123L201.598 324.45V327.87L205.997 325.264Z" fill="#E0E0E0"/>
<path d="M217.813 321.02C217.659 321.113 217.545 321.113 217.473 321.02L217.298 320.835L213.559 314.438V322.905C213.557 323.063 213.518 323.218 213.446 323.358C213.398 323.484 213.311 323.592 213.199 323.667L212.117 324.296C212.083 324.329 212.037 324.347 211.989 324.347C211.941 324.347 211.894 324.329 211.86 324.296C211.82 324.251 211.791 324.199 211.773 324.142C211.755 324.085 211.75 324.025 211.757 323.966V310.689C211.756 310.532 211.791 310.377 211.86 310.236C211.908 310.107 211.999 309.998 212.117 309.927L213.044 309.381C213.199 309.299 213.312 309.288 213.395 309.381C213.459 309.437 213.518 309.499 213.57 309.566L217.309 315.963V307.496C217.308 307.339 217.343 307.184 217.412 307.043C217.464 306.916 217.554 306.808 217.669 306.734L218.699 306.106C218.734 306.072 218.78 306.054 218.828 306.054C218.876 306.054 218.922 306.072 218.957 306.106C219.032 306.198 219.069 306.316 219.06 306.435V319.712C219.054 319.868 219.019 320.022 218.957 320.165C218.904 320.292 218.815 320.4 218.699 320.474L217.813 321.02Z" fill="#E0E0E0"/>
<path d="M221.212 310.03C221.233 309.244 221.326 308.461 221.49 307.692C221.651 306.939 221.896 306.207 222.221 305.509C222.534 304.828 222.94 304.194 223.426 303.624C223.905 303.047 224.484 302.562 225.136 302.192C225.641 301.864 226.224 301.676 226.825 301.646C227.049 301.645 227.27 301.688 227.477 301.772C227.684 301.857 227.872 301.982 228.03 302.14C228.384 302.522 228.635 302.986 228.762 303.49C228.945 304.144 229.045 304.819 229.06 305.498C229.06 305.756 229.06 306.034 229.06 306.353V308.3C229.06 308.619 229.06 308.908 229.06 309.175C229.031 309.962 228.934 310.744 228.772 311.513C228.612 312.267 228.367 313 228.04 313.697C227.727 314.378 227.322 315.012 226.835 315.582C226.355 316.147 225.78 316.625 225.136 316.993C224.626 317.327 224.035 317.519 223.426 317.549C222.977 317.552 222.544 317.378 222.221 317.065C221.868 316.684 221.616 316.22 221.49 315.716C221.315 315.06 221.222 314.386 221.212 313.707C221.212 313.46 221.212 313.172 221.212 312.863C221.212 312.554 221.212 312.224 221.212 311.884C221.212 311.544 221.212 311.225 221.212 310.906C221.212 310.586 221.201 310.308 221.212 310.03ZM227.258 306.642C227.31 305.94 227.088 305.246 226.64 304.705C226.418 304.549 226.151 304.469 225.879 304.478C225.608 304.488 225.347 304.585 225.136 304.757C224.477 305.157 223.953 305.745 223.632 306.446C223.232 307.271 223.021 308.176 223.014 309.093C223.014 309.629 223.014 310.205 223.014 310.844C223.014 311.483 223.014 312.059 223.014 312.564C222.982 312.91 223.02 313.259 223.126 313.59C223.232 313.921 223.404 314.227 223.632 314.49C224.013 314.809 224.508 314.789 225.136 314.428C225.789 314.031 226.312 313.451 226.64 312.76C227.029 311.93 227.239 311.029 227.258 310.113C227.258 309.587 227.258 309 227.258 308.362C227.258 307.723 227.268 307.167 227.258 306.652V306.642Z" fill="#E0E0E0"/>
<path d="M237.184 295.445C237.22 295.414 237.265 295.397 237.313 295.397C237.36 295.397 237.406 295.414 237.441 295.445C237.48 295.49 237.51 295.543 237.527 295.599C237.545 295.656 237.551 295.716 237.544 295.775V297.237C237.545 297.394 237.51 297.549 237.441 297.691C237.387 297.816 237.298 297.924 237.184 298L234.836 299.4V310.669C234.832 310.825 234.797 310.979 234.733 311.122C234.68 311.249 234.59 311.357 234.475 311.431L233.445 312.059C233.409 312.09 233.364 312.108 233.316 312.108C233.269 312.108 233.223 312.09 233.188 312.059C233.148 312.015 233.119 311.962 233.101 311.905C233.083 311.849 233.077 311.789 233.085 311.73V300.451L230.582 301.79C230.547 301.823 230.501 301.842 230.453 301.842C230.405 301.842 230.359 301.823 230.324 301.79C230.286 301.747 230.256 301.696 230.239 301.641C230.221 301.586 230.215 301.528 230.221 301.471V300.008C230.22 299.851 230.256 299.696 230.324 299.555C230.372 299.426 230.463 299.317 230.582 299.246L237.184 295.445Z" fill="#E0E0E0"/>
<path d="M248.333 289.018C248.367 288.988 248.411 288.971 248.456 288.971C248.502 288.971 248.546 288.988 248.58 289.018C248.621 289.062 248.653 289.114 248.672 289.17C248.692 289.227 248.699 289.288 248.693 289.348V290.8C248.691 290.958 248.652 291.113 248.58 291.253C248.532 291.379 248.445 291.487 248.333 291.562L244.11 294.044V298.03L248.106 295.734C248.14 295.703 248.184 295.686 248.23 295.686C248.275 295.686 248.319 295.703 248.353 295.734C248.393 295.778 248.423 295.83 248.443 295.887C248.462 295.944 248.47 296.003 248.467 296.063V297.526C248.464 297.683 248.425 297.839 248.353 297.979C248.305 298.105 248.219 298.213 248.106 298.288L244.11 300.605V305.313C244.11 305.469 244.075 305.624 244.007 305.766C243.958 305.895 243.868 306.004 243.749 306.075L242.668 306.703C242.632 306.734 242.586 306.751 242.539 306.751C242.492 306.751 242.446 306.734 242.41 306.703C242.371 306.658 242.342 306.606 242.324 306.549C242.307 306.492 242.301 306.432 242.307 306.373V293.076C242.307 292.919 242.342 292.764 242.41 292.623C242.458 292.494 242.549 292.385 242.668 292.314L248.333 289.018Z" fill="#E0E0E0"/>
<path d="M250.145 293.334C250.17 292.547 250.267 291.765 250.434 290.996C250.59 290.243 250.832 289.51 251.155 288.812C251.472 288.134 251.877 287.5 252.36 286.927C252.841 286.353 253.42 285.869 254.069 285.496C254.578 285.166 255.164 284.978 255.769 284.95C255.991 284.949 256.211 284.992 256.416 285.077C256.621 285.162 256.807 285.287 256.964 285.444C257.316 285.828 257.57 286.291 257.705 286.793C257.885 287.448 257.982 288.123 257.994 288.802C257.994 289.059 257.994 289.338 257.994 289.657C257.994 289.976 257.994 290.295 257.994 290.625C257.994 290.955 257.994 291.284 257.994 291.604C257.994 291.923 257.994 292.222 257.994 292.479C257.969 293.266 257.873 294.048 257.705 294.817C257.549 295.57 257.307 296.303 256.984 297.001C256.667 297.681 256.258 298.316 255.769 298.886C255.288 299.451 254.713 299.928 254.069 300.297C253.56 300.632 252.969 300.824 252.36 300.853C251.911 300.853 251.479 300.68 251.155 300.369C250.802 299.989 250.554 299.524 250.434 299.02C250.255 298.364 250.158 297.69 250.145 297.011C250.145 296.764 250.145 296.475 250.145 296.166C250.145 295.857 250.145 295.528 250.145 295.136C250.145 294.745 250.145 294.477 250.145 294.158C250.145 293.839 250.135 293.602 250.145 293.334ZM256.191 289.945C256.222 289.598 256.183 289.247 256.077 288.915C255.971 288.582 255.8 288.274 255.573 288.009C255.192 287.69 254.688 287.71 254.069 288.071C253.413 288.469 252.89 289.054 252.566 289.75C252.166 290.575 251.955 291.479 251.948 292.397C251.948 292.932 251.948 293.509 251.948 294.148C251.948 294.786 251.948 295.363 251.948 295.868C251.915 296.214 251.953 296.563 252.06 296.894C252.166 297.225 252.338 297.531 252.566 297.794C252.947 298.113 253.452 298.093 254.069 297.732C254.723 297.335 255.246 296.755 255.573 296.063C255.973 295.238 256.184 294.334 256.191 293.416C256.191 292.891 256.191 292.304 256.191 291.665C256.191 291.027 256.212 290.46 256.191 289.945Z" fill="#E0E0E0"/>
<path d="M267.316 278.1C267.352 278.069 267.398 278.052 267.445 278.052C267.492 278.052 267.538 278.069 267.574 278.1C267.65 278.192 267.687 278.311 267.677 278.43V286.865C267.677 287.685 267.598 288.502 267.44 289.306C267.3 290.057 267.076 290.79 266.77 291.49C266.459 292.156 266.053 292.774 265.565 293.323C265.087 293.865 264.523 294.324 263.897 294.683C263.395 295.012 262.817 295.207 262.218 295.25C261.999 295.259 261.781 295.225 261.575 295.149C261.37 295.073 261.182 294.957 261.023 294.807C260.665 294.427 260.42 293.957 260.312 293.447C260.143 292.739 260.064 292.012 260.075 291.284V282.848C260.08 282.691 260.119 282.536 260.189 282.395C260.24 282.271 260.325 282.163 260.436 282.086L261.466 281.458C261.501 281.427 261.547 281.41 261.595 281.41C261.642 281.41 261.688 281.427 261.723 281.458C261.8 281.55 261.837 281.668 261.826 281.787V290.11C261.813 290.568 261.865 291.026 261.981 291.469C262.039 291.753 262.183 292.012 262.393 292.211C262.481 292.283 262.584 292.337 262.693 292.368C262.803 292.4 262.918 292.41 263.031 292.396C263.319 292.349 263.595 292.247 263.845 292.098C264.48 291.729 264.993 291.18 265.318 290.522C265.506 290.132 265.645 289.72 265.73 289.296C265.838 288.795 265.89 288.284 265.885 287.772V279.439C265.887 279.281 265.926 279.126 265.998 278.986C266.05 278.859 266.135 278.748 266.245 278.667L267.316 278.1Z" fill="#E0E0E0"/>
<path d="M276.091 287.37C275.937 287.453 275.824 287.463 275.741 287.37C275.677 287.314 275.618 287.252 275.566 287.185L271.827 280.799V289.266C271.828 289.422 271.793 289.577 271.724 289.719C271.673 289.846 271.583 289.954 271.467 290.028L270.385 290.656C270.351 290.686 270.307 290.703 270.262 290.703C270.216 290.703 270.172 290.686 270.138 290.656C270.098 290.612 270.067 290.559 270.047 290.503C270.028 290.446 270.02 290.386 270.025 290.326V277.07C270.029 276.916 270.067 276.765 270.138 276.627C270.19 276.5 270.275 276.39 270.385 276.308L271.322 275.773C271.477 275.69 271.59 275.68 271.673 275.773L271.848 275.958L275.587 282.344V273.877C275.586 273.72 275.621 273.565 275.69 273.424C275.744 273.302 275.829 273.195 275.937 273.115L277.029 272.487C277.064 272.458 277.107 272.443 277.152 272.443C277.197 272.443 277.241 272.458 277.276 272.487C277.316 272.532 277.346 272.584 277.365 272.64C277.385 272.697 277.393 272.757 277.389 272.816V286.093C277.387 286.251 277.348 286.406 277.276 286.546C277.224 286.673 277.139 286.784 277.029 286.866L276.091 287.37Z" fill="#E0E0E0"/>
<path d="M283.455 268.738C283.973 268.406 284.562 268.201 285.175 268.14C285.397 268.128 285.619 268.161 285.828 268.237C286.037 268.313 286.228 268.431 286.39 268.583C286.754 268.962 287.01 269.431 287.132 269.943C287.327 270.648 287.434 271.374 287.451 272.106C287.451 273.136 287.451 274.114 287.451 275.144C287.421 275.993 287.315 276.838 287.132 277.668C286.978 278.433 286.733 279.176 286.4 279.882C286.088 280.545 285.686 281.162 285.206 281.716C284.723 282.26 284.156 282.722 283.527 283.085L280.159 285.032C280.125 285.063 280.081 285.079 280.035 285.079C279.989 285.079 279.945 285.063 279.911 285.032C279.871 284.988 279.84 284.936 279.821 284.879C279.801 284.822 279.794 284.762 279.798 284.703V271.405C279.801 271.247 279.839 271.092 279.911 270.952C279.956 270.824 280.043 270.715 280.159 270.643L283.455 268.738ZM285.648 273.146C285.636 272.763 285.581 272.383 285.484 272.013C285.411 271.735 285.269 271.48 285.072 271.271C284.981 271.183 284.872 271.115 284.754 271.07C284.635 271.026 284.508 271.007 284.382 271.014C284.014 271.026 283.658 271.14 283.352 271.343L281.559 272.373V281.643L283.413 280.613C283.775 280.414 284.097 280.148 284.361 279.831C284.632 279.521 284.858 279.174 285.03 278.801C285.214 278.409 285.352 277.998 285.442 277.575C285.534 277.137 285.589 276.693 285.607 276.246C285.679 275.154 285.679 274.135 285.648 273.146Z" fill="#E0E0E0"/>
<path d="M433.965 50.1712L382.249 80.0412C381.86 80.2927 381.535 80.6329 381.302 81.0339C381.07 81.435 380.935 81.8854 380.91 82.3484V148.474C380.934 148.936 381.069 149.386 381.301 149.785C381.534 150.185 381.859 150.523 382.249 150.771L387.028 153.449C387.442 153.658 387.899 153.766 388.362 153.766C388.825 153.766 389.282 153.658 389.696 153.449L441.423 123.579C441.808 123.324 442.129 122.983 442.359 122.583C442.59 122.182 442.724 121.733 442.751 121.272V55.1255C442.727 54.6651 442.593 54.2172 442.36 53.8193C442.127 53.4215 441.802 53.0853 441.412 52.8389L436.643 50.1609C436.227 49.9541 435.768 49.8474 435.303 49.8491C434.838 49.8509 434.38 49.9612 433.965 50.1712Z" fill="#C2E23F"/>
<path d="M388.367 152.666V86.5197C388.392 86.0578 388.525 85.6083 388.756 85.2074C388.987 84.8066 389.309 84.4658 389.696 84.2125L441.422 54.3425C442.154 53.9202 442.751 54.2601 442.751 55.1047V121.241C442.724 121.702 442.59 122.151 442.359 122.551C442.129 122.952 441.808 123.293 441.422 123.548L389.696 153.418C388.954 153.861 388.367 153.47 388.367 152.666Z" fill="#C2E23F"/>
<path opacity="0.2" d="M389.696 153.47C389.278 153.671 388.821 153.775 388.357 153.775C387.893 153.775 387.436 153.671 387.018 153.47L382.249 150.792C381.861 150.544 381.538 150.207 381.305 149.81C381.072 149.412 380.937 148.965 380.91 148.506V82.4001C380.93 81.9178 381.075 81.449 381.332 81.0405L388.759 85.2738C388.516 85.6679 388.381 86.1191 388.367 86.5819V152.708C388.367 153.47 388.913 153.892 389.696 153.47Z" fill="#232C32"/>
<path opacity="0.4" d="M442.734 54.8885C442.631 54.219 442.085 53.9821 441.426 54.3632L389.7 84.2332C389.304 84.4901 388.981 84.8449 388.762 85.2632L381.336 81.0299C381.556 80.641 381.871 80.3147 382.253 80.0823L433.979 50.2123C434.393 50.004 434.85 49.8955 435.313 49.8955C435.776 49.8955 436.233 50.004 436.647 50.2123L441.416 52.88C441.764 53.1034 442.062 53.3977 442.289 53.7437C442.516 54.0898 442.668 54.4799 442.734 54.8885Z" fill="white"/>
<path d="M380.91 102.279L370.198 113.176C370.074 113.3 369.978 113.451 369.919 113.617C369.86 113.783 369.839 113.96 369.858 114.135C369.877 114.31 369.935 114.478 370.028 114.628C370.121 114.778 370.246 114.905 370.394 114.999C370.621 115.144 377.81 119.274 377.81 119.274L388.368 106.574L380.91 102.279Z" fill="#C2E23F"/>
<path opacity="0.1" d="M380.91 102.279L370.198 113.176C370.074 113.3 369.978 113.451 369.919 113.617C369.86 113.783 369.839 113.96 369.858 114.135C369.877 114.31 369.935 114.478 370.028 114.628C370.121 114.778 370.246 114.905 370.394 114.999C370.621 115.144 377.81 119.274 377.81 119.274L388.368 106.574L380.91 102.279Z" fill="#232C32"/>
<path d="M388.368 106.574L377.646 117.472C377.472 117.65 377.359 117.878 377.322 118.124C377.285 118.37 377.326 118.621 377.44 118.842C377.554 119.063 377.735 119.243 377.957 119.356C378.179 119.468 378.43 119.508 378.676 119.47L388.389 118.069C389.409 118.069 389.409 106.574 388.368 106.574Z" fill="#C2E23F"/>
<path d="M406.847 104.03C406.582 104.029 406.327 103.925 406.136 103.741L398.453 96.3459C398.343 96.2558 398.254 96.144 398.19 96.0176C398.126 95.8913 398.088 95.753 398.08 95.6116C398.072 95.4701 398.093 95.3285 398.142 95.1955C398.191 95.0626 398.266 94.9411 398.364 94.8388C398.463 94.7365 398.581 94.6555 398.711 94.601C398.842 94.5464 398.983 94.5194 399.124 94.5216C399.266 94.5239 399.406 94.5553 399.535 94.614C399.664 94.6727 399.779 94.7574 399.874 94.8627L407.568 102.258C407.665 102.354 407.741 102.468 407.794 102.593C407.846 102.719 407.873 102.853 407.873 102.989C407.873 103.125 407.846 103.26 407.794 103.386C407.741 103.511 407.665 103.625 407.568 103.721C407.378 103.915 407.119 104.026 406.847 104.03Z" fill="#323C42"/>
<path d="M399.163 108.5C399.011 108.499 398.86 108.467 398.72 108.407C398.475 108.289 398.286 108.079 398.196 107.822C398.105 107.566 398.119 107.283 398.236 107.037L405.92 90.7634C406.036 90.5162 406.246 90.3253 406.503 90.2326C406.759 90.1398 407.043 90.1529 407.29 90.269C407.537 90.3851 407.728 90.5947 407.821 90.8516C407.913 91.1085 407.9 91.3917 407.784 91.6389L400.101 107.913C400.016 108.09 399.883 108.239 399.717 108.343C399.551 108.447 399.359 108.501 399.163 108.5Z" fill="#323C42"/>
<path d="M431.958 89.6097C431.689 89.6113 431.431 89.5078 431.237 89.3213L423.553 81.9259C423.362 81.7329 423.254 81.4719 423.254 81.1998C423.254 80.9277 423.362 80.6666 423.553 80.4736C423.649 80.3771 423.763 80.3005 423.889 80.2482C424.014 80.1959 424.149 80.1689 424.285 80.1689C424.421 80.1689 424.555 80.1959 424.681 80.2482C424.806 80.3005 424.92 80.3771 425.016 80.4736L432.7 87.869C432.847 88.0113 432.949 88.1943 432.992 88.3948C433.035 88.5952 433.017 88.8039 432.941 88.9941C432.865 89.1844 432.733 89.3475 432.564 89.4627C432.394 89.5779 432.194 89.6398 431.989 89.6406L431.958 89.6097Z" fill="#323C42"/>
<path d="M424.267 94.0079C424.118 94.0087 423.97 93.9771 423.834 93.9152C423.711 93.8577 423.6 93.7763 423.508 93.6756C423.416 93.5748 423.345 93.4569 423.299 93.3285C423.253 93.2001 423.233 93.0638 423.24 92.9276C423.247 92.7914 423.281 92.6579 423.34 92.535L431.024 76.2713C431.08 76.1464 431.16 76.0338 431.26 75.9402C431.36 75.8465 431.477 75.7738 431.605 75.7261C431.734 75.6784 431.87 75.6568 432.007 75.6625C432.144 75.6682 432.278 75.7011 432.402 75.7593C432.526 75.8175 432.637 75.8998 432.729 76.0014C432.82 76.103 432.891 76.2219 432.936 76.351C432.981 76.4802 433 76.6171 432.992 76.7538C432.984 76.8904 432.948 77.024 432.888 77.1468L425.204 93.4208C425.12 93.5977 424.987 93.7469 424.821 93.8508C424.655 93.9548 424.463 94.0093 424.267 94.0079Z" fill="#323C42"/>
<path d="M398.823 126.937C398.642 126.938 398.463 126.891 398.306 126.8C398.149 126.71 398.018 126.579 397.927 126.422C397.793 126.186 397.758 125.906 397.829 125.643C397.9 125.381 398.073 125.157 398.308 125.021L431.783 105.688C432.021 105.552 432.303 105.515 432.568 105.587C432.832 105.658 433.058 105.832 433.194 106.069C433.331 106.307 433.368 106.589 433.296 106.854C433.225 107.118 433.051 107.344 432.813 107.48L399.338 126.803C399.181 126.892 399.004 126.938 398.823 126.937Z" fill="#323C42"/>
<path d="M422.154 127.483C421.591 127.485 421.037 127.339 420.548 127.061C419.927 126.632 419.431 126.047 419.109 125.365C418.788 124.684 418.651 123.929 418.714 123.178V113.835C418.714 113.562 418.823 113.3 419.016 113.107C419.209 112.914 419.471 112.805 419.744 112.805C420.017 112.805 420.279 112.914 420.473 113.107C420.666 113.3 420.774 113.562 420.774 113.835V123.178C420.731 123.56 420.781 123.948 420.921 124.307C421.061 124.666 421.286 124.985 421.578 125.238C421.88 125.356 422.207 125.395 422.528 125.349C422.849 125.304 423.153 125.177 423.411 124.98C424.494 124.224 425.389 123.229 426.024 122.071C426.66 120.914 427.021 119.625 427.078 118.306V108.964C427.078 108.69 427.186 108.428 427.38 108.235C427.573 108.042 427.835 107.934 428.108 107.934C428.381 107.934 428.643 108.042 428.836 108.235C429.029 108.428 429.138 108.69 429.138 108.964V118.306C429.085 119.987 428.631 121.632 427.814 123.103C426.997 124.574 425.841 125.828 424.441 126.762C423.756 127.2 422.967 127.448 422.154 127.483Z" fill="#323C42"/>
<path d="M423.925 121.468C423.651 121.468 423.389 121.359 423.196 121.166C423.003 120.973 422.895 120.711 422.895 120.438V111.415C422.895 111.142 423.003 110.88 423.196 110.686C423.389 110.493 423.651 110.385 423.925 110.385C424.198 110.385 424.46 110.493 424.653 110.686C424.846 110.88 424.955 111.142 424.955 111.415V120.438C424.955 120.711 424.846 120.973 424.653 121.166C424.46 121.359 424.198 121.468 423.925 121.468Z" fill="#323C42"/>
</svg>
