<svg width="411" height="466" viewBox="0 0 411 466" fill="none" xmlns="http://www.w3.org/2000/svg">
<g filter="url(#filter0_d_812_9862)">
<path d="M359.75 73.5892C360.013 71.5809 359.888 69.5309 359.382 67.5702C358.877 65.6094 358.003 63.781 356.815 62.2017C355.627 60.6225 354.152 59.3272 352.485 58.3985C350.817 57.4698 348.993 56.9281 347.129 56.8081L124.857 39.408C120.944 39.1623 117.102 40.5139 114.082 43.1983C111.062 45.8826 109.082 49.7068 108.528 53.9227L98.6305 137.29L51.9008 392.306C51.4765 394.242 51.4534 396.261 51.8332 398.216C52.213 400.172 52.9862 402.015 54.097 403.613C55.2078 405.211 56.6285 406.524 58.2563 407.457C59.8841 408.39 61.6785 408.92 63.5097 409.008L285.798 426.409C289.801 426.606 293.726 425.27 296.892 422.632C300.058 419.994 302.263 416.222 303.123 411.972L349.853 156.957L359.75 73.5892Z" fill="#E4E4E4"/>
<path opacity="0.25" d="M359.75 73.5892C360.013 71.5809 359.888 69.5309 359.382 67.5702C358.877 65.6094 358.003 63.781 356.815 62.2017C355.627 60.6225 354.152 59.3272 352.485 58.3985C350.817 57.4698 348.993 56.9281 347.129 56.8081L124.857 39.408C120.944 39.1623 117.102 40.5139 114.082 43.1983C111.062 45.8826 109.082 49.7068 108.528 53.9227L98.6305 137.29L51.9008 392.306C51.4765 394.242 51.4534 396.261 51.8332 398.216C52.213 400.172 52.9862 402.015 54.097 403.613C55.2078 405.211 56.6285 406.524 58.2563 407.457C59.8841 408.39 61.6785 408.92 63.5097 409.008L285.798 426.409C289.801 426.606 293.726 425.27 296.892 422.632C300.058 419.994 302.263 416.222 303.123 411.972L349.853 156.957L359.75 73.5892Z" fill="#232C32"/>
<path d="M277.586 425.887L55.6211 408.51C53.7936 408.419 52.0034 407.889 50.3794 406.956C48.7555 406.023 47.3382 404.712 46.2295 403.117C45.1209 401.522 44.3485 399.683 43.9681 397.732C43.5876 395.78 43.6085 393.766 44.0292 391.832L90.6918 137.165L341.548 156.804L294.886 411.453C294.03 415.7 291.83 419.471 288.668 422.108C285.507 424.746 281.585 426.083 277.586 425.887Z" fill="#E4E4E4"/>
<path d="M339.34 55.8084L117.971 38.5528C114.074 38.3092 110.248 39.6485 107.241 42.3087C104.233 44.969 102.261 48.7589 101.709 52.9371L91.8504 135.646L342.034 155.147L351.872 72.5241C352.148 70.5303 352.036 68.4919 351.541 66.5401C351.046 64.5883 350.181 62.7664 349 61.1917C347.82 59.617 346.35 58.3245 344.687 57.3973C343.023 56.4701 341.202 55.9288 339.34 55.8084Z" fill="#E4E4E4"/>
<path opacity="0.9" d="M105.414 116.233L112.296 58.5884C112.586 56.393 113.624 54.4016 115.207 53.0037C116.79 51.6058 118.804 50.9019 120.855 51.0297L333.571 67.5822C334.549 67.6426 335.506 67.9234 336.381 68.4065C337.256 68.8896 338.03 69.5643 338.652 70.3874C339.275 71.2105 339.732 72.1636 339.996 73.1855C340.259 74.2075 340.322 75.2756 340.181 76.3213L333.3 133.966C333.006 136.16 331.967 138.149 330.385 139.546C328.803 140.943 326.79 141.649 324.74 141.525L112.024 124.972C111.047 124.909 110.092 124.627 109.218 124.143C108.344 123.659 107.571 122.984 106.949 122.162C106.327 121.339 105.869 120.387 105.605 119.366C105.341 118.346 105.275 117.278 105.414 116.233Z" fill="white"/>
<path opacity="0.2" d="M101.037 257.644L115.692 177.707C116.218 175.09 117.573 172.767 119.52 171.142C121.467 169.517 123.883 168.693 126.347 168.815L200.538 174.623C201.665 174.678 202.77 175.004 203.772 175.579C204.774 176.154 205.648 176.962 206.331 177.946C207.015 178.931 207.49 180.066 207.724 181.27C207.957 182.474 207.942 183.717 207.68 184.908L193.026 264.845C192.504 267.461 191.152 269.784 189.207 271.409C187.263 273.035 184.849 273.859 182.387 273.739L108.18 267.929C107.053 267.875 105.948 267.548 104.946 266.974C103.944 266.399 103.07 265.59 102.386 264.606C101.703 263.622 101.227 262.487 100.994 261.283C100.761 260.079 100.775 258.836 101.037 257.644Z" fill="#263238"/>
<path opacity="0.2" d="M206.249 265.305L220.952 185.372C221.478 182.755 222.833 180.432 224.78 178.807C226.727 177.182 229.143 176.358 231.607 176.48L305.798 182.288C306.926 182.339 308.032 182.664 309.036 183.237C310.039 183.811 310.915 184.62 311.599 185.605C312.283 186.59 312.758 187.726 312.99 188.932C313.222 190.137 313.205 191.381 312.94 192.573L298.302 272.511C297.773 275.126 296.418 277.447 294.471 279.072C292.524 280.696 290.11 281.521 287.647 281.403L213.376 275.589C212.249 275.535 211.145 275.209 210.143 274.634C209.142 274.059 208.269 273.25 207.586 272.265C206.904 271.281 206.43 270.145 206.199 268.942C205.968 267.738 205.985 266.495 206.249 265.305Z" fill="#263238"/>
<path opacity="0.2" d="M79.6899 372.288L94.3461 292.316C94.8751 289.701 96.2308 287.38 98.1774 285.755C100.124 284.131 102.539 283.306 105.002 283.424L179.192 289.232C180.32 289.287 181.424 289.613 182.426 290.188C183.428 290.762 184.303 291.571 184.986 292.555C185.669 293.54 186.145 294.675 186.378 295.879C186.612 297.083 186.597 298.325 186.335 299.517L171.68 379.472C171.154 382.084 169.801 384.403 167.857 386.025C165.913 387.647 163.501 388.469 161.041 388.348L86.8346 382.538C85.7105 382.483 84.6092 382.157 83.6099 381.585C82.6105 381.012 81.7379 380.207 81.0547 379.227C80.3716 378.247 79.8949 377.116 79.6589 375.917C79.423 374.717 79.4335 373.478 79.6899 372.288Z" fill="#263238"/>
<path opacity="0.2" d="M184.902 379.949L199.543 299.975C200.072 297.361 201.427 295.039 203.374 293.415C205.321 291.79 207.735 290.965 210.198 291.084L284.389 296.892C285.516 296.946 286.621 297.273 287.623 297.847C288.625 298.422 289.499 299.231 290.182 300.215C290.866 301.199 291.342 302.334 291.575 303.538C291.808 304.742 291.793 305.985 291.532 307.177L276.892 387.133C276.36 389.744 275.003 392.061 273.057 393.682C271.111 395.303 268.698 396.126 266.238 396.007L192.031 390.198C190.907 390.143 189.806 389.818 188.808 389.245C187.809 388.673 186.937 387.867 186.255 386.887C185.573 385.906 185.098 384.775 184.864 383.576C184.63 382.376 184.643 381.137 184.902 379.949Z" fill="#263238"/>
<path d="M96.1218 257.286L110.824 177.353C111.35 174.736 112.705 172.413 114.652 170.788C116.6 169.163 119.016 168.339 121.479 168.461L195.67 174.269C196.797 174.324 197.902 174.65 198.904 175.225C199.906 175.799 200.78 176.608 201.464 177.592C202.147 178.576 202.623 179.712 202.856 180.916C203.089 182.12 203.075 183.362 202.813 184.554L188.159 264.491C187.636 267.106 186.284 269.43 184.34 271.055C182.395 272.681 179.981 273.505 177.519 273.384L103.264 267.571C102.137 267.516 101.033 267.19 100.031 266.615C99.0286 266.041 98.1543 265.232 97.4708 264.248C96.7873 263.264 96.3117 262.128 96.0784 260.924C95.8451 259.72 95.8599 258.478 96.1218 257.286Z" fill="#E4E4E4"/>
<path opacity="0.7" d="M96.1218 257.286L110.824 177.353C111.35 174.736 112.705 172.413 114.652 170.788C116.6 169.163 119.016 168.339 121.479 168.461L195.67 174.269C196.797 174.324 197.902 174.65 198.904 175.225C199.906 175.799 200.78 176.608 201.464 177.592C202.147 178.576 202.623 179.712 202.856 180.916C203.089 182.12 203.075 183.362 202.813 184.554L188.159 264.491C187.636 267.106 186.284 269.43 184.34 271.055C182.395 272.681 179.981 273.505 177.519 273.384L103.264 267.571C102.137 267.516 101.033 267.19 100.031 266.615C99.0286 266.041 98.1543 265.232 97.4708 264.248C96.7873 263.264 96.3117 262.128 96.0784 260.924C95.8451 259.72 95.8599 258.478 96.1218 257.286Z" fill="white"/>
<path d="M201.334 264.947L215.972 185.009C216.498 182.392 217.853 180.069 219.8 178.444C221.748 176.819 224.164 175.995 226.627 176.117L300.818 181.925C301.947 181.976 303.053 182.301 304.056 182.875C305.06 183.448 305.935 184.257 306.619 185.242C307.303 186.227 307.779 187.364 308.011 188.569C308.243 189.774 308.226 191.018 307.961 192.21L293.323 272.149C292.794 274.763 291.438 277.085 289.491 278.709C287.545 280.334 285.13 281.159 282.667 281.04L208.46 275.231C207.334 275.177 206.229 274.851 205.228 274.276C204.227 273.701 203.353 272.892 202.671 271.908C201.988 270.923 201.515 269.788 201.283 268.584C201.052 267.38 201.069 266.138 201.334 264.947Z" fill="#E4E4E4"/>
<path opacity="0.7" d="M201.334 264.947L215.972 185.009C216.498 182.392 217.853 180.069 219.8 178.444C221.748 176.819 224.164 175.995 226.627 176.117L300.818 181.925C301.947 181.976 303.053 182.301 304.056 182.875C305.06 183.448 305.935 184.257 306.619 185.242C307.303 186.227 307.779 187.364 308.011 188.569C308.243 189.774 308.226 191.018 307.961 192.21L293.323 272.149C292.794 274.763 291.438 277.085 289.491 278.709C287.545 280.334 285.13 281.159 282.667 281.04L208.46 275.231C207.334 275.177 206.229 274.851 205.228 274.276C204.227 273.701 203.353 272.892 202.671 271.908C201.988 270.923 201.515 269.788 201.283 268.584C201.052 267.38 201.069 266.138 201.334 264.947Z" fill="white"/>
<path d="M74.7744 371.93L89.4306 291.957C89.9596 289.343 91.3152 287.021 93.2619 285.397C95.2086 283.772 97.6232 282.947 100.086 283.066L174.277 288.874C175.404 288.928 176.509 289.255 177.511 289.829C178.513 290.404 179.387 291.213 180.07 292.197C180.754 293.181 181.23 294.316 181.463 295.52C181.696 296.724 181.681 297.967 181.419 299.159L166.764 379.114C166.239 381.725 164.886 384.044 162.941 385.666C160.997 387.288 158.585 388.11 156.126 387.989L81.9191 382.18C80.795 382.125 79.6937 381.799 78.6943 381.226C77.695 380.654 76.8223 379.849 76.1392 378.869C75.4561 377.889 74.9794 376.758 74.7434 375.558C74.5074 374.358 74.518 373.119 74.7744 371.93Z" fill="#E4E4E4"/>
<path opacity="0.7" d="M74.7744 371.93L89.4306 291.957C89.9596 289.343 91.3152 287.021 93.2619 285.397C95.2086 283.772 97.6232 282.947 100.086 283.066L174.277 288.874C175.404 288.928 176.509 289.255 177.511 289.829C178.513 290.404 179.387 291.213 180.07 292.197C180.754 293.181 181.23 294.316 181.463 295.52C181.696 296.724 181.681 297.967 181.419 299.159L166.764 379.114C166.239 381.725 164.886 384.044 162.941 385.666C160.997 387.288 158.585 388.11 156.126 387.989L81.9191 382.18C80.795 382.125 79.6937 381.799 78.6943 381.226C77.695 380.654 76.8223 379.849 76.1392 378.869C75.4561 377.889 74.9794 376.758 74.7434 375.558C74.5074 374.358 74.518 373.119 74.7744 371.93Z" fill="white"/>
<path d="M179.985 379.591L194.673 299.621C195.202 297.007 196.558 294.685 198.504 293.061C200.451 291.436 202.866 290.611 205.329 290.729L279.519 296.538C280.647 296.592 281.751 296.918 282.753 297.493C283.755 298.068 284.629 298.877 285.313 299.861C285.996 300.845 286.472 301.98 286.705 303.184C286.939 304.388 286.924 305.631 286.662 306.823L272.023 386.778C271.491 389.39 270.134 391.707 268.188 393.328C266.241 394.949 263.829 395.771 261.368 395.653L187.114 389.84C185.99 389.785 184.889 389.46 183.89 388.887C182.891 388.314 182.02 387.509 181.338 386.529C180.656 385.548 180.181 384.417 179.947 383.218C179.713 382.018 179.726 380.779 179.985 379.591Z" fill="#E4E4E4"/>
<path opacity="0.7" d="M179.985 379.591L194.673 299.621C195.202 297.007 196.558 294.685 198.504 293.061C200.451 291.436 202.866 290.611 205.329 290.729L279.519 296.538C280.647 296.592 281.751 296.918 282.753 297.493C283.755 298.068 284.629 298.877 285.313 299.861C285.996 300.845 286.472 301.98 286.705 303.184C286.939 304.388 286.924 305.631 286.662 306.823L272.023 386.778C271.491 389.39 270.134 391.707 268.188 393.328C266.241 394.949 263.829 395.771 261.368 395.653L187.114 389.84C185.99 389.785 184.889 389.46 183.89 388.887C182.891 388.314 182.02 387.509 181.338 386.529C180.656 385.548 180.181 384.417 179.947 383.218C179.713 382.018 179.726 380.779 179.985 379.591Z" fill="white"/>
<path d="M143.3 254.309C142.167 254.248 141.057 253.916 140.05 253.337C139.044 252.758 138.165 251.947 137.478 250.961C136.79 249.974 136.31 248.838 136.073 247.632C135.835 246.426 135.846 245.18 136.104 243.985L144.851 196.471C145.386 193.847 146.752 191.516 148.713 189.884C150.674 188.251 153.105 187.418 155.588 187.529C156.724 187.587 157.837 187.917 158.847 188.496C159.856 189.075 160.737 189.888 161.425 190.877C162.113 191.866 162.592 193.007 162.827 194.216C163.062 195.425 163.047 196.673 162.784 197.87L154.052 245.385C153.513 248.009 152.143 250.337 150.18 251.967C148.216 253.596 145.783 254.425 143.3 254.309Z" fill="#C2E23F"/>
<path d="M118.666 218.533C119.199 215.944 120.554 213.646 122.497 212.037C124.439 210.427 126.847 209.607 129.305 209.717L173.134 213.127C174.258 213.187 175.357 213.514 176.355 214.086C177.352 214.658 178.222 215.46 178.902 216.434C179.583 217.409 180.057 218.532 180.291 219.723C180.524 220.914 180.512 222.144 180.254 223.324C179.721 225.909 178.368 228.202 176.429 229.809C174.49 231.415 172.086 232.234 169.632 232.124L125.835 228.717C124.709 228.664 123.605 228.342 122.603 227.775C121.601 227.207 120.725 226.407 120.04 225.433C119.354 224.459 118.875 223.335 118.638 222.142C118.4 220.949 118.41 219.717 118.666 218.533Z" fill="#C2E23F"/>
<path d="M101.954 357.36C99.1709 353.356 100.293 347.257 104.437 343.796L141.65 312.744C145.794 309.283 151.487 309.728 154.238 313.729C157.021 317.733 155.898 323.849 151.754 327.31L114.542 358.345C110.398 361.806 104.689 361.359 101.954 357.36Z" fill="#C2E23F"/>
<path d="M110.557 310.289C114.705 306.825 120.403 307.271 123.172 311.277L148.119 347.225C150.904 351.232 149.782 357.336 145.634 360.8C141.486 364.264 135.789 363.818 133.035 359.814L108.071 323.882C105.286 319.875 106.41 313.753 110.557 310.289Z" fill="#C2E23F"/>
<path d="M223.861 226.193C224.394 223.604 225.749 221.306 227.691 219.696C229.634 218.087 232.042 217.266 234.5 217.377L278.297 220.784C279.422 220.841 280.523 221.166 281.521 221.737C282.52 222.308 283.391 223.11 284.072 224.085C284.753 225.061 285.227 226.185 285.46 227.378C285.692 228.57 285.678 229.801 285.417 230.981C284.884 233.566 283.531 235.859 281.592 237.466C279.653 239.073 277.249 239.891 274.795 239.781L231.014 236.375C229.889 236.32 228.787 235.997 227.787 235.428C226.787 234.859 225.914 234.059 225.23 233.086C224.546 232.112 224.069 230.99 223.832 229.798C223.595 228.606 223.605 227.375 223.861 226.193Z" fill="#C2E23F"/>
<path d="M205.315 325.793C205.849 323.206 207.204 320.91 209.147 319.304C211.089 317.697 213.497 316.88 215.953 316.995L259.75 320.402C260.872 320.462 261.97 320.789 262.966 321.36C263.962 321.93 264.831 322.731 265.511 323.703C266.192 324.676 266.666 325.797 266.901 326.986C267.136 328.175 267.126 329.403 266.871 330.582C266.342 333.17 264.99 335.468 263.05 337.078C261.11 338.688 258.704 339.509 256.248 339.399L212.435 335.991C211.312 335.931 210.212 335.603 209.215 335.032C208.217 334.46 207.347 333.658 206.667 332.683C205.987 331.709 205.512 330.586 205.279 329.394C205.045 328.203 205.057 326.974 205.315 325.793Z" fill="#C2E23F"/>
<path d="M199.728 355.828C200.261 353.244 201.614 350.95 203.553 349.344C205.493 347.737 207.896 346.918 210.35 347.029L254.148 350.436C255.271 350.493 256.371 350.819 257.369 351.388C258.367 351.958 259.238 352.758 259.92 353.731C260.602 354.704 261.078 355.826 261.314 357.016C261.55 358.207 261.54 359.436 261.284 360.617C260.751 363.206 259.396 365.504 257.454 367.113C255.512 368.723 253.103 369.543 250.646 369.433L206.848 366.026C205.724 365.969 204.623 365.643 203.624 365.073C202.625 364.502 201.754 363.7 201.073 362.724C200.392 361.749 199.918 360.624 199.686 359.432C199.453 358.24 199.468 357.009 199.728 355.828Z" fill="#C2E23F"/>
</g>
<defs>
<filter id="filter0_d_812_9862" x="0.697266" y="-4.47559" width="410.187" height="481.904" filterUnits="userSpaceOnUse" color-interpolation-filters="sRGB">
<feFlood flood-opacity="0" result="BackgroundImageFix"/>
<feColorMatrix in="SourceAlpha" type="matrix" values="0 0 0 0 0 0 0 0 0 0 0 0 0 0 0 0 0 0 127 0" result="hardAlpha"/>
<feOffset dx="4" dy="4"/>
<feGaussianBlur stdDeviation="23.5"/>
<feComposite in2="hardAlpha" operator="out"/>
<feColorMatrix type="matrix" values="0 0 0 0 0.651275 0 0 0 0 0.766667 0 0 0 0 0.178889 0 0 0 0.51 0"/>
<feBlend mode="normal" in2="BackgroundImageFix" result="effect1_dropShadow_812_9862"/>
<feBlend mode="normal" in="SourceGraphic" in2="effect1_dropShadow_812_9862" result="shape"/>
</filter>
</defs>
</svg>
