<svg width="595" height="377" viewBox="0 0 595 377" fill="none" xmlns="http://www.w3.org/2000/svg">
<g clip-path="url(#clip0_1006_18833)">
<path d="M595.146 216.6L361.721 0.767647L42.2616 100.567L275.686 316.399L595.146 216.6Z" fill="#EEEEEE"/>
<path d="M233.379 504.104L552.862 404.296L595.132 216.605L275.65 316.414L233.379 504.104Z" fill="#D6D5D5"/>
<path d="M233.414 504.143L-0.0369556 288.329L42.2422 100.6L275.685 316.452L233.414 504.143Z" fill="#E1E1E1"/>
<path d="M50.6179 221.791L119.271 285.107C120.154 286.022 120.81 287.131 121.189 288.344C121.568 289.558 121.659 290.843 121.454 292.098L109.119 346.86C108.103 351.372 104.495 352.519 101.077 349.377L32.588 286.058C31.6968 285.157 31.033 284.056 30.6518 282.847C30.2706 281.638 30.1831 280.355 30.3963 279.106L42.7405 224.305C43.6402 219.767 47.2392 218.658 50.6179 221.791Z" fill="#FAFAFA"/>
<path d="M46.7793 229.874L49.1113 232.035L38.2189 280.383L35.8869 278.221L46.7793 229.874Z" fill="#9BC100"/>
<path d="M56.2305 238.631L60.2434 242.398L49.3514 290.745L45.3385 286.978L56.2305 238.631Z" fill="#9BC100"/>
<path d="M65.7305 247.394L68.0625 249.555L57.1701 297.902L54.8381 295.741L65.7305 247.394Z" fill="#9BC100"/>
<path d="M72.9297 253.925L77.5761 258.325L66.6842 306.672L62.0378 302.272L72.9297 253.925Z" fill="#9BC100"/>
<path d="M84.6973 264.918L87.0293 267.079L76.1369 315.426L73.8049 313.265L84.6973 264.918Z" fill="#9BC100"/>
<path d="M91.5469 271.123L96.5294 275.844L85.6376 324.191L80.6551 319.469L91.5469 271.123Z" fill="#9BC100"/>
<path d="M103.66 282.439L105.992 284.601L95.0998 332.948L92.7677 330.787L103.66 282.439Z" fill="#9BC100"/>
<path d="M109.08 287.383L110.266 288.468L99.3728 336.816L98.1873 335.731L109.08 287.383Z" fill="#9BC100"/>
<path d="M99.2871 278.673L100.473 279.758L89.5799 328.106L88.3943 327.021L99.2871 278.673Z" fill="#9BC100"/>
<path d="M80.2129 260.84L81.3984 261.925L70.5056 310.272L69.3201 309.187L80.2129 260.84Z" fill="#9BC100"/>
<path d="M69.7676 251.207L70.9142 252.283L60.0215 300.631L58.866 299.593L69.7676 251.207Z" fill="#9BC100"/>
<path d="M62.168 244.505L63.3535 245.59L52.4607 293.937L51.2752 292.852L62.168 244.505Z" fill="#9BC100"/>
<path d="M52.0918 234.752L53.2472 235.789L42.3456 284.175L41.199 283.099L52.0918 234.752Z" fill="#9BC100"/>
<path d="M113.154 291.204L115.486 293.365L104.594 341.712L102.262 339.551L113.154 291.204Z" fill="#9BC100"/>
<path d="M133.845 219.64L149.802 234.401L156.223 205.892L140.266 191.132L133.845 219.64Z" fill="#C2E23F"/>
<path d="M156.222 205.858L475.682 106.059L459.727 91.3004L140.267 191.1L156.222 205.858Z" fill="#C2E23F"/>
</g>
<defs>
<clipPath id="clip0_1006_18833">
<rect width="595" height="377" fill="white"/>
</clipPath>
</defs>
</svg>
