<svg width="48" height="48" viewBox="0 0 48 48" fill="none" xmlns="http://www.w3.org/2000/svg">
<path d="M30 18L22 26L18 22M40 12.3999V20.3296C40 33.4661 30.0639 39.3557 25.8516 41.2623C25.405 41.4644 25.1832 41.5657 24.6777 41.6524C24.3589 41.7072 23.6425 41.7072 23.3237 41.6524C22.8183 41.5657 22.5945 41.4644 22.1479 41.2623C17.9356 39.3557 8 33.4661 8 20.3296V12.3999C8 10.1597 8 9.03973 8.43597 8.18408C8.81947 7.43143 9.43095 6.81947 10.1836 6.43597C11.0392 6 12.1602 6 14.4004 6H33.6004C35.8406 6 36.9599 6 37.8156 6.43597C38.5682 6.81947 39.181 7.43143 39.5645 8.18408C40.0004 9.03973 40 10.1597 40 12.3999Z" stroke="url(#paint0_linear_1503_9964)" stroke-width="2" stroke-linecap="round" stroke-linejoin="round"/>
<defs>
<linearGradient id="paint0_linear_1503_9964" x1="24" y1="6" x2="24" y2="41.6935" gradientUnits="userSpaceOnUse">
<stop stop-color="#232C32"/>
<stop offset="1" stop-color="#2B2B2B" stop-opacity="0.7"/>
</linearGradient>
</defs>
</svg>
