<svg width="243" height="45" viewBox="0 0 243 45" fill="none" xmlns="http://www.w3.org/2000/svg">
<path fill-rule="evenodd" clip-rule="evenodd" d="M76.0786 8C72.5316 8 69.6562 10.8754 69.6562 14.4224C69.6562 17.9693 72.5316 20.8447 76.0786 20.8447H79.6466C83.1935 20.8447 86.0689 17.9693 86.0689 14.4224C86.0689 10.8754 83.1935 8 79.6466 8H76.0786ZM76.4354 9.78399C73.8737 9.78399 71.797 11.8607 71.797 14.4224C71.797 16.9841 73.8737 19.0607 76.4354 19.0607H79.2898C81.8515 19.0607 83.9282 16.9841 83.9282 14.4224C83.9282 11.8607 81.8515 9.78399 79.2898 9.78399H76.4354Z" fill="white"/>
<path d="M66.808 8V20H64.712V8.912L65.672 9.872H56.152L57.112 8.912V20H55V8H66.808Z" fill="white"/>
<path d="M90.016 8H100.864V20H98.752V8.912L99.712 9.872H91.2L92.096 9.152C92.1814 10.0267 92.2454 10.8533 92.288 11.632C92.3307 12.4107 92.352 13.1413 92.352 13.824C92.352 15.3173 92.224 16.5333 91.968 17.472C91.712 18.4107 91.312 19.104 90.768 19.552C90.2347 19.9893 89.536 20.208 88.672 20.208C88.3414 20.208 88.016 20.1707 87.696 20.096C87.376 20.032 87.088 19.9307 86.832 19.792V18C87.28 18.1813 87.7014 18.272 88.096 18.272C88.8854 18.272 89.456 17.8987 89.808 17.152C90.1707 16.4053 90.352 15.1947 90.352 13.52C90.352 12.7947 90.3254 11.968 90.272 11.04C90.2187 10.1013 90.1334 9.088 90.016 8Z" fill="white"/>
<path d="M103.547 20V8H105.595V19.008L104.875 18.88L113.243 8H115.995V20H113.947V8.896L114.667 9.024L106.235 20H103.547Z" fill="white"/>
<path d="M136.224 18.128L135.264 19.088V8H137.376V20H118.688V8H120.8V19.088L119.84 18.128H127.568L126.976 19.088V8H129.088V19.088L128.4 18.128H136.224Z" fill="white"/>
<path d="M143.935 8.976H146.047V20H143.935V8.976ZM138.975 8H151.007V9.856H138.975V8Z" fill="white"/>
<path d="M152.116 17.248V15.504H160.5V17.248H152.116ZM157.684 8L163.444 20H161.188L155.956 8.8H156.772L151.54 20H149.284L155.044 8H157.684Z" fill="white"/>
<path d="M181.05 8V20H179.034V8.64L179.69 8.672L174.106 20H171.85L166.266 8.688L166.922 8.656V20H164.906V8H168.138L173.514 19.088H172.458L177.818 8H181.05Z" fill="white"/>
<path d="M195.542 8V20H193.446V8.912L194.406 9.872H184.886L185.846 8.912V20H183.734V8H195.542Z" fill="white"/>
<path d="M55 24.8447H59.68V25.6367H55.84V33.2447H55V24.8447Z" fill="#646D70"/>
<path d="M62.7835 27.1007C63.6395 27.1007 64.3675 27.4047 64.9675 28.0127C65.5755 28.6207 65.8795 29.3647 65.8795 30.2447C65.8795 31.1247 65.5755 31.8687 64.9675 32.4767C64.3675 33.0847 63.6395 33.3887 62.7835 33.3887C61.7195 33.3887 60.9115 32.9487 60.3595 32.0687V35.6447H59.5675V27.2447H60.3595V28.4207C60.9115 27.5407 61.7195 27.1007 62.7835 27.1007ZM61.0435 31.9367C61.4995 32.3927 62.0595 32.6207 62.7235 32.6207C63.3875 32.6207 63.9475 32.3927 64.4035 31.9367C64.8595 31.4647 65.0875 30.9007 65.0875 30.2447C65.0875 29.5807 64.8595 29.0207 64.4035 28.5647C63.9475 28.1007 63.3875 27.8687 62.7235 27.8687C62.0595 27.8687 61.4995 28.1007 61.0435 28.5647C60.5875 29.0207 60.3595 29.5807 60.3595 30.2447C60.3595 30.9007 60.5875 31.4647 61.0435 31.9367Z" fill="#646D70"/>
<path d="M69.338 32.2727L71.282 27.2447H72.122L69.554 33.7967C69.314 34.4047 68.978 34.8727 68.546 35.2007C68.122 35.5367 67.65 35.6847 67.13 35.6447V34.9007C67.85 34.9887 68.398 34.5727 68.774 33.6527L68.93 33.2807L66.242 27.2447H67.082L69.338 32.2727Z" fill="#646D70"/>
<path d="M73.0792 27.2447H78.1192V33.2447H77.3272V28.0127H73.8712V33.2447H73.0792V27.2447Z" fill="#646D70"/>
<path d="M79.7941 27.2447H84.8341V33.2447H84.0421V28.0127H80.5861V33.2447H79.7941V27.2447Z" fill="#646D70"/>
<path d="M91.6689 28.4207V27.2447H92.4609V33.2447H91.6689V32.0687C91.1169 32.9487 90.3089 33.3887 89.2449 33.3887C88.3889 33.3887 87.6569 33.0847 87.0489 32.4767C86.4489 31.8687 86.1489 31.1247 86.1489 30.2447C86.1489 29.3647 86.4489 28.6207 87.0489 28.0127C87.6569 27.4047 88.3889 27.1007 89.2449 27.1007C90.3089 27.1007 91.1169 27.5407 91.6689 28.4207ZM87.6249 31.9367C88.0809 32.3927 88.6409 32.6207 89.3049 32.6207C89.9689 32.6207 90.5289 32.3927 90.9849 31.9367C91.4409 31.4647 91.6689 30.9007 91.6689 30.2447C91.6689 29.5807 91.4409 29.0207 90.9849 28.5647C90.5289 28.1007 89.9689 27.8687 89.3049 27.8687C88.6409 27.8687 88.0809 28.1007 87.6249 28.5647C87.1689 29.0207 86.9409 29.5807 86.9409 30.2447C86.9409 30.9007 87.1689 31.4647 87.6249 31.9367Z" fill="#646D70"/>
<path d="M98.7698 30.1247L101.986 33.2447H100.93L97.9298 30.3527V33.2447H97.1378V27.2447H97.9298V29.8967L100.786 27.2447H101.866L98.7698 30.1247Z" fill="#646D70"/>
<path d="M107.498 32.4887C106.882 33.0887 106.138 33.3887 105.266 33.3887C104.378 33.3887 103.63 33.0887 103.022 32.4887C102.414 31.8807 102.11 31.1327 102.11 30.2447C102.11 29.3567 102.414 28.6127 103.022 28.0127C103.63 27.4047 104.378 27.1007 105.266 27.1007C106.146 27.1007 106.89 27.4047 107.498 28.0127C108.114 28.6127 108.422 29.3567 108.422 30.2447C108.422 31.1247 108.114 31.8727 107.498 32.4887ZM103.586 31.9367C104.042 32.3927 104.602 32.6207 105.266 32.6207C105.93 32.6207 106.49 32.3927 106.946 31.9367C107.402 31.4647 107.63 30.9007 107.63 30.2447C107.63 29.5807 107.402 29.0207 106.946 28.5647C106.49 28.1007 105.93 27.8687 105.266 27.8687C104.602 27.8687 104.042 28.1007 103.586 28.5647C103.13 29.0207 102.902 29.5807 102.902 30.2447C102.902 30.9007 103.13 31.4647 103.586 31.9367Z" fill="#646D70"/>
<path d="M114.715 27.2447H115.627V33.2447H114.835V28.4567L112.735 31.8647H112.639L110.539 28.4567V33.2447H109.747V27.2447H110.659L112.687 30.5327L114.715 27.2447Z" fill="#646D70"/>
<path d="M117.306 27.2447H122.346V33.2447H121.554V28.0127H118.098V33.2447H117.306V27.2447Z" fill="#646D70"/>
<path d="M129.181 28.4207V27.2447H129.973V33.2447H129.181V32.0687C128.629 32.9487 127.821 33.3887 126.757 33.3887C125.901 33.3887 125.169 33.0847 124.561 32.4767C123.961 31.8687 123.661 31.1247 123.661 30.2447C123.661 29.3647 123.961 28.6207 124.561 28.0127C125.169 27.4047 125.901 27.1007 126.757 27.1007C127.821 27.1007 128.629 27.5407 129.181 28.4207ZM125.137 31.9367C125.593 32.3927 126.153 32.6207 126.817 32.6207C127.481 32.6207 128.041 32.3927 128.497 31.9367C128.953 31.4647 129.181 30.9007 129.181 30.2447C129.181 29.5807 128.953 29.0207 128.497 28.5647C128.041 28.1007 127.481 27.8687 126.817 27.8687C126.153 27.8687 125.593 28.1007 125.137 28.5647C124.681 29.0207 124.453 29.5807 124.453 30.2447C124.453 30.9007 124.681 31.4647 125.137 31.9367Z" fill="#646D70"/>
<path d="M135.898 29.8607V27.2447H136.69V33.2447H135.898V30.6287H132.442V33.2447H131.65V27.2447H132.442V29.8607H135.898Z" fill="#646D70"/>
<path d="M139.156 31.8647L142.732 27.2447H143.404V33.2447H142.612V28.6247L139.036 33.2447H138.364V27.2447H139.156V31.8647Z" fill="#646D70"/>
<path d="M149.159 26.2847H146.039V25.5887H149.159V26.2847ZM145.871 31.8647L149.447 27.2447H150.119V33.2447H149.327V28.6247L145.751 33.2447H145.079V27.2447H145.871V31.8647Z" fill="#646D70"/>
<path d="M22.5801 13.9763C21.1315 11.5759 18.8294 9.13061 17.8594 8.20802C18.5707 6.25508 21.0151 3.8236 25.8781 3.4356C29.7684 3.1252 33.6381 4.59099 35.022 5.32388C35.3195 5.48142 37.5311 7.39322 38.8373 9.22976C40.8938 11.9328 41.0446 15.1921 40.8032 16.5113C40.5661 18.3047 38.8891 21.9588 34.0779 22.2278C28.0638 22.5641 24.3907 16.9769 22.5801 13.9763Z" fill="#B7E20C"/>
<path d="M2.76232 18.5898C-0.227881 15.7858 1.07667 11.5928 2.10272 9.84682C4.00651 7.23945 7.74168 6.06164 9.37129 5.79866C9.37129 5.79866 13.4712 4.84159 17.8685 8.21721C15.6233 14.3011 12.0614 18.0035 10.5612 19.0942C9.20746 20.0944 5.75252 21.3937 2.76232 18.5898Z" fill="url(#paint0_linear_1512_1403)"/>
<path d="M11.9319 1.62139C6.73113 3.50935 3.20188 7.79493 2.10254 9.84703C3.37001 8.43729 6.06016 6.17395 10.0695 5.73421C13.277 5.38242 16.5966 7.2431 17.8554 8.21742C18.2952 6.75594 20.7913 3.445 27.2839 3.445C30.9569 3.3286 35.031 5.35914 35.031 5.35914C31.8105 2.41033 26.9217 0.754852 23.8694 0.289251C21.3604 -0.0934872 17.5967 -0.435021 11.9319 1.62139Z" fill="#A3CB07"/>
<path d="M18.3467 30.5681C19.7952 32.9686 22.0974 35.4138 23.0674 36.3364C22.356 38.2894 19.9116 40.7208 15.0487 41.1088C11.1583 41.4192 7.28864 39.9534 5.90477 39.2206C5.6073 39.063 3.39569 37.1512 2.08942 35.3147C0.0330086 32.6116 -0.117882 29.3524 0.123543 28.0332C0.360655 26.2397 2.03768 22.5856 6.84891 22.3166C12.8629 21.9803 16.536 27.5676 18.3467 30.5681Z" fill="#B7E20C"/>
<path d="M38.1644 25.9542C41.1546 28.7581 39.8501 32.9511 38.824 34.6971C36.9202 37.3045 33.1851 38.4823 31.5555 38.7453C31.5555 38.7453 27.4556 39.7024 23.0582 36.3267C25.3035 30.2429 28.8653 26.5405 30.3656 25.4498C31.7193 24.4496 35.1742 23.1502 38.1644 25.9542Z" fill="url(#paint1_linear_1512_1403)"/>
<path d="M28.9948 42.923C34.1956 41.0351 37.7249 36.7495 38.8242 34.6974C37.5567 36.1071 34.8666 38.3705 30.8572 38.8102C27.6498 39.162 24.3302 37.3013 23.0713 36.327C22.6316 37.7885 20.1355 41.0994 13.6429 41.0994C9.96981 41.2158 5.89579 39.1853 5.89579 39.1853C9.11621 42.1341 14.005 43.7896 17.0573 44.2552C19.5664 44.6379 23.33 44.9795 28.9948 42.923Z" fill="#A3CB07"/>
<defs>
<linearGradient id="paint0_linear_1512_1403" x1="9.39276" y1="5.67334" x2="9.39276" y2="20.2835" gradientUnits="userSpaceOnUse">
<stop stop-color="#313F48"/>
<stop offset="1" stop-color="#4D5B65"/>
</linearGradient>
<linearGradient id="paint1_linear_1512_1403" x1="31.534" y1="38.8706" x2="31.534" y2="24.2604" gradientUnits="userSpaceOnUse">
<stop stop-color="#313F48"/>
<stop offset="1" stop-color="#4D5B65"/>
</linearGradient>
</defs>
</svg>
